<svg xmlns="http://www.w3.org/2000/svg" width="512" height="512" viewBox="0 0 512 512">
  <g>
    <path d="M222.7,73.38,201.33,97.67C195,90.91,185,80.65,173.2,70.26c-27.82-24.41-51.46-37-70.26-37.35a36.32,36.32,0,0,0-28.1,11.67C53,68.11,55.91,100.86,83.5,141.94c10.61,15.79,23.91,31.59,37.84,46.66L43.58,277,198.89,457.11,428.05,312.22ZM100.11,130.79C67.36,82,84,64.09,89.5,58.19c3.45-3.71,7.61-5.39,13-5.28,26,.51,66.6,39.13,85.54,59.83L134.62,173.5C121.8,159.54,109.69,145.06,100.11,130.79Zm-30,146.33,65.07-74c10.23,10.51,20.43,20.51,29.83,29.71l7.89,7.75a27.6,27.6,0,1,0,13.73-14.55L179,218.58c-9.62-9.43-20.12-19.72-30.57-30.49l74.1-84.23L397.79,307.7,202.78,431Z"/>
    <path d="M485.8,403.13,434,308.54l-51.75,94.59a52.37,52.37,0,0,0,.89,52.29c9,15.15,24.55,24.2,41.64,24.2h18.45c17.09,0,32.65-9.05,41.63-24.2A52.35,52.35,0,0,0,485.8,403.13Zm-18.1,42.09c-5.42,9.15-14.32,14.4-24.43,14.4H424.82c-10.11,0-19-5.25-24.43-14.4a32.54,32.54,0,0,1-.56-32.49L434,350.2l34.21,62.53A32.51,32.51,0,0,1,467.7,445.22Z"/>
  </g>
</svg>
