<svg xmlns="http://www.w3.org/2000/svg" viewBox="0 0 512 512">
  <title>uE60E-celestial-rotate</title>
  <path d="M262,49A215,215,0,0,0,110,416,215,215,0,0,0,414,112,213.6,213.6,0,0,0,262,49ZM87,264c0-96.5,78.5-175,175-175,5.08,0,10.11.23,15.09.66,34.3,72.3,47.41,145.21,39.33,218-76.5,11.31-153.21-.81-229.25-36.37C87.06,268.86,87,266.44,87,264ZM262,439c-86.15,0-157.95-62.57-172.36-144.65C146.55,319.34,204.12,332,261,332h1a391.52,391.52,0,0,0,51.51-3.57q-9.16,55-34.49,109.74Q270.63,439,262,439Zm40.72-4.79C318.34,398,329,361.45,334.49,325a452.8,452.8,0,0,0,100-31.63A175.51,175.51,0,0,1,302.72,434.21Zm134.15-163.9A436.24,436.24,0,0,1,337.12,304,388.91,388.91,0,0,0,339,265c-.15-57-13-114.65-38.23-171.63C378.67,111,437,180.83,437,264,437,266.11,436.95,268.21,436.87,270.31Z"/>
</svg>
