<svg xmlns="http://www.w3.org/2000/svg" viewBox="0 0 512 512">

  <title>uE612-ellipsoid</title>

  <g>
    <path d="M469.33,369h-44.5V324.5a20,20,0,0,0-40,0V369h-44.5a20,20,0,1,0,0,40h44.5v44.5a20,20,0,0,0,40,0V409h44.5a20,20,0,0,0,0-40Z"/>
    <path d="M 358.00,420.00
           C 353.56,418.24 344.11,419.01 339.00,419.00
             327.04,418.98 329.45,417.14 324.00,416.16
             320.23,415.49 312.02,419.63 308.00,421.00
             295.43,425.28 287.26,427.57 274.00,429.15
             274.00,429.15 254.00,431.00 254.00,431.00
             250.53,431.04 246.10,431.51 243.56,428.69
             241.24,426.11 240.47,418.55 240.00,415.00
             240.00,415.00 283.00,413.83 283.00,413.83
             283.00,413.83 315.00,409.00 315.00,409.00
             312.08,398.75 310.04,401.68 310.00,389.00
             310.00,389.00 284.00,392.83 284.00,392.83
             284.00,392.83 264.00,394.09 264.00,394.09
             264.00,394.09 251.00,395.00 251.00,395.00
             251.00,395.00 238.00,394.00 238.00,394.00
             238.00,394.00 238.00,324.00 238.00,324.00
             238.00,324.00 262.00,324.00 262.00,324.00
             262.00,324.00 274.00,323.09 274.00,323.09
             311.78,320.49 347.87,311.88 381.00,293.00
             381.00,293.00 382.00,302.00 382.00,302.00
             389.16,297.63 393.32,294.43 402.00,294.00
             402.00,294.00 400.46,281.01 400.46,281.01
             400.46,281.01 408.91,271.96 408.91,271.96
             408.91,271.96 421.00,256.00 421.00,256.00
             423.52,264.88 420.43,286.81 418.00,296.00
             432.53,304.41 427.97,305.16 435.00,314.00
             438.34,306.03 441.89,284.81 442.00,276.00
             442.00,276.00 442.82,261.00 442.82,261.00
             442.82,261.00 442.00,247.00 442.00,247.00
             441.93,232.22 435.83,206.93 430.58,193.00
             408.94,135.68 359.42,91.48 300.00,76.63
             290.35,74.21 272.75,71.12 263.00,71.00
             246.32,70.81 230.45,71.14 214.00,74.45
             172.63,82.77 137.36,103.75 109.17,135.00
             93.60,152.26 79.95,176.01 72.34,198.00
             66.74,214.20 62.20,237.88 62.00,255.00
             61.53,295.90 71.57,334.88 94.75,369.00
             153.31,455.22 271.69,476.38 358.00,420.00 Z
           M 248.00,91.00
           C 248.00,91.00 246.00,99.00 246.00,99.00
             246.00,99.00 227.00,94.00 227.00,94.00
             227.00,94.00 248.00,91.00 248.00,91.00 Z
           M 299.00,98.00
           C 299.00,98.00 283.00,99.00 283.00,99.00
             283.00,99.00 267.00,100.00 267.00,100.00
             267.00,100.00 270.00,92.00 270.00,92.00
             270.00,92.00 283.00,94.40 283.00,94.40
             283.00,94.40 299.00,98.00 299.00,98.00 Z
           M 218.00,113.00
           C 218.00,113.00 181.00,132.20 181.00,132.20
             181.00,132.20 157.00,147.00 157.00,147.00
             157.00,141.80 156.75,138.04 158.55,133.00
             160.88,126.44 168.63,116.41 175.00,113.70
             186.24,108.92 206.11,111.43 218.00,113.00 Z
           M 338.00,164.00
           C 332.07,161.17 328.18,154.86 323.00,150.28
             308.50,137.48 301.38,130.92 285.00,120.00
             289.16,118.35 296.38,118.95 301.00,119.00
             309.54,119.10 321.63,121.23 330.00,123.23
             334.57,124.33 341.97,126.07 344.64,130.13
             352.50,142.09 344.98,154.14 338.00,164.00 Z
           M 238.00,129.00
           C 238.00,129.00 235.25,146.00 235.25,146.00
             235.25,146.00 229.00,190.00 229.00,190.00
             215.46,189.70 194.68,182.73 183.00,175.99
             180.24,174.39 171.20,169.36 171.20,166.00
             171.20,162.70 182.15,155.89 185.00,154.00
             196.82,146.17 224.39,131.13 238.00,129.00 Z
           M 260.00,129.00
           C 275.62,137.36 289.99,147.94 303.00,159.92
             309.54,165.93 314.32,168.99 319.00,177.00
             297.55,189.21 273.22,192.00 249.00,192.00
             249.00,192.00 256.00,147.00 256.00,147.00
             256.00,147.00 260.00,129.00 260.00,129.00 Z
           M 136.00,139.00
           C 136.05,143.98 136.64,149.17 137.92,154.00
             138.64,156.69 140.53,160.32 139.65,163.00
             138.62,166.15 128.23,175.65 125.29,179.00
             118.48,186.76 109.56,198.23 104.20,207.00
             101.23,211.86 96.45,222.20 92.15,225.00
             91.81,216.22 90.41,216.93 92.15,207.00
             95.14,192.20 107.86,171.04 116.89,159.00
             121.11,153.39 130.01,141.97 136.00,139.00 Z
           M 369.00,141.00
           C 386.85,155.49 394.04,165.59 404.25,186.00
             409.72,196.95 413.14,204.51 413.00,217.00
             412.88,227.13 409.49,235.50 404.19,244.00
             400.93,249.22 396.94,254.30 392.00,258.00
             388.91,244.47 374.60,217.08 366.95,205.00
             366.95,205.00 356.98,190.00 356.98,190.00
             355.66,188.09 352.50,184.12 352.15,182.00
             351.50,178.13 358.26,171.40 360.45,168.00
             363.58,163.15 366.13,156.65 367.33,151.00
             368.09,147.43 367.65,144.39 369.00,141.00 Z
           M 154.00,180.00
           C 173.67,198.06 199.82,207.47 226.00,211.00
             226.00,211.00 223.17,240.00 223.17,240.00
             223.17,240.00 219.96,286.00 219.96,286.00
             219.96,286.00 219.00,301.00 219.00,301.00
             209.92,300.92 196.94,298.11 188.00,295.87
             167.57,290.77 147.79,283.60 130.00,272.14
             123.93,268.23 117.11,263.06 112.00,257.99
             110.16,256.15 107.42,253.54 106.69,251.00
             105.45,246.66 111.67,236.16 113.75,232.00
             121.83,215.89 139.56,190.34 154.00,180.00 Z
           M 334.00,193.00
           C 334.00,193.00 348.31,214.00 348.31,214.00
             357.52,228.31 371.26,255.59 375.00,272.00
             340.56,292.66 301.00,302.54 261.00,303.00
             261.00,303.00 252.00,303.66 252.00,303.66
             252.00,303.66 239.00,303.00 239.00,303.00
             239.00,303.00 242.09,259.00 242.09,259.00
             242.09,259.00 244.03,238.00 244.03,238.00
             244.03,238.00 245.92,221.00 245.92,221.00
             246.09,218.83 245.86,215.51 247.74,213.99
             249.54,212.54 255.56,213.07 258.00,212.96
             258.00,212.96 280.00,210.85 280.00,210.85
             294.30,209.07 310.91,203.94 324.00,197.97
             324.00,197.97 334.00,193.00 334.00,193.00 Z
           M 99.00,274.00
           C 129.24,301.78 177.33,318.71 218.00,322.00
             218.00,322.00 217.00,344.00 217.00,344.00
             217.00,344.00 218.00,392.00 218.00,392.00
             206.62,391.90 188.05,387.42 177.00,384.02
             157.49,378.02 139.52,370.66 123.00,358.37
             116.60,353.61 107.57,345.79 103.48,339.00
             99.33,332.12 96.10,315.15 96.00,307.00
             95.90,298.27 95.47,281.66 99.00,274.00 Z
           M 156.00,399.00
           C 173.55,404.85 200.68,412.60 219.00,413.00
             219.00,413.00 221.00,428.00 221.00,428.00
             203.59,424.50 186.47,418.84 171.00,410.00
             167.07,407.75 157.28,403.17 156.00,399.00 Z" />
  </g>
</svg>

