<svg xmlns="http://www.w3.org/2000/svg" viewBox="0 0 512 512">
  <title>uE613-cuboid</title>
  <g>
    <path d="M469.33,369h-44.5V324.5a20,20,0,0,0-40,0V369h-44.5a20,20,0,1,0,0,40h44.5v44.5a20,20,0,0,0,40,0V409h44.5a20,20,0,0,0,0-40Z"/>
    <path d="M 344.00,425.00
           C 339.69,423.29 336.39,424.44 332.00,423.67
             328.14,423.00 321.18,419.65 318.00,417.37
             314.84,415.09 312.36,412.33 310.35,409.00
             308.89,406.59 307.87,403.06 304.79,402.33
             302.66,401.83 287.33,404.99 284.00,405.61
             284.00,405.61 234.00,415.00 234.00,415.00
             234.00,415.00 234.00,214.00 234.00,214.00
             234.00,214.00 255.00,210.42 255.00,210.42
             255.00,210.42 307.00,200.42 307.00,200.42
             307.00,200.42 375.00,187.42 375.00,187.42
             375.00,187.42 409.00,181.00 409.00,181.00
             409.00,181.00 424.00,178.00 424.00,178.00
             424.00,178.00 424.00,286.00 424.00,286.00
             424.03,301.06 431.56,292.45 438.45,312.00
             441.13,319.60 440.00,344.54 440.00,354.00
             440.00,354.00 454.00,354.00 454.00,354.00
             454.00,354.00 454.00,163.00 454.00,163.00
             453.99,159.01 454.22,155.59 451.99,152.04
             449.39,147.87 445.13,145.96 441.00,143.70
             441.00,143.70 423.00,133.30 423.00,133.30
             423.00,133.30 351.00,92.15 351.00,92.15
             351.00,92.15 319.00,74.02 319.00,74.02
             311.73,70.91 307.28,72.84 300.00,74.02
             300.00,74.02 263.00,81.20 263.00,81.20
             263.00,81.20 126.00,107.39 126.00,107.39
             126.00,107.39 95.00,113.20 95.00,113.20
             89.27,114.30 83.77,114.64 79.56,119.33
             75.86,123.44 76.01,127.86 76.00,133.00
             76.00,133.00 76.00,356.00 76.00,356.00
             76.01,359.79 75.87,363.48 77.57,367.00
             80.60,373.27 92.82,378.77 99.00,382.28
             99.00,382.28 157.00,415.58 157.00,415.58
             157.00,415.58 197.00,438.42 197.00,438.42
             204.92,443.02 210.49,448.34 220.00,447.96
             220.00,447.96 250.00,442.42 250.00,442.42
             250.00,442.42 318.00,429.58 318.00,429.58
             318.00,429.58 344.00,425.00 344.00,425.00 Z
           M 396.00,152.00
           C 396.00,152.00 383.00,155.40 383.00,155.40
             383.00,155.40 357.00,160.40 357.00,160.40
             357.00,160.40 266.00,177.80 266.00,177.80
             266.00,177.80 234.00,183.92 234.00,183.92
             234.00,183.92 220.00,185.29 220.00,185.29
             220.00,185.29 195.00,171.42 195.00,171.42
             195.00,171.42 134.00,137.00 134.00,137.00
             134.00,137.00 148.00,133.20 148.00,133.20
             148.00,133.20 174.00,128.39 174.00,128.39
             174.00,128.39 264.00,111.20 264.00,111.20
             264.00,111.20 294.00,105.40 294.00,105.40
             294.00,105.40 310.00,103.65 310.00,103.65
             310.00,103.65 336.00,117.85 336.00,117.85
             336.00,117.85 366.00,135.01 366.00,135.01
             366.00,135.01 396.00,152.00 396.00,152.00 Z
           M 108.00,156.00
           C 108.00,156.00 181.00,197.58 181.00,197.58
             181.00,197.58 202.01,210.61 202.01,210.61
             202.01,210.61 203.00,218.00 203.00,218.00
             203.00,218.00 203.00,407.00 203.00,407.00
             203.00,407.00 175.00,391.42 175.00,391.42
             175.00,391.42 129.00,365.15 129.00,365.15
             129.00,365.15 107.99,352.37 107.99,352.37
             107.99,352.37 107.00,345.00 107.00,345.00
             107.00,345.00 107.00,213.00 107.00,213.00
             107.00,213.00 107.00,175.00 107.00,175.00
             107.00,175.00 108.00,156.00 108.00,156.00 Z" />
  </g>
</svg>
