<svg id="63cd0cd5-eda7-48ee-9a5c-8d89a01c69c6" data-name="icons" xmlns="http://www.w3.org/2000/svg" viewBox="0 0 512 512"><title>circus-db-icons</title><path id="6dcdc194-f6e4-4698-8e22-769ce5084be5" data-name="admin" d="M417.45,441.66H106.31c-14.21,0-25.64-5.7-31.38-15.63s-5-22.69,2.15-35L232.65,121.57c7.1-12.3,17.76-19.36,29.22-19.36s22.12,7.06,29.23,19.36L446.68,391c7.1,12.3,7.89,25.06,2.16,35S431.66,441.66,417.45,441.66ZM261.88,127.81c-1.62,0-4.44,2-7.06,6.56L99.25,403.83c-2.62,4.53-3,8-2.15,9.39s4,2.83,9.21,2.83H417.45c5.23,0,8.4-1.42,9.21-2.83s0.46-4.86-2.15-9.39L268.94,134.37C266.32,129.83,263.5,127.81,261.88,127.81Zm0,223.51a20.46,20.46,0,1,0,20.47,20.46A20.46,20.46,0,0,0,261.88,351.31ZM251,326a10.91,10.91,0,1,0,21.83,0l11.93-98.78a22.85,22.85,0,1,0-45.7,0Z"/></svg>