<svg xmlns="http://www.w3.org/2000/svg" viewBox="0 0 512 512">
  <title>circus-db-icons</title>
  <g>
    <path d="M427.52,103.24c6.51-16.46,11.66-29.45,15-63.75a10,10,0,1,0-19.91-1.93c-3,31.49-7.5,42.75-13.67,58.32A331.29,331.29,0,0,0,394.36,140a10,10,0,0,0,.58,6.64c38.12,83.67,57.83,234.79,57.6,340.82a10,10,0,0,0,10,10h0a10,10,0,0,0,10-10c0.19-86.54-15.12-249-57.93-345.88A313.13,313.13,0,0,1,427.52,103.24Z"/>
    <path d="M399.58,392.45l-145.35,45L125.35,392.56a10,10,0,1,0-6.58,18.89l125.28,43.66v32.4a10,10,0,1,0,20,0V455.37L405.5,411.56A10,10,0,0,0,399.58,392.45Z"/>
    <path d="M122.76,154.23a10,10,0,0,0,1-9.58,353,353,0,0,0-22.48-44.47c-10.46-18-16.77-28.92-18.76-60.78a10,10,0,0,0-20,1.25C64.87,77.21,72.89,91,84,110.21a335.79,335.79,0,0,1,19.22,37.23c-50.9,77.78-73.65,232.2-69.15,340.48a10,10,0,0,0,10,9.58h0.42a10,10,0,0,0,9.58-10.41c-2.23-53.77,2.65-118.19,13.4-176.73C80,242.14,99.1,188.16,122.76,154.23Z"/>
    <path d="M227.93,190.83a10,10,0,0,0,7.25-18.64l-81-31.5a10,10,0,0,0-7.25,18.64Z"/>
    <path d="M279.55,191.51a10,10,0,0,0,3.77-.74l81-33a10,10,0,1,0-7.54-18.52l-81,33A10,10,0,0,0,279.55,191.51Z"/>
  </g>
</svg>
