<svg xmlns="http://www.w3.org/2000/svg" viewBox="0 0 512 512">
  <title>circus-db-icons</title>
  <g>
    <path d="M460.5,21a10,10,0,0,0-10,10c0,1.1-.79,111.1-68.67,192.81-19.59,23.58-48.2,49.06-71.2,69.53-32.45,28.89-42.71,38.48-42.71,47.9C267.92,360.4,268,490,268,490l20,0s-0.11-123.56-.11-147.21c3.56-5.6,21.48-21.57,36-34.5,23.49-20.92,52.73-47,73.28-71.69,29.11-35,50.18-78.52,62.63-129.24,10.54-42.94,10.66-75,10.66-76.35A10,10,0,0,0,460.5,21Z"/>
    <path d="M201.93,330.48c-0.11-16.66-24.52-43.83-79.2-98.41C93.86,203.27,80.93,170.63,79.5,122.93c-1-32.82-1-62.09-1-85.6V31a10,10,0,0,0-20,0v6.32c0,23.65,0,53.09,1,86.21,1.58,52.55,16.71,90.4,49.08,122.71,18,17.92,36.65,36.74,50.74,52.65,21,23.67,22.5,30.64,22.59,31.72,0,5.16.42,20.94,0.91,40.92,1,39,2.25,92.32,2.25,118.47a10,10,0,0,0,20,0c0-26.4-1.3-79.9-2.26-119C202.34,351.16,202,335.46,201.93,330.48Z"/>
    <path d="M351.63,183c20.75-28.08,34-63.38,41.48-88C401.54,67.11,406,41.7,406,31a10,10,0,0,0-20,0c0,16.75-15.71,93.19-50.41,140.13-20.71,28-59.66,61.24-88.11,85.51-3.8,3.24-7.47,6.37-10.89,9.32-8.68-8.7-18.36-21.54-28.48-35-12.94-17.18-27.6-36.66-44.16-53-29.05-28.6-26.4-98.73-25.12-132.44,0.22-5.78.41-10.78,0.41-14.56a10,10,0,1,0-20,0c0,3.41-.18,8.23-0.39,13.81-1.49,39.37-4.26,112.66,31.08,147.45,15.5,15.26,29.69,34.11,42.21,50.74,13.94,18.51,26,34.5,38.13,44.15a10,10,0,0,0,12.81-.32c5-4.39,11-9.52,17.39-15C289.59,247,329.56,212.88,351.63,183Z"/>
  </g>
</svg>
