<svg xmlns="http://www.w3.org/2000/svg" viewBox="0 0 512 512">
  <title>circus-db-icons</title>
  <g>
    <path d="M138.43,148.4a10,10,0,0,0,9.51,6.91l0.73,0,131.2-9.55a10,10,0,0,0,9.27-9.57l0.5-12.15,77.84-11.11A10,10,0,0,0,376,104l3.39-34.2A10,10,0,0,0,368,58.92L279.78,72.15,267.65,40.27a10,10,0,0,0-9.57-6.44L115.78,37a10,10,0,0,0-9.29,13.09ZM251.47,54l12.48,32.81a10,10,0,0,0,10.83,6.33l83.45-12.51-1.35,13.61-78.31,11.17a10,10,0,0,0-8.58,9.49l-0.47,11.55L155,134.77,129.67,56.7Z"/>
    <path d="M298.23,157.49a10,10,0,0,0-10.6-8.51l-134.55,9.55A10,10,0,0,0,144,170.37l16.68,87.85a10,10,0,0,0,9.82,8.13l0.56,0L303.93,259a10,10,0,0,0,9.33-11.49l-1.56-10.27L390.25,231a10,10,0,0,0,9.2-9.42l1.67-30.7a10,10,0,0,0-10.83-10.51l-87.58,7.4Zm81.72,54.26-80.54,6.38a10,10,0,0,0-9.1,11.47l1.52,10-113.18,6.26-12.95-68.2,114.09-8.1,4.49,30.4a10,10,0,0,0,10.73,8.5l85.49-7.22Z"/>
    <path d="M325.82,302.18L319,270.76a10,10,0,0,0-10.39-7.86l-132.88,8.19a10,10,0,0,0-9.25,11.64l14.21,84.59a10,10,0,0,0,9.59,8.34l124.52,3.41h0.28a10,10,0,0,0,9.88-8.45l2.91-18.56,69.39-3.33a10,10,0,0,0,9.4-8.46L411,311.93a10,10,0,0,0-10.12-11.52Zm62.32,27-69.37,3.33a10,10,0,0,0-9.4,8.44l-2.81,17.92-107.5-2.94-11-65.52,113.22-7,6.75,31.1a10,10,0,0,0,10,7.88l71.42-1.69Z"/>
    <path d="M326.94,420.28l-1.88-26.67a10,10,0,0,0-9.66-9.29l-128.7-4.09a10,10,0,0,0-10.15,8.15l-17.13,91.27a10,10,0,0,0,9.7,11.84l128.53,1.65h0.13a10,10,0,0,0,8.62-4.93l7.92-13.46,76.89,2.88a10,10,0,0,0,9.61-6.15l13.75-33.08a10,10,0,0,0-8.69-13.82ZM385,457.38l-75.91-2.84a9.94,9.94,0,0,0-9,4.92l-8,13.6-110.83-1.42,13.35-71.16L305.74,404l1.87,26.47a10,10,0,0,0,9.43,9.28l73.63,4Z"/>
  </g>
</svg>
