<svg xmlns="http://www.w3.org/2000/svg" viewBox="0 0 512 512">
  <title>circus-db-icons</title>
  <path d="M371.5,63.58c-45-22.24-95.06-28.25-148.79-17.84-42.17,8.17-74.51,24.51-85.14,29.88C109,90,42.25,123.77,36.14,184,35.62,189.12,32,234.5,63.78,260.3c21,17.08,39.27,17,50.87,13.9a240.8,240.8,0,0,0,24.58-8.08,59.51,59.51,0,0,0,.51,16.71c6.45,35.42,49.5,59.12,85.89,59.2,4.17,32.92,27.46,42.15,41.8,47.82,3.56,1.41,8.94,3.53,10,4.79,8.7,12.74,18.48,39.69,15.64,95.71l0,0.81a10,10,0,0,0,9.49,10.49H303a10,10,0,0,0,10-9.5l0-.8c2.51-49.44-3.92-85.78-19.1-108-4.25-6.21-11.48-9.08-19.14-12.1-13-5.16-26.48-10.48-29.28-31.46a262.47,262.47,0,0,0,35.77-9.64c0.87,1.35,1.78,2.77,2.73,4.25,10.26,16,24.67,38.57,44.33,48.83a10,10,0,0,0,.85,3.79c8.1,18.36,6.7,71.77,6,97.44-0.08,3.11-.15,5.91-0.21,8.31A10,10,0,0,0,344.79,503H345a10,10,0,0,0,10-9.79c0-2.37.12-5.13,0.2-8.21,0.91-34.76,1.3-72.79-4.41-96,5,0.44,9.55.66,13.8,0.66,17.12,0,29.55-3.63,48.84-11.45,25.92-10.51,44.33-49.29,46.11-72.46,0-.2,0-0.4,0-0.6,28.9-15.92,32.58-61,33-74.85C494.83,158,431.4,93.19,371.5,63.58Zm34.41,296.15c-23.08,9.36-33.59,11.66-58.73,8.86-18.93-2.1-35.41-27.89-46.32-45l-0.46-.73q4.69-1.91,9.14-3.77c16.13-6.72,30.05-12.53,46.82-14.69,19.58-2.53,33.24.81,46.46,4,11.55,2.82,22.67,5.53,35.48,3.72C434.1,329.79,421.08,353.58,405.91,359.73Zm66.66-130c-0.15,4.95-2.14,48.61-24.17,58.72-15.06,6.91-25.87,4.27-40.84.61-13.58-3.32-30.49-7.44-53.76-4.44-19.42,2.51-35.23,9.09-52,16.06-18,7.5-36.61,15.26-63.53,20.13A67.77,67.77,0,0,1,226,322h-0.22c-27.71,0-61.93-18.25-66.4-42.79-0.76-4.19-1.11-11.16,1.55-20.57a66,66,0,0,1,12.64-22.06c20.27-23.24,62.16-27.68,66.87-28.11a10,10,0,0,0-.9-20c-0.3,0-.61,0-0.92,0-9,.82-55.26,6.37-80.12,34.88a86.1,86.1,0,0,0-10.8,15.67,10,10,0,0,0-3.77,2.81c-3.73,2.54-19.4,8.92-34.46,12.93-10.34,2.75-21.48-.65-33.12-10.1-24-19.52-20.52-57.13-20.35-58.73,5-49.36,65-79.65,90.55-92.58,76.62-38.7,153.35-43,216-12C417,108.37,474.56,166.21,472.57,229.73Z"/>
</svg>
