<svg xmlns="http://www.w3.org/2000/svg" viewBox="0 0 512 512">
  <title>circus-db-icons</title>
  <g>
    <path d="M113.75,415.31a208.74,208.74,0,0,0,145.8,58.94c115.7,0,209.82-94.13,209.82-209.82,0-105.77-79-195.28-183.87-208.22a14.8,14.8,0,0,0-3.63,29.38c90,11.11,157.89,88,157.89,178.84,0,99.37-80.84,180.21-180.22,180.21A179.52,179.52,0,0,1,79.47,271.06a14.8,14.8,0,0,0-29.59,1.07A208.73,208.73,0,0,0,113.75,415.31Z"/>
    <path d="M367.13,311.93A47.07,47.07,0,1,0,320.06,359,47.13,47.13,0,0,0,367.13,311.93Zm-70,0a22.93,22.93,0,1,1,22.93,22.93A23,23,0,0,1,297.13,311.93Z"/>
  </g>
</svg>
