<svg xmlns="http://www.w3.org/2000/svg" viewBox="0 0 512 512">
  <title>circus-db-icons</title>
  <g>
    <path d="M403,84.62a10,10,0,1,0-6.2,19A104.77,104.77,0,1,1,265,236.79l-0.07-.17c-0.06-.17-0.13-0.33-0.2-0.5s-0.12-.3-0.19-0.44-0.14-.27-0.21-0.41-0.17-.32-0.26-0.47l-0.22-.34c-0.11-.16-0.21-0.32-0.32-0.47l-0.25-.31c-0.12-.14-0.23-0.29-0.36-0.43l-0.31-.32-0.36-.35-0.38-.32-0.36-.29-0.42-.29-0.39-.25-0.42-.23-0.46-.24-0.39-.17-0.55-.22-0.15-.06-0.22-.06-0.59-.17-0.4-.09-0.56-.1L256.5,230,256,230h-1l-0.5,0-0.46.06-0.53.09-0.43.1-0.55.16-0.24.07-0.16.06-0.51.2-0.43.19-0.42.22-0.46.26-0.35.23-0.46.32-0.32.26-0.42.35-0.33.33-0.34.35c-0.12.13-.23,0.27-0.34,0.41l-0.27.33c-0.11.15-.21,0.3-0.31,0.46l-0.23.35c-0.09.15-.17,0.31-0.26,0.46s-0.15.27-.21,0.41-0.13.29-.19,0.44-0.14.33-.2,0.5l-0.07.17a104.77,104.77,0,1,1-131.8-133.16,10,10,0,1,0-6.2-19A124.77,124.77,0,0,0,95.46,317L72.17,441.15a10,10,0,1,0,19.66,3.69l22.7-121.07a124.82,124.82,0,0,0,141-59.33,124.81,124.81,0,0,0,144.08,58.46l28.69,122.39a10,10,0,0,0,19.47-4.56L418.41,315.61A124.77,124.77,0,0,0,403,84.62Z"/>
    <circle cx="123.62" cy="257.84" r="15.73"/>
    <circle cx="399.41" cy="257.84" r="15.73"/>
  </g>
</svg>
