<svg xmlns="http://www.w3.org/2000/svg" viewBox="0 0 512 512">
  <title>circus-db-icons</title>
  <path d="M469.32,57.89c-28.43-33.79-101.83-17.13-124.94-5.1-15.86,8.26-46.67,17.27-74.92,21.92-32.78,5.39-59.2,4.53-70.68-2.31C167.87,54,104.49,29.53,66,42.3c-13.7,4.55-23.7,13.61-28.92,26.21-9.69,23.4-2.24,36.77,4.34,48.57C47.53,128,53.29,138.32,47.33,161c-4,15-9.51,20.7-14.87,26.16-4.91,5-10.48,10.67-12.59,21.25-1.92,9.59-7,42.19,7.56,59.15,17.41,20.22,17.19,22.23,15.14,41.41-1.82,17-4.64,22.54-8.54,30.22a135.7,135.7,0,0,0-11.16,28.7c-6,21.78-.28,60.31,17.77,82.95C52,465.08,67.15,472.25,84.43,471.49c27.74-1.21,51-12,63.85-29.51,9.49-13,12.46-28.46,8.37-43.59a70.85,70.85,0,0,0-2.6-7.14c-4.34-10.88-12.43-31.15-6.71-53.06,1-3.68,2.23-7.57,3.58-11.68,7.46-22.82,17.59-53.78-15-91.8,0.73-1.42,1.63-3.08,2.43-4.55,6.83-12.59,18.94-34.93,19.42-62.84l3.68,1.22c18.9,6.32,54.08,18.08,103.23,13.06,32.46-3.32,66.14-16,93.2-26.17,14.49-5.45,32.3-12.16,38.5-12.24,7,9.28,1.39,27-4,44.2-3.13,10-6.36,20.24-7.32,29.58-2,19.39,2.65,34,5.72,43.61a63.21,63.21,0,0,1,2.38,8.74c-4.37,1.93-14.94-5.9-25.17-13.49-14.88-11-33.41-24.78-57.31-30.1-26-5.79-51.33-.67-64.11,2.89-10.13,2.83-34.5,10.95-41.94,25.25-7.35,14.14-3.22,38.8.43,60.57,1,6,1.94,11.59,2.51,16.25,1.36,11.2-3.73,23.46-7.82,33.31-3.16,7.6-5.65,13.61-5.65,19.32,0,11.83,5.51,20.76,10.36,28.64,5.48,8.88,8.76,14.74,7.43,22.91-0.52,3.16-2.05,5.24-5.2,9.28-6.44,8.27-15.27,19.59-15.27,48.83a10,10,0,0,0,20,0c0-22.37,5.61-29.57,11-36.54,3.66-4.69,7.8-10,9.16-18.36,2.6-15.95-4.47-27.41-10.15-36.63-4-6.43-7.39-12-7.39-18.14,0-1.84,2.4-7.52,4.12-11.66,4.73-11.38,11.2-27,9.21-43.38-0.62-5.11-1.6-11-2.64-17.15-2.66-15.86-6.68-39.83-2.42-48,1.38-2.66,10.43-9.88,29.57-15.22,18.68-5.21,38.5-6.17,54.38-2.64,19.75,4.4,35.68,16.21,49.74,26.64,12.3,9.12,24.1,17.88,35.73,17.88a22.77,22.77,0,0,0,12.65-3.89,18.31,18.31,0,0,0,8.73-16.55c-0.12-4.69-1.61-9.38-3.34-14.81-2.87-9-6.45-20.25-4.88-35.5,0.75-7.32,3.54-16.21,6.5-25.63,7.06-22.46,15.06-47.93-1.75-65.34-9.55-9.89-27.06-3.3-58.86,8.67-26,9.78-58.31,21.94-88.18,25-44.86,4.59-76.16-5.88-94.85-12.13-12.12-4.05-19.43-6.5-25.65-1.63a12.52,12.52,0,0,0-4.62,11.35c2.13,26.46-9.7,48.29-16.77,61.33-1.94,3.57-3.46,6.39-4.51,8.89-2.53,6-2.06,11,1.41,14.77,28.9,31.22,21.78,53,14.25,76-1.38,4.21-2.8,8.57-3.92,12.85-7.37,28.27,2.67,53.43,7.49,65.52,0.8,2,1.63,4.09,1.87,5,2.51,9.28.71,18.46-5.21,26.56-9.23,12.62-26.94,20.4-48.58,21.34-10.93.48-19.85-3.84-27.3-13.18-14.76-18.52-18.18-50.45-14.12-65.18a115.26,115.26,0,0,1,9.71-25c4.31-8.48,8.37-16.5,10.59-37.13,2.78-25.9.18-33.31-19.86-56.59-5.43-6.3-6.73-24-3.11-42.18,0.91-4.55,2.88-6.71,7.25-11.16,6.18-6.29,14.64-14.9,19.95-35.09,8-30.43-.74-46.11-7.77-58.71-5.81-10.42-9.32-16.71-3.33-31.17,3-7.28,8.49-12.14,16.74-14.88,30.1-10,87.16,11,116.24,28.31,10.34,6.16,25.47,8.62,42.59,8.62,43.62,0,100.07-16,122.48-27.68,20.68-10.77,81.59-22.11,100.4.24,21.55,25.61,30.23,86.63,24.26,111.38a46.58,46.58,0,0,1-3.59,8.66c-5.15,10.58-12.21,25.07-4.21,50.22,8.46,26.6-3.07,73-14.53,87-20.19,24.57-38.29,27.12-56.59,27.69-18.09.56-25.44-1.77-49.22-15.64a163,163,0,0,1-13.74-9.64c-6.19-4.64-12.6-9.43-18.53-12.65-9.72-5.28-17.66-5.6-23.6-.95-10.64,8.33-6.1,22.3-1.71,35.81,2.93,9,6.26,19.25,5.48,27.46-0.82,8.7-5.51,15.34-10.48,22.37-5.4,7.64-11.53,16.3-11.43,27.53,0.11,13,7.55,18,12.48,21.36,2.92,2,4.84,3.27,6.23,6.32,3.82,8.39,3.95,18,4.1,29.22,0,2.74.08,5.58,0.17,8.47a10,10,0,0,0,10,9.67h0.34a10,10,0,0,0,9.66-10.33c-0.09-2.7-.13-5.44-0.16-8.08-0.17-12.3-.34-25-5.89-37.22-3.72-8.18-9.45-12.05-13.24-14.61s-3.65-2.46-3.67-4.95c0-4.55,2.93-9,7.77-15.82,5.68-8,12.74-18,14.06-32,1.16-12.32-2.84-24.64-6.37-35.51-1.09-3.34-2.52-7.77-3.31-11.16,5,2.77,12.15,8.14,16.14,11.13a175.1,175.1,0,0,0,15.64,10.9c25.5,14.88,36.47,19.09,59.92,18.36,21.19-.66,45.93-4,71.41-35,16.45-20,28.29-73.81,18.14-105.71-5.57-17.52-1.34-26.2,3.13-35.39a62.32,62.32,0,0,0,5.06-12.73c3.75-15.56,3.07-39.71-1.82-64.6C492.76,106.28,485.14,76.69,469.32,57.89Z"/>
</svg>
