<svg xmlns="http://www.w3.org/2000/svg" viewBox="0 0 512 512">
  <title>circus-db-icons</title>
  <path d="M461.85,54.95C448.8,39,425.55,31.56,394.6,33.38c-21.8,1.28-46.28,7.4-60.92,15.23-31.52,16.85-114,33.57-136.6,19.76C175,54.86,108,23,63.85,37.59c-15.06,5-26,15.07-31.73,29.2C21.86,92.2,30,107.21,36.57,119.27c5.73,10.54,10.68,19.65,5.32,40.55-3.55,13.86-8.3,18.82-13.32,24.07S17.4,195.57,15.08,207.5c-2,10.09-7.17,44.46,8.38,63s15.6,19.42,13.67,37.95c-1.69,16.17-4.15,21.14-7.86,28.65a141.93,141.93,0,0,0-11.2,29.56c-6.22,23.23-.77,63.45,18.88,87.91,12.06,15,28,22.53,46.24,21.71,28.19-1.26,52.1-12.51,65.6-30.87,10.5-14.28,13.85-31.4,9.42-48.2a74.78,74.78,0,0,0-2.69-7.64c-4-10.41-11.58-29.78-6.37-50.28,0.9-3.55,2.12-7.37,3.41-11.41C160,304.53,170.06,273,139,234.14l1-1.82c6.31-11.95,17.12-32.42,19.14-58.26,19.38,6.6,53.31,17.23,99.95,12.33,32.32-3.39,65.48-16.2,92.13-26.5,11-4.26,25.48-9.84,32.76-11.42,3,8.35-1.7,23.77-5.93,37.59-3.11,10.16-6.33,20.67-7.3,30.46-2,20.31,2.66,35.42,5.75,45.41l0.12,0.37c-4.49-2.76-10.27-7.16-14.29-10.22-14.89-11.34-33.42-25.45-57.81-31-19.76-4.52-43.63-3.87-65.49,1.79-13.48,3.48-37.43,11.84-46.4,28.68-11.9,22.33-4.94,44.33.65,62,2.07,6.54,4,12.72,4.61,17.7,1,8.46-2.16,15.86-5.82,24.44-3.44,8.06-7.34,17.2-7.34,27.66,0,13.1,6,23,10.76,31,5.08,8.46,7.69,13.19,6.63,19.83-0.19,1.23-.43,1.65-3.22,4.81-8.48,9.61-16.77,21.69-16.77,54a14.8,14.8,0,1,0,29.61,0c0-23.82,4.75-29.2,9.35-34.41,3.67-4.15,8.69-9.84,10.27-19.77,2.79-17.59-4.88-30.38-10.49-39.71-4.05-6.75-6.53-11.12-6.53-15.78,0-4.41,2.3-9.8,5-16,4.42-10.35,9.91-23.23,8-39.52-0.92-7.77-3.39-15.59-5.79-23.16-4.52-14.29-8.79-27.8-2.75-39.14,4.5-8.45,44-23.57,79.17-15.53,18.14,4.15,33.19,15.61,46.47,25.72,7.86,6,15.28,11.63,22.63,15.09,14.13,6.66,24.42,3.17,30.56-.92a23.28,23.28,0,0,0,10.66-20.6c-0.13-5.32-1.75-10.53-3.46-16-2.68-8.63-6-19.37-4.57-33.7,0.69-6.87,3.34-15.55,6.15-24.74,6.88-22.49,15.45-50.48-2.8-69.87-9.41-10-24.55-5.79-31-4-8.81,2.45-19.56,6.6-32,11.41-25,9.66-56.14,21.69-84.55,24.67-42.53,4.46-72.32-5.77-90.12-11.88-12.46-4.28-21.47-7.37-29.73-1a17.49,17.49,0,0,0-6.51,15.55c2,25.15-9.16,46.23-15.81,58.83-1.95,3.68-3.48,6.59-4.59,9.31-4,9.74-1,16,2.25,19.62,26.35,29.23,20.11,48.82,12.88,71.5-1.36,4.28-2.77,8.7-3.89,13.11-7.54,29.68,2.6,55.76,7.47,68.3,0.66,1.69,1.47,3.78,1.66,4.46a26.51,26.51,0,0,1-4.64,23.11c-8.17,11.11-23.87,18-43.07,18.83C73.26,447.09,66.11,443.6,60,436,46.35,419,43,388.11,46.67,374.33a113,113,0,0,1,9.14-24.09c4.38-8.87,8.52-17.24,10.77-38.7,2.85-27.29,0-35.71-20.43-60.05-3.78-4.51-5.56-20.07-2-38.32,0.63-3.26,1.82-4.61,5.83-8.81,6.38-6.67,15.12-15.81,20.6-37.18,8.25-32.17-1.13-49.43-8-62-5.52-10.17-8-14.81-3-27.26,2.44-6,6.75-9.92,13.56-12.17C101,56.51,154.33,76.93,181.63,93.63c11,6.72,26.84,9.4,44.6,9.4,43.56,0,98.61-16.12,121.41-28.3,21.65-11.57,76.4-19.2,91.31-1,19.84,24.2,28.17,84.05,22.69,107.4a44.74,44.74,0,0,1-3.18,7.74c-5,10.63-12.67,26.69-4.34,53.53,7.61,24.55-2.76,69.5-13.33,82.7-18.34,22.92-34.07,25.24-51.26,25.79-16.67.54-22.55-1.42-45.07-14.9a158.83,158.83,0,0,1-12.89-9.31c-6.18-4.75-12.57-9.66-18.68-13.06-14.34-8-23.59-4.67-28.81-.47-13.1,10.53-8,27.75-3.42,43,2.46,8.25,5.26,17.59,5.26,24.92,0,10.47-3.93,15.23-9.36,21.81s-12,14.59-11.95,27.19c0.12,15.42,9.3,21.78,14.23,25.2,2.78,1.92,3.61,2.56,4.38,4.29,3.34,7.53,3.46,16.75,3.6,27.42,0,2.76.08,5.62,0.17,8.56a14.8,14.8,0,0,0,14.79,14.32h0.49a14.8,14.8,0,0,0,14.32-15.28c-0.09-2.66-.12-5.37-0.16-8-0.17-12.76-.35-25.95-6.14-39-4.17-9.42-10.69-13.94-14.58-16.63-0.47-.33-1-0.72-1.49-1.06v0c0-1.65,1.57-3.74,5.17-8.11,6.43-7.78,16.14-19.54,16.14-40.66,0-11.66-3.45-23.21-6.49-33.4l-0.34-1.15c1.75,1.32,3.42,2.6,4.84,3.69a177,177,0,0,0,15.72,11.23c23.72,14.2,35.9,19.91,61.23,19.09,15.75-.51,45.06-1.45,73.42-36.88,17.06-21.31,28.94-76.24,18.49-110-4.9-15.82-1.5-23,2.81-32.07a66.86,66.86,0,0,0,5.25-13.66c3.79-16.15,3.15-41-1.73-66.5C485.59,105,477.93,74.56,461.85,54.95Z"/>
</svg>
