<svg xmlns="http://www.w3.org/2000/svg" viewBox="0 0 512 512">
  <title>circus-db-icons</title>
  <g>
    <path d="M278.12,29c-53.28,1.51-105.38,7.31-157,61.07-40.69,42.37-31.85,79.55-26,104.15A112.54,112.54,0,0,1,98,208.89c0.79,8.89-21.4,25.5-33.32,34.43C49.73,254.5,39.86,261.89,39,271.11c-0.69,7.75,3.81,16.8,28.05,35.77,6.75,5.29,13.49,10.1,18.37,13.49l-10,20.18a10,10,0,0,0,3.4,12.77c7.56,5.06,15.38,12.93,16,16.1-2.22,11.39-6.56,34.55,7.3,52.66,17.13,22.37,65.05,24.48,112.67,24.72,8.59,0,18.25.09,21.37,0.6,4,3.13,12.3,19.85,17.71,35.81a10,10,0,1,0,18.94-6.41c-0.14-.41-3.43-10.1-8.14-20.44-9.6-21.07-16.49-25.88-21.42-27.72-4.42-1.65-11.46-1.75-28.37-1.83-27.36-.14-84.3-0.42-96.9-16.88-8.53-11.13-5.25-28-3.48-37,2.37-12.18-8.91-24-17.5-31l10.2-20.5a10,10,0,0,0-3.47-12.82c-20-13.1-39.23-28.8-44-35.68,3.2-3.39,11-9.2,16.87-13.62,20.18-15.1,43-32.22,41.26-52.22a127.14,127.14,0,0,0-3.35-17.51c-5.42-22.8-12.17-51.17,21-85.67C182,55.56,227.85,50.43,278.68,49c35.09-1,88.84,10.9,125,47.67,26.71,27.16,39.27,62.79,37.32,105.89-2.45,54.32-23.1,82.89-41.32,108.1C387,328.21,376,343.37,374.56,363.25c-4,53.54,55.2,116.58,61.72,121.64a10,10,0,1,0,12.29-15.77c-4.94-4-57.33-60.82-54.07-104.37,1.07-14.24,10-26.66,21.4-42.38,18.87-26.12,42.36-58.63,45.08-118.91,2.17-48.19-12.71-90-43-120.81C377.32,41.33,319.05,27.84,278.12,29Z"/>
    <path d="M326.47,171c-9-.82-17.86,5.33-23.67,10.64-3.54,3.24-15.1,14.7-15.1,26.32a10,10,0,0,0,20,.15c0.22-1.24,2.26-5.41,7.12-10.29s8.78-6.69,10-6.88c7.35,1,22.74,25.9,24,39,0.67,6.8-1.37,20.89-6.57,34.66-5.41,14.33-11.83,21.69-15.75,22.62-4.8.81-19.36-6.05-22.1-10.32A10,10,0,0,0,284.48,278c0,6,3.4,11.76,10.09,17.06,7.06,5.59,20.45,12.23,31.42,12.22a22.18,22.18,0,0,0,5.1-.55c15.13-3.58,24.61-21,29.9-35,5.72-15.16,8.84-32.71,7.77-43.68C367.19,212.1,349.12,173.09,326.47,171Z"/>
  </g>
</svg>
