<svg xmlns="http://www.w3.org/2000/svg" viewBox="0 0 512 512">
  <title>circus-db-icons</title>
  <path d="M109.83,322.59a10,10,0,0,0,1.06.78c-1.21,9.48.65,19.34,4.29,29a10,10,0,0,0-3.17,7.29V468a10,10,0,0,0,20,0V382.81c9.51,13.43,20,24.75,26.32,31.64,25,27.12,64.81,52.9,103.79,67.3,22.81,8.42,44.25,12.62,63.47,12.62,20.53,0,38.54-4.8,53-14.37,18.32-12.17,29.61-29.07,34.49-51.64,4.12-19,3.25-39.85,2.4-60-0.15-3.68-.31-7.37-0.43-11-1.21-35.76-3.24-95.62-44.8-138.61-8.89-9.19-18.51-16.45-26.24-22.27-5.6-4.22-14.92-11.24-15.8-14.15,2.13-8.79,24.09-23.18,38.46-28.68,3.9,14,4.87,29.07,4.4,43a10,10,0,0,0,20,.67c1.08-32.48-5.07-58.87-18.29-78.45-14.05-20.81-35.3-33.09-63.16-36.48-39.31-4.79-70.61,9-85.88,37.92-9.64,18.24-8,34.41-2.4,45.46-4.9,7.63-10.56,18.11-16.48,29.07-5.21,9.64-10.54,19.5-15.09,26.89-2.86-3.52-6.4-9.43-9.71-18.46-11.63-31.77-12.71-81.3,12.38-115,32.23-43.24,92.42-46,93-46,51.4-1.9,89,9.88,115,36,32.06,32.25,46.64,87.5,43.33,164.23A10,10,0,0,0,453.24,253h0.44a10,10,0,0,0,10-9.57c3.55-82.53-13-142.82-49.13-179.19-30.14-30.32-72.62-44-129.9-41.9-2.86.11-70.42,3.18-108.31,54-29.69,39.84-29,95.9-15.13,133.79,4.26,11.65,13.68,31.72,28.88,35.25a10,10,0,0,0,10.18-3.62c6.3-8.15,14-22.37,22.12-37.42,6.93-12.82,14.1-26.08,18.84-32.3a10,10,0,0,0-.21-12.39c-4.34-5.31-6.86-16.35.35-30,14.86-28.11,45.91-29.54,64.17-27.6-24.83,17.69-48.75,54.13-66,82.75-1.17,1.95-2.38,4-2.72,4.44a405.88,405.88,0,0,0-23.7,38.38c-8.58,15.4-13.76,24.7-29,36.87-14.38,11.48-26.85,16.89-37.86,21.67s-20.63,9-27.37,17.57c-17.32-17-21.79-37.66-13.67-63,4.65-14.54,14.5-26.57,24-38.2,7.52-9.18,14.61-17.85,18.91-27.42a10,10,0,0,0,.41-7.11c-3.35-10.6-6.31-22.37-9.17-33.75-2.93-11.67-6-23.74-9.5-34.92a10,10,0,0,0-19.07,6c3.35,10.6,6.31,22.37,9.17,33.76,2.59,10.32,5.26,21,8.29,31-3.46,6.22-8.85,12.81-14.52,19.73-10.21,12.47-21.79,26.61-27.6,44.78C72.09,278.51,91.27,306.69,109.83,322.59Zm22.4-2.41c3-7.18,8.9-10,22-15.66,11.55-5,25.93-11.25,42.38-24.38,18.32-14.62,24.9-26.43,34-42.76a382.84,382.84,0,0,1,22.62-36.66c0.66-.94,1.54-2.39,3.46-5.59,38.75-64.34,61.55-80.83,73.85-83.35a10,10,0,0,0,3.54-1.48,61.34,61.34,0,0,1,25.09,24.83C344,141.26,313,158,308.56,178.21c-3.1,14.28,9.16,23.51,23.35,34.21,7.55,5.69,16.1,12.13,23.9,20.2C392,270.08,393.82,323,395,358c0.13,3.73.28,7.47,0.44,11.2,1.66,39.43,3.08,73.49-28,94.13C345,478.25,310.06,478.13,269,463c-36.2-13.37-73-37.16-96-62.1C139,364,125.26,336.87,132.23,320.19Z"/>
</svg>
