<svg xmlns="http://www.w3.org/2000/svg" viewBox="0 0 512 512">
  <title>circus-db-icons</title>
  <path d="M85.65,325.58A59.71,59.71,0,0,0,87,342.32V468a15,15,0,1,0,30,0V397.67c6.74,8.36,13.17,15.32,17.64,20.17,25.54,27.66,66.05,53.95,105.73,68.6,23.35,8.62,45.37,12.92,65.2,12.92,21.53,0,40.48-5.07,55.72-15.2,42.79-28.43,40.84-75,39.12-116-0.15-3.67-.31-7.34-0.43-11-1.24-36.48-3.31-97.54-46.21-141.91-9.16-9.48-19-16.86-26.83-22.79-4.52-3.4-10.42-7.85-13.06-10.66,1.65-2.45,5.72-7,14.18-12.62a122.94,122.94,0,0,1,15.23-8.63,149,149,0,0,1,2.7,36A15,15,0,0,0,360.5,212H361a15,15,0,0,0,15-14.5c1.12-33.55-5.32-60.95-19.14-81.42C342.16,94.33,319.09,81,290.14,77.44,245.58,72,212.4,85.35,196.74,115c-7,13.21-13.61,28-9.2,41.9-4.6,7.11-9.78,16-15.17,25.32-3.67,6.32-7.4,12.75-10.87,18.45a69.82,69.82,0,0,1-4.59-13.39c-5.88-24.34-4.32-64.08,19.45-96,30.82-41.34,88.62-44,89.2-44,49.9-1.83,86.29,9.45,111.24,34.54,31,31.22,45.12,85.21,41.89,160.49q0,0.32,0,.64v98a15,15,0,0,0,30,0V243.32c1.84-43.48-1.82-81.21-10.9-112.12-8.45-28.77-21.8-52.48-39.69-70.48-31.17-31.36-74.88-45.55-133.63-43.37-3,.11-72.83,3.29-112.14,56-15,20.06-24.41,44.47-27.35,70.58-2.49,22.11-.24,44.2,6.35,62.19s17,29.61,29.3,32.47a15,15,0,0,0,15.27-5.44c6.42-8.31,14.2-21.71,22.44-35.9,6.88-11.85,14-24.11,18.62-30.18a15,15,0,0,0-.32-18.59c-0.67-.81-1.35-4.35,6.65-19.49,9.67-18.3,30.13-23,49.27-22.75-21.9,19.79-42.15,50.85-57.3,76-1.05,1.74-2.24,3.72-2.53,4.15a410.08,410.08,0,0,0-24,38.82c-8.57,15.37-13.29,23.84-27.76,35.39-13.86,11.06-26,16.33-36.74,21-9.36,4.06-18.37,8-25.47,14.79-13-14.88-15.8-32.33-8.81-54.15,7.1-22.18,14.54-38.42,21.74-54.13,1.68-3.66,3.34-7.29,5-11a15,15,0,0,0,.62-10.66C114,156,111.05,144.32,108.21,133c-2.95-11.74-6-23.88-9.58-35.2a15,15,0,0,0-28.6,9c3.31,10.46,6.24,22.15,9.08,33.46,2.47,9.85,5,20,7.88,29.66l-2.58,5.63c-7.57,16.52-15.4,33.59-23,57.49C46.73,278.88,66.24,308.55,85.65,325.58Zm31.19-3.47c2.17-5.19,6.5-7.43,19.34-13,11.2-4.86,26.54-11.51,43.51-25.06,19.09-15.24,26.22-28,35.25-44.23a378.8,378.8,0,0,1,22.35-36.22c0.75-1.08,1.61-2.49,3.65-5.88,5.68-9.43,17.5-29.05,31.7-47.16,21.85-27.86,34.46-33,38.86-33.86A15,15,0,0,0,314,116a55.6,55.6,0,0,1,18,16.79,152.92,152.92,0,0,0-20.88,11.72c-15.77,10.63-25,21.62-27.39,32.69-3.78,17.4,11,28.52,25.23,39.26,7.4,5.58,15.79,11.9,23.31,19.68,34.88,36.08,36.63,87.83,37.79,122.08,0.13,3.75.28,7.5,0.44,11.25,1.59,37.92,3,70.67-25.75,89.75-21.09,14-54.45,13.7-93.93-.88-35.51-13.11-71.56-36.41-94.08-60.81-25.23-27.33-36.12-45.9-39.73-58.47a14.91,14.91,0,0,0-1.06-4.67C115,329.09,115.59,325.11,116.84,322.11Z"/>
</svg>
