<svg xmlns="http://www.w3.org/2000/svg" viewBox="0 0 512 512">
  <title>circus-db-icons</title>
  <g>
    <path d="M422.76,45.84a10,10,0,0,0-13.93,2.43c-0.48.68-48.22,68.57-75.78,104.66a10,10,0,0,0,1.27,13.52c10.56,9.46,16.21,24.75,15.9,43.06C349.79,234.86,337.9,261,319.92,276c-16.24,13.58-66.22,12.9-90.28,2.49-18.73-8.1-38.59-32.38-47.22-57.72-6.6-19.37-6.13-37.46,1.33-50.92,28.53-51.47,78-53.06,98.12-42.48a10,10,0,0,0,12.33-2.45c30-36,63-84.93,64.42-87A10,10,0,1,0,342,26.75c-0.32.47-30.37,45-58.45,79.6-15.77-5.68-35.35-5.77-54,0C211.14,112,185.2,126,166.25,160.15,156,178.61,155,202.43,163.48,227.21c10.62,31.19,34,59.17,58.22,69.63,13.32,5.76,33.81,9.44,54.23,9.44,22.09,0,44.1-4.31,56.82-14.94,22.58-18.89,36.94-50.11,37.47-81.49,0.35-20.46-5.32-38.42-16.12-51.58,28.18-37.46,70.64-97.85,71.1-98.5A10,10,0,0,0,422.76,45.84Z"/>
    <path d="M287.36,323.27c-7.45-2.2-16-2.35-25.87-2.54-19.74-.36-44.3-0.81-67.23-19.37-16.06-13-39.56-50-47.65-66.17-3.57-7.13-10.75-10.54-18.29-8.69-16.19,4-34.56,34.25-34,67.34,0.44,25.27,9.82,49.29,16.66,66.83,3.13,8,6.67,17.08,6.67,20.33,0,37.42-2,109-2,109.72a10,10,0,1,0,20,.55c0-.72,2-72.57,2-110.28,0-7-3.37-15.65-8-27.6-6.65-17-14.92-38.22-15.3-59.91-0.39-22.69,10.14-40.24,16.22-45.82,9.84,18.47,32.94,54.53,51.13,69.24,28.27,22.88,57.85,23.42,79.44,23.82,19.2,0.35,24.63,1.27,26.26,7,2.13,7.5-7,19.44-24.45,31.93a236.91,236.91,0,0,1-33.46,19.58,10,10,0,0,0-5.78,8.4l-6,88.67A10,10,0,0,0,227,507l0.68,0a10,10,0,0,0,10-9.33l5.61-82.91a252.49,252.49,0,0,0,31.1-18.68c26.24-18.74,37.09-36.85,32.26-53.83C303.87,332.62,297.39,326.22,287.36,323.27Z"/>
  </g>
</svg>
