<svg xmlns="http://www.w3.org/2000/svg" viewBox="0 0 512 512">
  <title>circus-db-icons</title>
  <path d="M398.35,107.4C368.62,55.55,331.93,27,295.05,27c-28.42,0-58.44.85-85.65,11-32.52,12.14-54.05,35-65.82,69.79C126.6,158,160,219.1,171.87,238.51a46.39,46.39,0,0,1-17.05,14.1c-32.14,15-60.75,43.52-70.8,58.93-10.53,16.14-9.28,40.66-8.07,64.37,0.16,3.18.32,6.36,0.46,9.51,2,46.28-1.29,104.43-1.33,105A10,10,0,0,0,84.49,501l0.58,0a10,10,0,0,0,10-9.43c0-.59,3.34-59.71,1.34-107-0.14-3.21-.3-6.45-0.46-9.68-1-20.52-2.12-41.74,4.85-52.43,6.61-10.13,31.53-37.23,62.53-51.74,11.8-5.52,20.68-14.23,27.37-24.23a10,10,0,0,0,3-4.88c17-29.27,17.35-66.41,17.35-68.59a10,10,0,0,0-10-10h0a10,10,0,0,0-10,10c0,0.38-.21,23-8.11,44.64-12.67-23.3-32.38-68-20.42-103.41,21-62.06,74.66-67.2,132.53-67.2,29,0,60.31,25.64,86,70.35,24.23,42.25,39.57,95.42,40.05,138.76,0.64,58.2-7,107.92-22.12,143.79-13.21,31.36-31.62,50.25-51.82,53.2-48.8,7.12-73.35,9.45-98-15.18-36.32-36.27-38.87-58.43-34.61-70.63,6.57-18.81,11.12-32.36,13.53-40.28,0.63-2.07,1.17-3.86,1.54-5.47,30.64,4.75,57.61,35.63,57.91,36a10,10,0,0,0,15.18-13c-1.6-1.87-39.75-45.7-84.09-43.48C176.21,303.13,150,323.9,130,343.93c-6.47,6.47-14.44,21.81-18.66,83.47-2.25,32.88-2.27,64-2.27,64.27a10,10,0,0,0,20,0c0-.3,0-30.79,2.23-63,4.13-60.27,12-69.72,12.84-70.6,16.26-16.26,35.34-31.62,64.49-36-1.74,5.64-5.38,16.8-13,38.63-8.94,25.62,4.3,56.36,39.36,91.37,20,20,40.7,26,64.59,26,15.26,0,31.84-2.42,50.43-5.13,27.8-4.05,51.09-26.61,67.36-65.23,16.17-38.37,24.36-90.86,23.69-151.78C440.54,209.33,424.18,152.43,398.35,107.4ZM210.8,321.77l0,0.08,0-.08h0Zm0.6,1.23a10.09,10.09,0,0,0,.65,1A10.1,10.1,0,0,1,211.4,323Zm-0.55-1.1a9.93,9.93,0,0,0,.51,1A9.84,9.84,0,0,1,210.85,321.9Z"/>
</svg>
