<svg xmlns="http://www.w3.org/2000/svg" viewBox="0 0 512 512">
  <title>circus-db-icons</title>
  <path d="M478.11,126.1c-17.28-12.79-50.28-23.34-88.28-28.25A364.87,364.87,0,0,0,336,94.93V39.55a10,10,0,0,0-20,0V95.93a292.64,292.64,0,0,0-39.5,5.76V39.55a10,10,0,0,0-20,0V99.38c-52-9-101.16,3.45-149.77,37.87C76.6,158.6,53.61,188.44,38.41,225.93,25.47,257.84,18.72,294.58,18.9,332.16c0.29,63,20,118.92,48.93,139,10.8,7.5,23.17,11.26,37.29,11.26,14.82,0,31.56-4.13,50.45-12.41,26.61-11.65,55-30.26,82.49-49.59,1.14,11.48,4.11,25,11.49,33.08A22.15,22.15,0,0,0,265.31,461c0.74,0,1.48,0,2.22,0,22.9,0,47-12.56,68-35.57C354.67,404.59,368,378,370.28,356c3.37-32-18.41-80.61-27.4-99,46.51-12.57,83.63-32.41,126.84-66.55,0.59-.47,1.25-1,1.94-1.49,7.89-6,22.57-17.09,21.4-39.78C492.62,140.89,487.59,133.12,478.11,126.1ZM350.39,354C346.49,391,304.3,441,267.46,441L266,441a2.23,2.23,0,0,1-1.75-1c-4.9-5.32-6.85-21.67-6.86-33.53,28.35-23,31.12-56.4,33.56-86,1.92-23.28,3.59-43.53,16.5-55.53,5.29-1,10.44-2,15.47-3.09C332.74,281.06,353.15,327.76,350.39,354ZM459.58,173c-0.81.61-1.57,1.19-2.26,1.74-51.47,40.67-93.76,59.91-156,71a10,10,0,0,0-4.53,2.06c-21.26,17.14-23.52,44.54-25.7,71-2.41,29.26-4.69,56.9-29.34,74.53-65.14,46.59-126.58,86.36-162.47,61.43C56.11,438.71,39.15,387.11,38.9,332.07c-0.17-36.64,7.24-127.38,79.42-178.49,34.89-24.71,70-37,106.25-37a174.65,174.65,0,0,1,44.88,6,10,10,0,0,0,5,0c33.28-8.32,73.35-10.11,112.84-5,34.25,4.42,64.5,13.8,78.94,24.49,4.95,3.66,6.79,6.62,6.86,8C473.65,161.44,467.58,167,459.58,173Z"/>
</svg>
