<svg xmlns="http://www.w3.org/2000/svg" viewBox="0 0 512 512">
  <defs>
    <style>
      .a {
        fill: none;
        stroke: #000;
        stroke-linecap: round;
        stroke-linejoin: round;
        stroke-width: 30px;
      }
    </style>
  </defs>
  <title>circus-db-icons</title>
  <line class="a" x1="326.02" y1="39.55" x2="326.02" y2="100"/>
  <path d="M481.08,122.08C446.5,96.49,356.54,80.92,281.52,95.53v-56a15,15,0,1,0-30,0v54c-51.18-7.38-99.71,5.69-147.66,39.65-30.95,21.92-54.53,52.49-70.09,90.88C20.59,256.57,13.72,294,13.9,332.18,14,363,18.7,392.69,27.38,418c9.16,26.75,22.16,46.55,37.59,57.27,11.69,8.12,25,12.17,40.08,12.17,15.52,0,32.95-4.28,52.51-12.85,24.84-10.88,51-27.63,76.67-45.41,1.77,10.14,5.18,20.69,11.63,27.7A27,27,0,0,0,265.13,466q1.2,0,2.4,0c24.32,0,49.69-13.13,71.72-37.2,20.09-21.95,33.55-49,36-72.27,3.23-30.74-14.94-74.48-25.25-96.35,44.5-12.81,80.82-32.66,122.82-65.85,0.57-.45,1.19-0.92,1.86-1.42,8-6.06,24.68-18.69,23.37-44C497.53,139.07,491.83,130,481.08,122.08ZM345.42,353.43c-1.75,16.64-12.86,38.29-28.29,55.15-16,17.52-34,27.46-49.63,27.45h0c-2.66-3.7-4.77-15.57-5-27.21,28.28-24.36,31.18-59.42,33.53-88,1.78-21.57,3.33-40.4,13.93-51.3,3.5-.65,6.93-1.33,10.32-2C330.25,287.95,347.9,329.78,345.42,353.43ZM456.56,169c-0.84.64-1.63,1.23-2.35,1.8-50.75,40.11-92.44,59.07-153.81,70a15,15,0,0,0-6.79,3.09c-22.93,18.48-25.27,47-27.54,74.51-2.31,28.08-4.5,54.59-27.27,70.88-31.08,22.23-63.89,45-93.26,57.88-28.28,12.38-49,13.53-63.45,3.52-18.77-13-37.92-58-38.2-118.62-0.16-35.86,7-124.63,77.31-174.39,34-24.08,68.15-36,103.44-36a169.31,169.31,0,0,1,43.51,5.86,15,15,0,0,0,7.48.05c37.56-9.4,84-10.26,127.27-2.38,44.47,8.1,63.06,21.45,65.19,25.75C468.38,159.44,463.91,163.47,456.56,169Z"/>
</svg>
