<svg xmlns="http://www.w3.org/2000/svg" viewBox="0 0 512 512">
  <title>circus-db-icons</title>
  <path d="M387.17,102C366.88,88.57,347,80.5,339.3,78.57c-6.4-1.6-13.25.12-19.29,4.83-9.89,7.73-17.35,23.23-17.35,36.07,0,2.42-.34,6.76-0.76,12.26-0.78,10-1.84,23.72-2.06,40.15l-4.35-3L294,40.79a10,10,0,0,0-10-9.89h-0.11A10,10,0,0,0,274.05,41l1.5,133.21a10,10,0,0,0,4.28,8.09L303.77,199a10,10,0,0,0,1,.72l51.52,35.89a10,10,0,1,0,11.43-16.41l-47.89-33.36a525.23,525.23,0,0,1,2-52.55c0.48-6.16.82-10.61,0.82-13.81,0-9.65,8.5-21.41,11.79-21.5,8.68,2.17,70.27,26.95,88,72.37,51.72,132.78,56.35,190.47,51.12,215.5-2.3,11-4.3,23.58-6.24,35.7-2.45,15.39-5.73,35.94-8.57,43a27.48,27.48,0,0,1-9.46-.9c-9.55-9.44-27.35-26-44-36.08-13.1-7.92-20.41-7.69-26.12-6.57a37.2,37.2,0,0,1-2.45-2.89c-4.77-6.12-4.45-8.37-2.67-20.87a258.7,258.7,0,0,0,3-40.09c0-26.41-13.93-42.91-27.41-58.86-9.66-11.44-18.91-22.41-24.17-37.39l22.78,15.88a10,10,0,0,0,11.44-16.41l-88-61.31A10,10,0,0,0,259,200.16l-83.72,83.67A10,10,0,0,0,189.4,298l9.68-9.67c-1,3.33-2,6.17-3,8.9-4,11.21-7.08,20.06-7.08,46.59A233.88,233.88,0,0,0,192.39,384c2,12.44,2.27,14.35-2.89,20.31-5.61,6.47-20.7,10.18-35.29,13.77-13.92,3.42-28.32,7-40.6,13.63-18.37,10-38.12,26.5-48.74,35.91-6.63-8.48-18.72-26.23-29.58-54.41C18.14,368.75,63.09,242.63,92.34,175.13c19.75-45.55,88.88-70.47,98.63-72.66,1.6-.36,5.17.74,9.23,4,6.45,5.17,10.31,12.34,10.31,16.3,0,1.61,0,3.74,0,6.35,0.09,12.7.25,36.15-.82,65.37l-45.41,49.12A10,10,0,1,0,179,257.17l71.88-77.75a10,10,0,0,0,2.65-7l-3-131.73a10,10,0,1,0-20,.46l2.91,127.68-3.1,3.35c0.36-18.85.26-33.88,0.19-43.2,0-2.55,0-4.64,0-6.21,0-13-9.59-25.33-17.81-31.91-8.65-6.93-17.92-9.73-26.11-7.89-7.18,1.61-29.51,9.41-52.77,23.24-20.53,12.21-47.58,32.7-59.84,61C67.66,181.79,45.74,233.76,29.57,289,11.35,351.2,7,395.44,16.63,420.45c11.57,30,24.46,49.47,33.25,60.5A19.12,19.12,0,0,0,63.14,488c0.53,0,1.06.07,1.58,0.07a19.11,19.11,0,0,0,12.66-4.82c9.77-8.71,28.71-24.7,45.77-34,10-5.44,23.13-8.67,35.82-11.78,18.44-4.53,35.86-8.82,45.63-20.09,11.26-13,9.7-22.87,7.53-36.54A216.15,216.15,0,0,1,209,343.8c0-23.1,2.36-29.8,5.94-39.94,3-8.65,6.83-19.37,10.35-41.76l41.9-41.88,34.32,23.92c0.15,1.25.3,2.52,0.46,3.76,3.89,29.49,19,47.43,32.41,63.26,12.68,15,22.69,26.87,22.69,46a241,241,0,0,1-2.82,37.27c-1.91,13.44-3.3,23.15,6.69,36,7.37,9.46,13,12.16,21.63,10.32,1.91-.41,4.29-0.92,12.37,4,15.25,9.23,32.18,25.16,40.93,33.85,4.9,4.85,14.39,6.09,20.79,6.09,1.3,0,2.47-.05,3.45-0.13,6.58-.55,11.29-2.76,14-6.56,5.45-7.62,8.32-24.33,12.92-53.21,1.9-11.89,3.86-24.19,6.06-34.77,8.41-40.25-9.11-116.57-52.06-226.84C430,134.81,405.67,114.26,387.17,102Z"/>
</svg>
