<svg xmlns="http://www.w3.org/2000/svg" viewBox="0 0 512 512">
  <title>circus-db-icons</title>
  <path d="M373.74,69.75a13.32,13.32,0,0,0-18.81-1L51.9,340.33a13.32,13.32,0,0,0-1,18.81l102,113.76a13.33,13.33,0,0,0,9.19,4.41l0.73,0a13.33,13.33,0,0,0,8.89-3.4l303-271.61a13.32,13.32,0,0,0,1-18.81Zm-210,375.45L79.61,351.28l29.85-26.76L154.71,375a13.45,13.45,0,1,0,20-18L129.5,306.56l49.09-44L223.83,313a13.45,13.45,0,0,0,20-18L198.62,244.6l49.09-44L293,251.09a13.45,13.45,0,0,0,20-18l-45.25-50.48,49.09-44,45.25,50.48a13.45,13.45,0,0,0,20-18l-45.25-50.48,25.92-23.23L447,191.37Z"/>
</svg>
