<svg xmlns="http://www.w3.org/2000/svg" viewBox="0 0 512 512">
  <title>circus-db-icons</title>
  <path d="M490.38,212.3C486,204.15,476.1,198,459.1,192.8c-13.84-4.19-32.05-7.54-54.12-9.94-43.93-4.79-98.24-5.41-152.92-1.75A630.06,630.06,0,0,0,134.88,200c4.56-47.16-15.74-109.67-40.25-145.86A10,10,0,1,0,78.07,65.35c24.1,35.58,43.43,99.14,35.81,140.72C77.33,217.63,49.17,232,36.42,246.95,18.9,267.56,14,296.58,22.35,330.88,33.23,375.72,66,422,95.33,434.1a74,74,0,0,0,28,5.66A64,64,0,0,0,140,437.61a55.09,55.09,0,0,0,35.66-29.14c9.8-19.39,7.83-43.9,2.74-67,53.39-23.94,99.24-27.78,139.74-31.17,29.28-2.45,56.93-4.76,81.86-14.65,5.89-2.34,13.85-4.69,22.29-7.18,27.52-8.12,61.77-18.24,71.48-41.38C498.18,236.51,497,224.82,490.38,212.3Zm-15.08,27c-6,14.39-36.48,23.37-58.7,29.94-8.88,2.62-17.27,5.1-24,7.77-22.17,8.79-47.19,10.89-76.15,13.31-41.31,3.46-88,7.36-143.09,31.44-1.47-5.19-3-10.2-4.4-14.94q-0.94-3.12-1.81-6A10,10,0,0,0,148,306.49q0.87,3,1.83,6.12c7.71,25.62,19.36,64.34,8,86.84-11.13,22-36.23,23.81-54.85,16.15C82.21,407.08,52,368.25,41.79,326.16c-4.71-19.4-6.81-46.63,9.88-66.25,9.57-11.26,35.35-24.33,69-35,38.73-12.26,85.88-20.74,132.77-23.87,22.69-1.52,45.68-2.27,67.88-2.27a770.77,770.77,0,0,1,81.54,3.95c50.24,5.47,67.7,14.79,69.92,19C478.31,232.18,476,237.56,475.3,239.33Z"/>
</svg>
