<svg xmlns="http://www.w3.org/2000/svg" viewBox="0 0 512 512">
  <title>circus-db-icons</title>
  <path d="M494.8,214c-5.42-10.18-20.56-24.57-89.28-32.06-44.21-4.82-98.83-5.44-153.8-1.77a623.94,623.94,0,0,0-111.89,17.38c0.25-25.22-6.5-53-13.17-74.23C116.51,91.06,101.5,58.21,87.5,37.54A15,15,0,1,0,62.67,54.37c23.53,34.74,51.47,110.33,46.64,152C86.22,213.88,49,228.4,32.62,247.71,14,269.59,8.78,300.14,17.49,336.05c5.42,22.35,16.2,45.66,30.33,65.64,14.34,20.27,30.54,34.84,45.6,41a79,79,0,0,0,29.93,6,68.9,68.9,0,0,0,17.92-2.32,60.76,60.76,0,0,0,38.82-31.71c9.9-19.58,8.64-43.54,4-66.36,51.06-22.15,95.27-25.84,134.43-29.12,29.66-2.48,57.67-4.82,83.28-15,5.68-2.25,13.54-4.57,21.86-7,28.53-8.42,64-18.91,74.67-44.24C503.4,241,502.2,227.86,494.8,214Zm-24.1,27.44c-5.12,12.2-35.44,21.15-55.51,27.08-9,2.65-17.48,5.16-24.43,7.92-21.48,8.52-46.16,10.58-74.72,13-40.4,3.38-85.87,7.18-139.44,29.6-1-3.28-1.92-6.48-2.85-9.56q-0.94-3.11-1.8-6a15,15,0,0,0-28.76,8.53q0.88,3,1.84,6.14c7.48,24.86,18.78,62.42,8.3,83.15C143.58,420.48,121.95,422,104.84,415c-19.57-8-48.62-46.53-58.19-86-4.43-18.26-6.5-43.82,8.82-61.83,6.94-8.16,28.1-21.23,66.66-33.44,38.36-12.14,85.09-20.54,131.59-23.65,22.9-1.53,45.78-2.29,67.81-2.29,27.53,0,53.74,1.19,77,3.56,57.67,5.87,68.91,16,69.92,17C472.74,236.51,471.2,240.18,470.69,241.39Z"/>
</svg>
