<svg xmlns="http://www.w3.org/2000/svg" viewBox="0 0 512 512">
  <title>circus-db-icons</title>
  <path d="M493.54,470.22L383.66,360.35a199.42,199.42,0,0,0,58.08-140.8c0-110.32-89.75-200.08-200.07-200.08S41.59,109.23,41.59,219.55s89.76,200.08,200.08,200.08A198.92,198.92,0,0,0,354,385L466.39,497.37A19.2,19.2,0,0,0,493.54,470.22ZM135.05,349.39c1,0.06,1.91.15,2.89,0.15H300a46.38,46.38,0,0,0,46.25-46.25V250.36c-26.26,10.19-60.23,16.07-95.66,18a32.36,32.36,0,0,1-63.35-.63c-30-2.26-57.46-7.29-79.51-14.79a170.1,170.1,0,0,1-16-6.31V295.3a167,167,0,0,1-18.11-75.75c0-92.68,75.4-168.08,168.08-168.08s168.08,75.4,168.08,168.08-75.4,168.08-168.07,168.08A167.3,167.3,0,0,1,135.05,349.39ZM311.82,154v-3a52.08,52.08,0,0,0-52-52H181.72a52.08,52.08,0,0,0-52,52v2.18a46.39,46.39,0,0,0-38,45.46V226c21.18,11.88,55.59,20.35,97.23,23.39a32.34,32.34,0,0,1,60.27.56c40-2.13,74-9.19,97-19.48V198.61A46.39,46.39,0,0,0,311.82,154ZM291,152.36H150.5V151a31.25,31.25,0,0,1,31.22-31.22H259.8A31.25,31.25,0,0,1,291,151v1.4Z"/>
</svg>
