<svg id="1b820bc7-3ecb-428d-a64c-420848a12772" data-name="icons" xmlns="http://www.w3.org/2000/svg" viewBox="0 0 512 512"><title>circus-db-icons</title><path id="c2700740-87c5-4118-917f-9906eeb11458" data-name="case" d="M307.76,322.61c54.48-3,106.71-12.08,147.09-27.74v81.39a71.32,71.32,0,0,1-71.11,71.11H134.58a71.32,71.32,0,0,1-71.11-71.11V289.19a261.56,261.56,0,0,0,24.62,9.71c33.9,11.53,76.13,19.26,122.26,22.74A49.76,49.76,0,0,0,307.76,322.61ZM454.85,215.29v49c-35.41,15.82-87.68,26.67-149.2,29.95a49.73,49.73,0,0,0-92.68-.86c-64-4.67-116.95-17.7-149.51-36V215.29a71.34,71.34,0,0,1,58.42-69.9V142a80.09,80.09,0,0,1,80-80H321.94a80.09,80.09,0,0,1,80,80v4.62A71.33,71.33,0,0,1,454.85,215.29ZM153.88,142v2.15H369.94V142a48.05,48.05,0,0,0-48-48H201.88A48.05,48.05,0,0,0,153.88,142Z"/></svg>