<svg id="01697c44-28e9-4eaa-b2c6-add126c909ef" data-name="icons" xmlns="http://www.w3.org/2000/svg" viewBox="0 0 512 512"><title>circus-db-icons</title><path d="M274.46,137.73c-4.61-.07-9.22,0-13.82,0-1.48-4.38-2.81-8.8-4.24-13.19-1.57,4.35-2.81,8.81-4.29,13.18-4.63,0-9.27,0-13.9,0,3.83,2.61,7.64,5.24,11.48,7.84-1.37,4.43-2.82,8.83-4.19,13.25L256.37,151c3.79,2.54,7.47,5.25,11.34,7.66-1.36-4.36-2.78-8.7-4.14-13.06C267.22,143,270.81,140.31,274.46,137.73ZM265.71,156c-3.15-2.08-6.23-4.25-9.36-6.37-2.94,2.08-5.79,4.27-8.78,6.27,1-3.39,2.2-6.74,3.2-10.13,0.41-.73-0.54-1.06-0.95-1.43-2.69-1.83-5.4-3.64-8.06-5.52,3.72,0,7.45,0,11.17,0,1.11-3.51,2.2-7,3.36-10.53,1.38,3.44,2.31,7,3.47,10.54,3.76,0,7.51,0,11.27,0-2.9,2.11-5.78,4.23-8.72,6.26C263.32,148.73,264.63,152.32,265.71,156Z"/><path d="M243.16,161.69a14.2,14.2,0,0,1,2.15-1.58C222,214.93,198.38,269.64,174.94,324.42c-7.91,18.39-15.73,36.81-23.7,55.18a32.11,32.11,0,0,0-3.65-12.75c-3.7-7.23-9-13.5-14.73-19.19-10.67-10.47-23.07-19-36.08-26.32a204.43,204.43,0,0,0-53-20.7,116,116,0,0,0-19.53-2.88c20.34-6.45,39.93-15.06,59.09-24.4,21.58-10.59,42.5-22.47,63-35,18-11.13,35.55-23,52.35-35.84,15.94-12.31,31.52-25.34,44.54-40.78h0Z"/><path d="M268,160.09a14.8,14.8,0,0,1,2.07,1.69C281.09,175,294.14,186.29,307.51,197a611.19,611.19,0,0,0,53.61,37.86c18.52,11.68,37.48,22.67,57,32.7,22.88,11.71,46.36,22.43,70.9,30.2-8.53.28-16.95,2.09-25.2,4.17a210,210,0,0,0-53.87,23.19,167,167,0,0,0-26.12,19.28,89.85,89.85,0,0,0-16.16,18.91c-3,4.92-5.29,10.43-5.58,16.24q-41-95.35-81.85-190.79c-4-9.58-8.29-19.09-12.22-28.72h0Z"/><path d="M310.41,288.88C292.51,247,275,205,256.66,163.35c-11.36,25.58-22.16,51.42-33.19,77.15Q194.2,309.2,164.9,377.9a32.74,32.74,0,0,0-2.18,5.52c1.67-1.11,2.46-3,3.9-4.38,7.42-7.56,16.55-13.24,26.17-17.58,20.92-9.3,44.05-12.82,66.83-12.49,22.25,0.49,44.78,4.6,64.84,14.53,8.29,4.18,16.14,9.48,22.45,16.35a27.35,27.35,0,0,0,3.77,3.9C337.4,352.07,323.81,320.51,310.41,288.88Zm13.8,73.28c-20-9.74-42.41-13.8-64.55-14.29C237,347.55,214,351,193.12,360.12A88.53,88.53,0,0,0,166,378q29.18-68.33,58.28-136.68c10.76-25.34,21.67-50.64,32.35-76q28.27,66.4,56.5,132.82C324.53,325,336,351.77,347.32,378.63A81.28,81.28,0,0,0,324.21,362.16Z"/></svg>