<svg xmlns="http://www.w3.org/2000/svg" viewBox="0 0 512 512">
  <title>circus-db-icons</title>
  <path d="M278.4,116.31c-5-.07-9.91,0-14.86,0-1.59-4.7-3-9.46-4.56-14.18-1.69,4.67-3,9.46-4.61,14.17-5,0-10,0-14.93,0,4.12,2.8,8.21,5.63,12.33,8.42-1.48,4.76-3,9.49-4.5,14.24L259,130.53c4.07,2.72,8,5.64,12.19,8.23-1.47-4.69-3-9.35-4.45-14C270.62,121.94,274.48,119.09,278.4,116.31ZM269,135.93c-3.39-2.23-6.7-4.57-10.06-6.84-3.16,2.23-6.22,4.59-9.44,6.73,1.12-3.64,2.36-7.24,3.44-10.89,0.44-.79-0.58-1.14-1-1.54-2.89-2-5.8-3.91-8.66-5.93,4,0,8,0,12,0,1.19-3.78,2.37-7.55,3.61-11.32,1.48,3.69,2.48,7.55,3.73,11.32,4,0,8.08,0,12.11,0-3.12,2.26-6.21,4.55-9.37,6.73C266.44,128.14,267.84,132,269,135.93Z"/>
  <path d="M244.78,142.07a15.26,15.26,0,0,1,2.31-1.7c-25.08,58.91-50.43,117.7-75.62,176.56-8.5,19.76-16.91,39.56-25.47,59.29a34.5,34.5,0,0,0-3.92-13.7c-4-7.77-9.67-14.51-15.83-20.63-11.46-11.26-24.79-20.46-38.77-28.28a219.68,219.68,0,0,0-57-22.25,124.6,124.6,0,0,0-21-3.1C31.35,281.34,52.4,272.09,73,262c23.18-11.39,45.67-24.15,67.67-37.65,19.33-12,38.21-24.68,56.26-38.51,17.13-13.23,33.87-27.23,47.86-43.82h0Z"/>
  <path d="M271.42,140.35a15.9,15.9,0,0,1,2.22,1.81c11.89,14.16,25.92,26.33,40.29,37.9a656.78,656.78,0,0,0,57.61,40.68c19.9,12.55,40.28,24.36,61.2,35.14,24.58,12.58,49.82,24.1,76.19,32.45-9.17.3-18.21,2.25-27.08,4.49a225.65,225.65,0,0,0-57.89,24.92,179.46,179.46,0,0,0-28.07,20.72c-6.56,6-12.7,12.68-17.37,20.33-3.22,5.29-5.69,11.2-6,17.45q-44.1-102.46-88-205c-4.35-10.3-8.91-20.51-13.14-30.86h0Z"/>
  <path d="M317,278.74c-19.24-45-38-90.13-57.76-134.89-12.21,27.49-23.81,55.25-35.66,82.9q-31.46,73.83-62.94,147.65a35.18,35.18,0,0,0-2.35,5.94c1.79-1.2,2.64-3.26,4.19-4.71,8-8.13,17.79-14.23,28.12-18.89,22.48-10,47.34-13.77,71.82-13.42,23.91,0.53,48.12,4.95,69.68,15.62,8.91,4.49,17.35,10.18,24.12,17.56a29.39,29.39,0,0,0,4.05,4.19C346,346.65,331.44,312.73,317,278.74Zm14.83,78.75c-21.52-10.46-45.58-14.83-69.37-15.36-24.36-.35-49.08,3.38-71.51,13.16-10.7,4.7-20.81,11-29.11,19.25q31.36-73.42,62.62-146.87c11.57-27.24,23.29-54.42,34.76-81.69Q289.66,217.34,320,288.71c12.21,28.83,24.59,57.6,36.71,86.48A87.35,87.35,0,0,0,331.87,357.48Z"/>
</svg>
