<svg xmlns="http://www.w3.org/2000/svg" viewBox="0 0 512 512">
  <title>circus-db-icons</title>
  <path d="M384,316.17V270.11H198.05V223.87H384v-46L503.78,247Zm-24.08,67V340.76H313.66l0,42c-1.63,5.41-23.07,19.64-61.7,19.64H126.11a61.73,61.73,0,0,1-61.66-61.66V160.92a61.73,61.73,0,0,1,61.66-61.66H252c38.63,0,60.07,14.23,61.66,19.27v42.39h46.24V118.53C359.91,81.19,313.52,53,252,53H126.11a108,108,0,0,0-107.9,107.9V340.76a108,108,0,0,0,107.9,107.9H252C313.52,448.67,359.91,420.5,359.91,383.15Z"/>
</svg>
