<svg id="4c782598-ee44-4f4b-b065-84c34f8432c6" data-name="icons" xmlns="http://www.w3.org/2000/svg" viewBox="0 0 512 512"><title>circus-db-icons</title><path d="M490.75,470.22L380.87,360.35A199.42,199.42,0,0,0,439,219.55C439,109.23,349.2,19.47,238.88,19.47S38.8,109.23,38.8,219.55s89.75,200.08,200.08,200.08A198.93,198.93,0,0,0,351.23,385L463.59,497.37A19.2,19.2,0,1,0,490.75,470.22ZM70.8,219.55a167,167,0,0,1,15.7-70.82l18.23,172A167.19,167.19,0,0,1,70.8,219.55Zm35.37-80.3L254.74,123.5,274,305.23,125.44,321Zm17.48,202.5a18.8,18.8,0,0,0,1.91-.1l23-2.44,1,9.8A18.54,18.54,0,0,0,168,365.56a18.77,18.77,0,0,0,2-.11l152.65-16.19a18.53,18.53,0,0,0,16.45-20.36L319.37,143.1A18.53,18.53,0,0,0,299,126.64L286.43,128l2.17,20.45,10.53-1.12L318.4,329,169.84,344.79,169,337l109.2-11.58a18.53,18.53,0,0,0,16.45-20.36L275,119.28a18.54,18.54,0,0,0-20.36-16.45L104.47,118.75a167.92,167.92,0,0,1,134.4-67.28c92.68,0,168.08,75.4,168.08,168.08s-75.4,168.08-168.08,168.08A167.42,167.42,0,0,1,123.65,341.75Z"/></svg>