<svg id="fa641a86-1e0c-425c-aa8c-2a56a60cf167" data-name="icons" xmlns="http://www.w3.org/2000/svg" viewBox="0 0 512 512"><title>circus-db-icons</title><path id="123157bb-6dd7-476b-b921-04d0fe1db891" data-name="series" d="M446.17,410.16L415.52,121a28.83,28.83,0,0,0-31.68-25.61L364.26,97.5l3.38,31.82L384,127.58l30,282.78L182.85,434.87l-1.28-12.06,169.92-18a28.83,28.83,0,0,0,25.6-31.68L346.43,84a28.85,28.85,0,0,0-31.68-25.6L77.23,83.56a28.83,28.83,0,0,0-25.6,31.68L82.29,404.38a28.85,28.85,0,0,0,28.59,25.76A29.21,29.21,0,0,0,114,430l35.79-3.79,1.62,15.24A28.85,28.85,0,0,0,180,467.19,29.21,29.21,0,0,0,183,467l237.53-25.18A28.83,28.83,0,0,0,446.17,410.16Zm-332.4-12.34L83.79,115,315,90.53l30,282.78Z"/></svg>