<?xml version="1.0" encoding="utf-8"?>
<!-- Generator: Adobe Illustrator 19.1.0, SVG Export Plug-In . SVG Version: 6.00 Build 0)  -->
<svg version="1.1" id="icons" xmlns="http://www.w3.org/2000/svg" xmlns:xlink="http://www.w3.org/1999/xlink" x="0px" y="0px"
	 viewBox="0 0 80 80" style="enable-background:new 0 0 80 80;" xml:space="preserve">
<path id="logout" d="M57.8,50.6v-6H33.7v-6h24.1v-6l15.5,9L57.8,50.6z M54.7,59.3v-5.5h-6l0,5.5c-0.2,0.7-3,2.5-8,2.5H24.3
	c-4.4,0-8-3.6-8-8V30.5c0-4.4,3.6-8,8-8h16.3c5,0,7.8,1.8,8,2.5v5.5h6V25c0-4.8-6-8.5-14-8.5H24.3c-7.7,0-14,6.3-14,14v23.3
	c0,7.7,6.3,14,14,14h16.3C48.6,67.8,54.7,64.2,54.7,59.3z"/>
</svg>
