<?xml version="1.0" encoding="utf-8"?>
<!-- Generator: Adobe Illustrator 19.1.0, SVG Export Plug-In . SVG Version: 6.00 Build 0)  -->
<svg version="1.1" id="icons" xmlns="http://www.w3.org/2000/svg" xmlns:xlink="http://www.w3.org/1999/xlink" x="0px" y="0px"
	 viewBox="0 0 80 80" style="enable-background:new 0 0 80 80;" xml:space="preserve">
<path d="M72.7,63.7l-5.2-48.8c-0.1-1.3-0.8-2.4-1.8-3.3c-1-0.8-2.3-1.2-3.6-1.1L58.9,11l0.6,5.4l2.8-0.3l5.1,47.7l-39,4.1l-0.2-2
	l28.7-3C58,62.7,59.1,62,60,61c0.8-1,1.2-2.3,1.1-3.6L55.8,8.7c-0.3-2.7-2.7-4.6-5.3-4.3L10.5,8.6C9.2,8.8,8,9.4,7.2,10.4
	c-0.8,1-1.2,2.3-1.1,3.6l5.2,48.8c0.1,1.3,0.8,2.4,1.8,3.3c0.9,0.7,1.9,1.1,3,1.1c0.2,0,0.3,0,0.5,0l6-0.6L23,69
	c0.1,1.3,0.8,2.4,1.8,3.3c0.9,0.7,1.9,1.1,3,1.1c0.2,0,0.3,0,0.5,0L68.3,69c1.3-0.1,2.4-0.8,3.3-1.8C72.4,66.2,72.8,65,72.7,63.7z
	 M16.6,61.6l-5.1-47.7l39-4.1l5.1,47.7l-14.8,1.6V45.7h8.5L35.8,19.3L22.2,45.7h8.5v14.4L16.6,61.6z"/>
</svg>
