<?xml version="1.0" encoding="utf-8"?>
<!-- Generator: Adobe Illustrator 19.1.0, SVG Export Plug-In . SVG Version: 6.00 Build 0)  -->
<svg version="1.1" id="icons" xmlns="http://www.w3.org/2000/svg" xmlns:xlink="http://www.w3.org/1999/xlink" x="0px" y="0px"
	 viewBox="0 0 80 80" style="enable-background:new 0 0 80 80;" xml:space="preserve">
<path id="case" d="M48.3,50.5c8.5-0.5,16.7-1.9,23-4.3v12.7c0,6.1-5,11.1-11.1,11.1H21.3c-6.1,0-11.1-5-11.1-11.1V45.3
	c1.2,0.5,2.4,1,3.8,1.5c5.3,1.8,11.9,3,19.1,3.6c0.7,3.6,3.9,6.3,7.6,6.3C44.5,56.6,47.6,54,48.3,50.5z M71.3,33.7v7.7
	C65.8,43.8,57.6,45.5,48,46c-1.1-2.9-3.9-5-7.3-5c-3.3,0-6.1,2-7.2,4.9c-10-0.7-18.3-2.8-23.4-5.6v-6.6c0-5.4,4-10,9.1-10.9v-0.5
	c0-6.9,5.6-12.5,12.5-12.5h18.8c6.9,0,12.5,5.6,12.5,12.5V23C67.8,24.2,71.3,28.6,71.3,33.7z M24.3,22.3v0.3H58v-0.3
	c0-4.1-3.4-7.5-7.5-7.5H31.8C27.7,14.8,24.3,18.1,24.3,22.3z"/>
</svg>
