<?xml version="1.0" encoding="utf-8"?>
<!-- Generator: Adobe Illustrator 19.1.0, SVG Export Plug-In . SVG Version: 6.00 Build 0)  -->
<svg version="1.1" id="icons" xmlns="http://www.w3.org/2000/svg" xmlns:xlink="http://www.w3.org/1999/xlink" x="0px" y="0px"
	 viewBox="0 0 80 80" style="enable-background:new 0 0 80 80;" xml:space="preserve">
<path d="M76.9,73.5L59.8,56.4c5.6-5.7,9.1-13.4,9.1-22c0-17.2-14-31.3-31.3-31.3c-17.2,0-31.3,14-31.3,31.3s14,31.3,31.3,31.3
	c6.5,0,12.5-2,17.6-5.4l17.6,17.6c0.6,0.6,1.4,0.9,2.1,0.9c0.8,0,1.5-0.3,2.1-0.9C78.1,76.6,78.1,74.7,76.9,73.5z M11.3,34.4
	c0-4,0.9-7.7,2.5-11.1l2.8,26.9C13.3,45.8,11.3,40.3,11.3,34.4z M16.8,21.8L40,19.4l3,28.4l-23.2,2.5L16.8,21.8z M19.6,53.5
	c0.1,0,0.2,0,0.3,0l3.6-0.4l0.2,1.5c0.1,0.8,0.5,1.5,1.1,1.9c0.5,0.4,1.2,0.6,1.8,0.6c0.1,0,0.2,0,0.3,0l23.9-2.5
	c0.8-0.1,1.5-0.5,1.9-1.1c0.5-0.6,0.7-1.4,0.6-2.1l-3.1-29c-0.1-0.8-0.5-1.5-1.1-1.9s-1.4-0.7-2.1-0.6l-2,0.2l0.3,3.2l1.6-0.2
	l3,28.4l-23.2,2.5l-0.1-1.2l17.1-1.8c0.8-0.1,1.5-0.5,1.9-1.1c0.5-0.6,0.7-1.4,0.6-2.1l-3.1-29C43,17.1,41.6,16,40,16.1l-23.5,2.5
	c4.8-6.4,12.4-10.5,21-10.5c14.5,0,26.3,11.8,26.3,26.3S52,60.6,37.6,60.6C30.6,60.6,24.3,57.9,19.6,53.5z"/>
</svg>
