<?xml version="1.0" encoding="utf-8"?>
<!-- Generator: Adobe Illustrator 19.1.0, SVG Export Plug-In . SVG Version: 6.00 Build 0)  -->
<svg version="1.1" id="icons" xmlns="http://www.w3.org/2000/svg" xmlns:xlink="http://www.w3.org/1999/xlink" x="0px" y="0px"
	 viewBox="0 0 80 80" style="enable-background:new 0 0 80 80;" xml:space="preserve">
<path id="series" d="M70,64.2L65.2,19c-0.1-1.2-0.7-2.3-1.6-3s-2.1-1.1-3.3-1l-3.1,0.3l0.5,5l2.6-0.3l4.7,44.2L28.8,68l-0.2-1.9
	l26.5-2.8c1.2-0.1,2.3-0.7,3-1.6c0.8-0.9,1.1-2.1,1-3.3l-4.8-45.2c-0.3-2.5-2.5-4.3-4.9-4l-37.1,3.9c-1.2,0.1-2.3,0.7-3,1.6
	c-0.8,0.9-1.1,2.1-1,3.3l4.8,45.2c0.1,1.2,0.7,2.3,1.6,3c0.8,0.7,1.8,1,2.8,1c0.2,0,0.3,0,0.5,0l5.6-0.6l0.3,2.4
	c0.1,1.2,0.7,2.3,1.6,3c0.8,0.7,1.8,1,2.8,1c0.2,0,0.3,0,0.5,0L66,69.1c1.2-0.1,2.3-0.7,3-1.6C69.7,66.5,70.1,65.3,70,64.2z
	 M18,62.2L13.3,18l36.1-3.8l4.7,44.2L18,62.2z"/>
</svg>
