<?xml version="1.0" encoding="utf-8"?>
<!-- Generator: Adobe Illustrator 19.1.0, SVG Export Plug-In . SVG Version: 6.00 Build 0)  -->
<svg version="1.1" id="icons" xmlns="http://www.w3.org/2000/svg" xmlns:xlink="http://www.w3.org/1999/xlink" x="0px" y="0px"
	 viewBox="0 0 80 80" style="enable-background:new 0 0 80 80;" xml:space="preserve">
<path id="gear" d="M68.4,36.9l-5.1-1.2c-0.5-2.1-1.2-4-2.2-5.8l3-4.8c1-1.6,0.7-4-0.6-5.4l-1-1c-1.3-1.3-3.8-1.6-5.4-0.6l-4.4,2.7
	c-1.7-1.1-3.6-2-5.6-2.6l-1.3-5.5c-0.4-1.9-2.4-3.4-4.3-3.4h-1.4c-1.9,0-3.8,1.5-4.3,3.4l-1.2,5.1c-2.1,0.5-4,1.2-5.8,2.2l-4.8-3
	c-1.6-1-4-0.7-5.4,0.6l-1,1c-1.3,1.3-1.6,3.8-0.6,5.4l2.7,4.4c-1.1,1.7-2,3.6-2.6,5.6l-5.5,1.3c-1.8,0.4-3.4,2.4-3.4,4.3V41
	c0,1.9,1.5,3.8,3.4,4.3l5.1,1.2c0.5,2.1,1.2,4,2.2,5.8l-3,4.8c-1,1.6-0.7,4,0.6,5.4l1,1c1.3,1.3,3.8,1.6,5.4,0.6l4.4-2.7
	c1.7,1.1,3.6,2,5.6,2.6l1.3,5.5c0.4,1.8,2.4,3.4,4.3,3.4h1.4c1.9,0,3.8-1.5,4.3-3.4l1.2-5.1c2.1-0.5,4-1.2,5.8-2.2l4.8,3
	c1.6,1,4,0.7,5.4-0.6l1-1c1.3-1.3,1.6-3.8,0.6-5.4l-2.7-4.4c1.1-1.7,2-3.6,2.6-5.6l5.5-1.3c1.9-0.4,3.4-2.4,3.4-4.3v-1.4
	C71.8,39.3,70.3,37.4,68.4,36.9z M40,55.4c-7.9,0-14.3-6.4-14.3-14.3S32.1,26.8,40,26.8c7.9,0,14.3,6.4,14.3,14.3S47.9,55.4,40,55.4
	z"/>
</svg>
