<svg id="6e760489-e615-4be3-885f-ba2aabad190e" data-name="icons" xmlns="http://www.w3.org/2000/svg" viewBox="0 0 512 512"><title>circus-db-icons</title><path id="73a09885-1efa-439e-a444-2a11ce579a1f" data-name="logout" d="M368.3,323.69V285.45H213.91V247H368.3V208.81l99.47,57.44Zm-20,55.63v-35.2h-38.4l0,34.9c-1.36,4.49-19.16,16.31-51.24,16.31H154.17a51.26,51.26,0,0,1-51.2-51.2V194.78a51.26,51.26,0,0,1,51.2-51.2H258.71c32.08,0,49.88,11.82,51.2,16v35.2h38.4v-35.2c0-31-38.52-54.4-89.6-54.4H154.17a89.7,89.7,0,0,0-89.6,89.6V344.12a89.7,89.7,0,0,0,89.6,89.6H258.71C309.79,433.72,348.31,410.33,348.31,379.32Z"/></svg>