<?xml version="1.0" encoding="utf-8"?>
<!-- Generator: Adobe Illustrator 19.1.0, SVG Export Plug-In . SVG Version: 6.00 Build 0)  -->
<svg version="1.1" id="icons" xmlns="http://www.w3.org/2000/svg" xmlns:xlink="http://www.w3.org/1999/xlink" x="0px" y="0px"
	 viewBox="0 0 80 80" style="enable-background:new 0 0 80 80;" xml:space="preserve">
<path id="admin" d="M65.5,69.1H16.9c-2.2,0-4-0.9-4.9-2.4c-0.9-1.6-0.8-3.5,0.3-5.5l24.3-42.1c1.1-1.9,2.8-3,4.6-3s3.5,1.1,4.6,3
	L70,61.2c1.1,1.9,1.2,3.9,0.3,5.5C69.5,68.2,67.7,69.1,65.5,69.1z M41.2,20c-0.3,0-0.7,0.3-1.1,1L15.8,63.2
	c-0.4,0.7-0.5,1.2-0.3,1.5c0.1,0.2,0.6,0.4,1.4,0.4h48.6c0.8,0,1.3-0.2,1.4-0.4s0.1-0.8-0.3-1.5L42.3,21.1
	C41.9,20.4,41.4,20,41.2,20z M41.2,55c-1.8,0-3.2,1.4-3.2,3.2s1.4,3.2,3.2,3.2c1.8,0,3.2-1.4,3.2-3.2S42.9,55,41.2,55z M39.5,51
	c0,0.9,0.8,1.7,1.7,1.7c0.9,0,1.7-0.8,1.7-1.7l1.9-15.4c0-2-1.6-3.6-3.6-3.6c-2,0-3.6,1.6-3.6,3.6L39.5,51z"/>
</svg>
