<?xml version="1.0" encoding="utf-8"?>
<!-- Generator: Adobe Illustrator 19.1.0, SVG Export Plug-In . SVG Version: 6.00 Build 0)  -->
<svg version="1.1" id="icons" xmlns="http://www.w3.org/2000/svg" xmlns:xlink="http://www.w3.org/1999/xlink" x="0px" y="0px"
	 viewBox="0 0 80 80" style="enable-background:new 0 0 80 80;" xml:space="preserve">
<path d="M78.5,73.5L61.3,56.4c5.6-5.7,9.1-13.4,9.1-22c0-17.2-14-31.3-31.3-31.3S7.8,17.1,7.8,34.4s14,31.3,31.3,31.3
	c6.5,0,12.5-2,17.6-5.4l17.6,17.6c0.6,0.6,1.4,0.9,2.1,0.9s1.5-0.3,2.1-0.9C79.6,76.6,79.6,74.7,78.5,73.5z M22.4,54.7
	c0.2,0,0.3,0,0.5,0h25.3c4,0,7.2-3.3,7.2-7.2v-8.3c-4.1,1.6-9.4,2.5-14.9,2.8c-0.5,2.3-2.5,4-4.9,4c-2.5,0-4.5-1.8-5-4.1
	c-4.7-0.4-9-1.1-12.4-2.3c-0.9-0.3-1.8-0.6-2.5-1v7.6c-1.8-3.6-2.8-7.6-2.8-11.8c0-14.5,11.8-26.3,26.3-26.3s26.3,11.8,26.3,26.3
	S53.6,60.6,39.1,60.6C32.8,60.6,27,58.4,22.4,54.7z M50.1,24.1v-0.5c0-4.5-3.6-8.1-8.1-8.1H29.7c-4.5,0-8.1,3.6-8.1,8.1V24
	c-3.4,0.6-5.9,3.6-5.9,7.1v4.3c3.3,1.9,8.7,3.2,15.2,3.7c0.7-1.9,2.6-3.2,4.7-3.2c2.2,0,4,1.4,4.7,3.3c6.3-0.3,11.6-1.4,15.2-3v-5
	C55.4,27.8,53.1,24.9,50.1,24.1z M46.8,23.9h-22v-0.2c0-2.7,2.2-4.9,4.9-4.9h12.2c2.7,0,4.9,2.2,4.9,4.9V23.9z"/>
</svg>
