<svg id="4d4df43a-18dd-44c9-bfed-77b3dbe5c582" data-name="icons" xmlns="http://www.w3.org/2000/svg" viewBox="0 0 512 512"><title>circus-db-icons</title><path id="23baa168-2b3d-4d16-844f-fea3d89c8512" data-name="gear" d="M436.24,236l-32.46-7.79A152.4,152.4,0,0,0,389.93,191l19-31c6.36-10.38,4.52-25.92-4.09-34.53l-6.26-6.26c-8.61-8.61-24.15-10.45-34.53-4.09l-28.47,17.45A152.68,152.68,0,0,0,299.46,116L291,80.68c-2.84-11.84-15.13-21.53-27.31-21.53h-8.85c-12.18,0-24.46,9.69-27.31,21.53l-7.79,32.46A152.4,152.4,0,0,0,182.5,127l-31-19c-10.38-6.36-25.92-4.52-34.53,4.09l-6.26,6.26c-8.61,8.61-10.45,24.15-4.09,34.53l17.45,28.47a152.68,152.68,0,0,0-16.57,36.12L72.2,225.94c-11.84,2.84-21.53,15.13-21.53,27.31v8.85c0,12.18,9.69,24.46,21.53,27.31l32.46,7.79a152.4,152.4,0,0,0,13.85,37.23l-19,31c-6.36,10.38-4.52,25.92,4.09,34.53l6.26,6.26c8.61,8.61,24.15,10.45,34.53,4.09l28.47-17.45A152.68,152.68,0,0,0,209,409.41l8.47,35.31c2.84,11.84,15.13,21.53,27.31,21.53h8.85c12.18,0,24.46-9.69,27.31-21.53l7.79-32.46a152.39,152.39,0,0,0,37.23-13.85l31,19c10.38,6.36,25.92,4.52,34.53-4.09l6.26-6.26c8.61-8.61,10.45-24.15,4.09-34.53l-17.45-28.47a152.68,152.68,0,0,0,16.57-36.12l35.31-8.47c11.84-2.84,21.53-15.13,21.53-27.31V263.3C457.77,251.13,448.08,238.84,436.24,236Zm-182,118.1a91.4,91.4,0,1,1,91.4-91.4A91.4,91.4,0,0,1,254.22,354.1Z"/></svg>