<?xml version="1.0" encoding="utf-8"?>
<!-- Generator: Adobe Illustrator 19.1.0, SVG Export Plug-In . SVG Version: 6.00 Build 0)  -->
<svg version="1.1" id="icons" xmlns="http://www.w3.org/2000/svg" xmlns:xlink="http://www.w3.org/1999/xlink" x="0px" y="0px"
	 viewBox="0 0 80 80" style="enable-background:new 0 0 80 80;" xml:space="preserve">
<path d="M56.6,37c6.6,0,11.9-5.3,11.9-11.9s-5.3-11.9-11.9-11.9s-11.9,5.3-11.9,11.9c0,0.9,0.1,1.8,0.3,2.6l-14.6,8
	c-2-2.5-5.1-4.1-8.5-4.1c-6,0-10.9,4.9-10.9,10.9c0,6,4.9,10.9,10.9,10.9c3.3,0,6.2-1.4,8.2-3.7l18.5,9.8c-0.1,0.5-0.1,0.9-0.1,1.4
	c0,4.5,3.6,8.1,8.1,8.1s8.1-3.6,8.1-8.1c0-4.5-3.6-8.1-8.1-8.1c-2.2,0-4.2,0.9-5.7,2.3l-18.5-9.8c0.2-0.9,0.4-1.8,0.4-2.7
	c0-0.5-0.1-1.1-0.1-1.6l15.8-7.2C50.5,35.7,53.4,37,56.6,37z"/>
</svg>
