<svg id="f3c478c6-9741-48ad-80a7-2bc6e5c55138" data-name="icons" xmlns="http://www.w3.org/2000/svg" viewBox="0 0 512 512"><title>circus-db-icons</title><path d="M463.5,407.24l-33.09-312a31.12,31.12,0,0,0-34.19-27.64L375.1,69.8l3.65,34.34,17.68-1.87L428.8,407.45,179.32,433.9l-1.38-13,183.38-19.44a31.11,31.11,0,0,0,27.63-34.18L355.86,55.2a31.14,31.14,0,0,0-34.19-27.62L65.32,54.76A31.11,31.11,0,0,0,37.7,88.94L70.78,401a31.13,31.13,0,0,0,30.86,27.8,31.55,31.55,0,0,0,3.33-.18l38.63-4.1L145.34,441a31.13,31.13,0,0,0,30.86,27.8,31.55,31.55,0,0,0,3.33-.18l256.35-27.18A31.11,31.11,0,0,0,463.5,407.24ZM104.76,393.91L72.4,88.73,321.88,62.28l32.36,305.18-94.89,10.06V292h54.34L227.25,123,140.8,292h54.33v92.32Z"/></svg>