<svg xmlns="http://www.w3.org/2000/svg" viewBox="0 0 512 512">
  <title>circus-db-icons</title>
  <path d="M457.85,465.06H66c-17.89,0-32.3-7.17-39.52-19.68s-6.23-28.57,2.71-44.07L225.11,61.93c8.95-15.49,22.36-24.38,36.81-24.38s27.86,8.89,36.81,24.38L494.66,401.3c8.95,15.49,9.94,31.56,2.72,44.07S475.75,465.06,457.85,465.06ZM261.92,77.43c-2,0-5.35,2.45-8.51,7.91L65.72,410.43c-3.16,5.47-3.58,9.63-2.6,11.33s4.8,3.42,11.11,3.42H449.6c6.31,0,10.13-1.72,11.11-3.42s0.56-5.86-2.6-11.33L270.43,85.35C267.27,79.88,263.88,77.43,261.92,77.43Zm0,269.64a24.68,24.68,0,1,0,24.69,24.68A24.68,24.68,0,0,0,261.92,347.07Zm-13.16-30.53a13.17,13.17,0,1,0,26.33,0l14.39-119.17a27.57,27.57,0,1,0-55.13,0Z"/>
</svg>
