<svg xmlns="http://www.w3.org/2000/svg" width="512" height="512" viewBox="0 0 512 512">
  <g>
    <path d="M239.35,356.08a12.5,12.5,0,0,1-8-22.1c19.42-16.23,69.57-61.4,89.17-92-57.45-42.87-123.69-77.63-168.83-77.63-95.88,0-119.54,49-119.54,163.9,0,96.57,93.18,105.77,189.06,105.77s217.34,3.84,217.34-54.54c0-15.95-14.25-39.23-36.92-64.65-74.93,36-157.54,41-161.59,41.19Z"/>
    <path d="M471.22,177.54l-111.85-.88A127.27,127.27,0,0,1,348,244c-11.8,24.94-45.27,58.91-70.42,82.32,38.88-6.44,99.52-21.06,147.1-53.33C474.05,239.52,473.92,195.9,471.22,177.54Z"/>
    <polygon points="470.06 154.46 470.06 152.53 470.06 59.55 361.96 59.55 361.96 151.68 361.96 154.46 470.06 154.46"/>
  </g>
</svg>
