<svg xmlns="http://www.w3.org/2000/svg" width="512" height="512" viewBox="0 0 512 512">
  <g>
    <path d="M435.86,151.4c-.15,20.43-8.83,40.29-25.11,57.44-16.74,17.64-37.28,28.44-51.55,34.39-.8.33-1.61.64-2.42,1,7,23,11,48.23,12.13,75.1,39.9-17.17,80.42-45.59,100.69-84.12-2-33.73-14.2-66.74-34.6-95a72,72,0,0,1,.86,11.19Z"/>
    <path d="M95.42,321.1c-2.94-1.94-5.84-3.92-8.68-6a195,195,0,0,1-48.46-51.68c4.61,44,26.4,86.43,60.74,118.09A147.6,147.6,0,0,1,95.42,321.1Z"/>
    <path d="M101.35,294.82a297.49,297.49,0,0,1,27-66.19,128.59,128.59,0,0,1-30.46-27.47c-14.11-18-20.35-38-18-58l0-.16a80.48,80.48,0,0,1,4.33-17.52c-20.43,23.17-35.12,50.43-42,79.37C45.79,238.19,73.21,274.45,101.35,294.82Z"/>
    <path d="M333.12,252.28A274.12,274.12,0,0,1,257.28,263c-1.89,0-3.78,0-5.67-.05-35.6-.74-70.44-8.44-101.17-22.3A274.4,274.4,0,0,0,123.51,309c48.42,27,108.1,36.39,181.52,28.51a215.86,215.86,0,0,0,39.12-8.92C343.76,304.25,340.79,277.92,333.12,252.28Z"/>
    <path d="M466.1,282.54c-16.57,17.91-35.43,31.57-51.31,41.22A298.34,298.34,0,0,1,369,346.35q-.58,18.4-2.88,37.6l0,.31a136.62,136.62,0,0,1-8.8,31.87C413.52,389.14,454,338.43,466.1,282.54Z"/>
    <path d="M206.67,137.75l.16-.11q11.63-8.71,23.22-16.15c-2-1.35-4-2.72-6.12-4.11-16.1-10.25-49.54-23.43-74.78-26.63-19.26,11.06-41,29.14-44.44,55.38-2.91,25.43,15.73,47.19,36.74,61.17A298.88,298.88,0,0,1,206.67,137.75Z"/>
    <path d="M188.51,74.46c20.62,6.72,39.2,15.67,49,21.91l.21.14c5.71,3.8,11.07,7.46,16.16,11,29.48-15.64,58.72-25,87.47-28.12C294.81,61.94,239.24,60,188.51,74.46Z"/>
    <path d="M388.65,107a105.06,105.06,0,0,0-21.92-3.68c-29.31-.81-59.59,6.2-90.47,20.89,29.38,23.57,47.8,46.86,68.23,87.82l.13.26q1.92,4.11,3.7,8.34l1.33-.52c29.39-12.26,61-36.81,61.21-68.88C410.88,135.93,402.88,120.39,388.65,107Z"/>
    <path d="M252.18,137.18a348.78,348.78,0,0,0-30.27,20.4,274.34,274.34,0,0,0-58.14,61.56c48.88,21.12,107.87,24.44,160.81,9.58q-1.21-2.83-2.53-5.64C301.65,182.2,284,161.09,252.18,137.18Z"/>
    <path d="M341.34,380.8c1-8,1.77-16.67,2.28-25.85A232.92,232.92,0,0,1,308,362.32l-.17,0a472.92,472.92,0,0,1-50.45,2.8,355.81,355.81,0,0,1-64.16-5.5A269.33,269.33,0,0,1,119,334.86c-1.63,25.75,5.3,56.58,22.62,76.95,52.22,28.69,118.2,35.51,176.53,19.28C330.57,420,338.7,398.64,341.34,380.8Z"/>
  </g>
</svg>
