<svg xmlns="http://www.w3.org/2000/svg" width="512" height="512" viewBox="0 0 512 512">
  <title>circus-db-icons</title>
  <g>
    <path d="M355,244.05l1.33-1.33,2.91-2.91a14.36,14.36,0,0,0,0-20.3L279,139.3a14.36,14.36,0,0,0-20.3,0l-80.21,80.21a14.36,14.36,0,0,0,0,20.3l2.91,2.91,2.24,2.24,80.7,21.33Z"/>
    <path d="M469.55,230.75a15,15,0,0,0-13.11-2.51l-30.18,8.38a55.05,55.05,0,0,0-15.62-45.92l-2-2L428.25,169a13.7,13.7,0,0,0-19.37-19.37l-19.63,19.64L368.91,149l19.64-19.64A13.7,13.7,0,0,0,369.18,110L349.54,129.6,329.2,109.26l19.64-19.63a13.7,13.7,0,0,0-19.37-19.37L309.84,89.9l-2-2a55.26,55.26,0,0,0-77.92,0l-2,2L208.32,70.36A13.69,13.69,0,1,0,189,89.73l19.53,19.54L188.16,129.6l-19.54-19.54a13.7,13.7,0,0,0-19.37,19.37L168.79,149l-20.34,20.34-19.54-19.54a13.7,13.7,0,1,0-19.37,19.37l19.54,19.54-2,2a55.1,55.1,0,0,0-15.22,48.54l-39.59-11a15,15,0,0,0-19,14.47V420.93a15,15,0,0,0,11,14.48L260.32,489.9l.24.06.42.1.7.14.42.08.76.09.36,0c.37,0,.75.05,1.12.05h0c.38,0,.75,0,1.13-.05.12,0,.24,0,.35,0l.77-.09.41-.08.71-.14.42-.1.24-.06,196.11-54.49a15,15,0,0,0,11-14.48V242.71A15,15,0,0,0,469.55,230.75ZM162.26,203.28l80.2-80.21a37.35,37.35,0,0,1,52.77,0l80.21,80.21a37.36,37.36,0,0,1,5.37,46L264.34,281.61,159,252.35A37.37,37.37,0,0,1,162.26,203.28Zm-79,59.21,166.06,46.14v147L83.26,409.51Zm362.17,147L279.37,455.65v-147l166.06-46.14Z"/>
  </g>
</svg>
