<svg xmlns="http://www.w3.org/2000/svg" viewBox="0 0 512 512">
  <title>circus-db-icons</title>
  <g>
    <path d="M278,24c-54.36,1.54-107.53,7.48-160.47,62.6-42.58,44.34-33,84.67-27.26,108.77A111.14,111.14,0,0,1,93,209.26s-0.25,3.41-8.22,11.25c-6.46,6.35-15.31,13-23.12,18.81-16,12-26.6,19.91-27.62,31.35-1,11.24,7.39,22.5,30,40.15,5.32,4.17,10.63,8,15.06,11.18l-8.12,16.32a15,15,0,0,0,5.11,19.17c5.5,3.67,11.74,9.48,13.59,12.56-2.27,11.91-6,36.09,8.54,55.08,18.52,24.19,65.73,26.42,116.62,26.68,6.84,0,15.08.08,19.05,0.38,3.87,4.64,10.78,19.25,15.32,32.64a15,15,0,0,0,28.41-9.62c-0.14-.42-3.51-10.34-8.33-20.91-8.19-18-15.44-27.06-24.22-30.33-5.17-1.93-11.77-2.06-30.09-2.15-16.07-.08-38.08-0.19-57.21-2.7-26.48-3.48-33.81-9.7-35.74-12.21-7.16-9.35-4.16-24.74-2.55-33,2.56-13.13-7-25.09-16.17-33.21l8.45-17a15,15,0,0,0-5.21-19.23c-16.4-10.75-32.78-23.64-39.84-31.07,3.59-3,8.78-6.92,13-10.05,21.22-15.89,45.28-33.89,43.24-56.67a130.72,130.72,0,0,0-3.46-18.22c-5.41-22.74-11.54-48.52,19.71-81.05,45.14-47,90-52,139.68-53.4,34.06-1,86.26,10.55,121.29,46.17,25.7,26.13,37.77,60.5,35.89,102.16-2.38,52.83-22.57,80.76-40.37,105.4-12.58,17.42-24.47,33.87-26.06,55.16-4.23,56.55,56.6,120.49,63.64,126a15,15,0,0,0,18.51-23.61c-2.76-2.36-17-17.48-30.08-37.69-15.73-24.32-23.39-45.91-22.16-62.43,1-12.83,9.57-24.74,20.46-39.82,18.25-25.25,43.24-59.84,46-121.62,2.24-49.61-13.14-92.68-44.47-124.54C379.76,36.68,320,22.82,278,24Z"/>
    <path d="M325.61,282.28c-4.15-.21-13.31-4.48-16.49-7.6A15,15,0,0,0,279.48,278c0,5.25,2.08,13.14,12,21,7.17,5.67,21.76,13.3,34.54,13.3a27.07,27.07,0,0,0,6.23-.68c17.27-4.09,27.71-23,33.43-38.13,6.06-16.06,9.23-34.09,8.06-45.94-0.94-9.6-6.28-23.44-13.6-35.25-7-11.22-18.36-24.88-33.21-26.22-10.86-1-20.94,5.95-27.49,11.93-3.92,3.59-16.73,16.35-16.73,30a15,15,0,0,0,30,1c1.36-3.68,8-10.57,12-12.63,2,1.29,6.08,5.08,11,13.39s7.87,16.85,8.25,20.72c0.58,5.88-1.32,19-6,31.63C332.62,276.42,327.24,281.39,325.61,282.28Z"/>
  </g>
</svg>
