<svg xmlns="http://www.w3.org/2000/svg" viewBox="0 0 512 512">
  <title>circus-db-icons</title>
  <path d="M410.87,102.05c-28.2-20.71-55.62-25.65-67.32-27.76-1.15-.21-2.59-0.47-3-0.58a20.93,20.93,0,0,0-18.33,3.75C310.92,86.26,310,103.9,310,124.33c0,6.08.36,16.45,0.9,32.16,0.14,4.15.3,8.71,0.46,13.63l-11.42-7.35-0.89-122a15,15,0,0,0-15-14.89h-0.11A15,15,0,0,0,269.05,41L270,171.11a15,15,0,0,0,6.88,12.5l87,56a15,15,0,1,0,16.24-25.23L342,189.84c0-.21,0-0.42,0-0.64-0.41-13.24-.8-24.43-1.12-33.73-0.53-15.4-.88-25.57-0.88-31.13,0-10.55.42-16.54,0.91-20C399.3,115.88,436.09,157.14,450.3,227c9.62,47.29,8.09,171.08,4.42,220l-3.77-3.11c-9.52-7.87-19.37-16-27.18-20.73-15.56-9.41-28.18-8.12-36.52-7.27a34.22,34.22,0,0,1-5.45.31,7.33,7.33,0,0,1-1.12-1.21c-4-5.09-4.11-6.28-2.67-21.24A362.05,362.05,0,0,0,380,356c0-27.48-10.79-44.39-21.23-60.75a204.84,204.84,0,0,1-11.38-19.37l9.28,5.21a15,15,0,0,0,14.68-26.16l-98-55a15,15,0,0,0-16.85,1.48l-89,73a15,15,0,1,0,19,23.2l4.58-3.75a103.73,103.73,0,0,1-3,10.51c-3.06,9-4,14.11-4,39.44a238.32,238.32,0,0,0,3.44,41c1.91,12.05,1.91,12.05-1.73,16.25-4.57,5.27-19.52,8.94-32.71,12.19-13.57,3.33-28.94,7.12-41.79,14.09-14.88,8.09-30.57,20.29-41.81,29.77-5.1-47.79-7.88-214.7,8.35-252.16,18.41-42.45,71.17-94.78,108.12-97.84,1.16,2.76,2.85,9.27,2.85,20.92,0,8-.28,35.67-1.55,70.88l-39.85,33.61a15,15,0,1,0,19.34,22.93l86.55-73a15,15,0,0,0,5.33-11.81l-3-130.1a15,15,0,0,0-30,.69l2.83,122.92L218,172.93c0.58-22.37.73-39,.73-44.88,0-20.86-4.23-35.56-12.56-43.71A25.17,25.17,0,0,0,187.66,77c-24,.55-52.56,14.56-80.27,39.46C82.82,138.54,61.46,167.16,50.24,193,37.19,223.15,35.31,305,35.35,351.12c0,29.45.87,60.11,2.32,84.12,2.5,41.55,5.44,45.24,8.3,48.82a24.14,24.14,0,0,0,16.75,9q1,0.09,2,.08a24.13,24.13,0,0,0,16-6.08c9.61-8.57,28.21-24.28,44.83-33.31,9.44-5.13,22.25-8.28,34.63-11.32,19.23-4.73,37.4-9.2,48.21-21.67,12.79-14.75,10.89-26.73,8.69-40.6A209,209,0,0,1,214,343.8c0-22.54.72-24.68,2.47-29.84,1.88-5.58,4.73-14,8.35-37.69a14.92,14.92,0,0,0-1.41-8.94l44.17-36.23,41.48,23.28c4.56,25.9,15.06,42.37,24.41,57C342.71,325.85,350,337.28,350,356a331.29,331.29,0,0,1-1.86,34.88c-1.55,16.11-2.68,27.75,8.87,42.56,11.33,14.55,25.08,13.14,33.29,12.3,6.37-.66,11-1.12,17.94,3.09,5.93,3.59,15.32,11.34,23.6,18.18,16.94,14,24.75,20.44,33.2,20.44a17.5,17.5,0,0,0,2.24-.15,16,16,0,0,0,10.92-6.51c2.45-3.43,5-7,7.12-42.23,1.2-19.83,2-45.33,2.18-71.8,0.24-31.1,0-107.56-7.81-145.76C468.84,167.64,445.69,127.62,410.87,102.05Z"/>
</svg>
