<svg xmlns="http://www.w3.org/2000/svg" viewBox="0 0 512 512">
  <title>circus-db-icons</title>
  <path d="M306.94,350.2c65.89-3.66,129.07-14.61,177.91-33.56v98.44a86.26,86.26,0,0,1-86,86H97.48a86.26,86.26,0,0,1-86-86V309.78a316.36,316.36,0,0,0,29.78,11.74c41,13.94,92.08,23.29,147.87,27.5A60.19,60.19,0,0,0,306.94,350.2ZM484.85,220.4v59.3C442,298.83,378.81,312,304.4,315.92a60.14,60.14,0,0,0-112.09-1c-77.45-5.65-141.45-21.41-180.84-43.5v-51c0-42.06,30.62-77.25,70.66-84.55v-4.06A96.87,96.87,0,0,1,178.89,35H324.1a96.87,96.87,0,0,1,96.76,96.76v5.58C457.57,147.17,484.85,180.71,484.85,220.4Zm-364-88.61v2.6H382.16v-2.6A58.12,58.12,0,0,0,324.1,73.73H178.89A58.12,58.12,0,0,0,120.83,131.79Z"/>
</svg>
