<svg xmlns="http://www.w3.org/2000/svg" width="512" height="512" viewBox="0 0 512 512">
  <title>job-search</title>
  <g>
    <path d="M493.54,470.22,383.66,360.35a199.41,199.41,0,0,0,58.08-140.8c0-110.32-89.75-200.08-200.07-200.08S41.59,109.23,41.59,219.55s89.75,200.08,200.08,200.08A198.94,198.94,0,0,0,354,385L466.39,497.37a19.2,19.2,0,1,0,27.15-27.15ZM79.46,175.48A11.93,11.93,0,0,0,81.39,178l17.13,17.13-1.77,1.78a48.47,48.47,0,0,0,0,68.35l1.77,1.78L85.08,280.5a167.8,167.8,0,0,1-5.62-105ZM97.3,302.16c.33-.27.64-.55,1-.85L115.51,284l17.84,17.84-17.26,17.26a12,12,0,0,0-2.32,3.27C107.68,314.89,101.55,307.37,97.3,302.16ZM127.62,208,198,137.61a32.77,32.77,0,0,1,46.29,0L314.61,208a32.77,32.77,0,0,1,0,46.29L244.26,324.6a32.77,32.77,0,0,1-46.29,0l-70.35-70.35A32.77,32.77,0,0,1,127.62,208Zm-.25,131.35a12,12,0,0,0,5.7-3.18l17.27-17.26,17.83,17.84L150.91,354a12.1,12.1,0,0,0-3,5q-6.66-4.5-12.86-9.58C135.32,349.4,132.13,345.28,127.37,339.31Zm114.3,48.32a167.05,167.05,0,0,1-73.5-16.95l17-17,1.78,1.78a48.47,48.47,0,0,0,68.35,0l1.78-1.78,16.5,16.5a12,12,0,1,0,17-17l-16.49-16.49,17.83-17.84,16.5,16.5a12,12,0,0,0,17-17l-16.5-16.5L326.72,284l16.5,16.5a12,12,0,1,0,17-17l-16.49-16.49,1.77-1.78a48.47,48.47,0,0,0,0-68.35l-1.77-1.78,17.22-17.22a12,12,0,0,0-17-17l-17.22,17.22-17.84-17.83L326.1,143.1a12,12,0,0,0-17-17l-17.22,17.22L274.06,125.5l17.22-17.22a12,12,0,0,0-17-17l-17.22,17.22-1.78-1.78a48.48,48.48,0,0,0-68.35,0l-1.78,1.78L168,91.38a12,12,0,0,0-17,17l17.13,17.14-17.83,17.84L133.2,126.2a12,12,0,1,0-17,17l17.14,17.14-17.84,17.83L98.38,161a12,12,0,0,0-13.32-2.5C109.53,95.93,170.5,51.47,241.67,51.47c92.67,0,168.07,75.4,168.07,168.08S334.34,387.63,241.67,387.63Z"/>
    <path d="M230,310.36,300.37,240a12.61,12.61,0,0,0,0-17.81L230,151.85a12.61,12.61,0,0,0-17.81,0L141.86,222.2a12.61,12.61,0,0,0,0,17.81l70.35,70.35A12.61,12.61,0,0,0,230,310.36Z"/>
  </g>
</svg>
