<svg xmlns="http://www.w3.org/2000/svg" width="512" height="512" viewBox="0 0 512 512">
  <title>circus-db-icons</title>
  <path d="M470.17,278.89a18.92,18.92,0,1,0,0-37.83H431.83V201.35h38.34a18.92,18.92,0,1,0,0-37.83H431.83v-4a76.32,76.32,0,0,0-76.1-76.1h-4V45.32a18.92,18.92,0,1,0-37.83,0V83.47H274.24V45.32a18.92,18.92,0,1,0-37.83,0V83.47H196.69V45.32a18.91,18.91,0,1,0-37.82,0V83.47h-4a76.32,76.32,0,0,0-76.09,76.1v4H40.38a18.92,18.92,0,0,0,0,37.83H78.82v39.71H40.38a18.92,18.92,0,0,0,0,37.83H78.82v39.72H40.38a18.91,18.91,0,0,0,0,37.82H78.82v4a76.31,76.31,0,0,0,76.09,76.09h4v36.74a18.91,18.91,0,0,0,37.82,0V436.48h39.72v36.74a18.92,18.92,0,0,0,37.83,0V436.48H314v36.74a18.92,18.92,0,0,0,37.83,0V436.48h4a76.32,76.32,0,0,0,76.1-76.09v-4h38.34a18.91,18.91,0,1,0,0-37.82H431.83V278.89Zm-85,59.41a51.59,51.59,0,0,1-51.53,51.53H177a51.59,51.59,0,0,1-51.53-51.53V181.66A51.59,51.59,0,0,1,177,130.13H333.64a51.58,51.58,0,0,1,51.53,51.53Zm-31.7-156.64V338.3a19.85,19.85,0,0,1-19.83,19.82H177a19.84,19.84,0,0,1-19.82-19.82V181.66A19.84,19.84,0,0,1,177,161.83H333.64A19.85,19.85,0,0,1,353.47,181.66Z"/>
</svg>
