<svg xmlns="http://www.w3.org/2000/svg" width="512" height="512" viewBox="0 0 512 512">
  <title>circus-db-icons</title>
  <g>
    <path d="M457.34,70,209.27,34a2.4,2.4,0,0,1-.28,0l-.56,0q-.5,0-1,0h-.55a10.22,10.22,0,0,0-1.1.1l-.41,0a14.9,14.9,0,0,0-1.47.34l-.29.1c-.39.13-.77.27-1.15.44a4.54,4.54,0,0,0-.45.21c-.33.16-.65.33-1,.52l-.27.14-152,96a12.5,12.5,0,0,0-5.83,10.57V434.49c0,.09,0,.19,0,.28a1.28,1.28,0,0,0,0,.19,12.4,12.4,0,0,0,11.38,12l210.39,47.77a12.52,12.52,0,0,0,9-1.35l188.06-108,.05,0,.27-.17.63-.4.29-.22c.19-.14.38-.28.55-.43l.13-.1.12-.12c.26-.23.5-.46.74-.71.05-.05.11-.1.16-.16.27-.3.53-.6.77-.92.06-.07.1-.14.16-.22.19-.25.36-.52.53-.79.06-.1.12-.19.17-.29a11.53,11.53,0,0,0,.55-1l0-.07c.16-.34.29-.69.42-1,0-.11.07-.22.1-.32.1-.31.19-.63.26-.95l.06-.23a11.6,11.6,0,0,0,.19-1.18l0-.26c0-.33,0-.66,0-1,0-.07,0-.13,0-.19V82.38A12.5,12.5,0,0,0,457.34,70ZM443,359.93l-69.11-10.51a126.51,126.51,0,0,0-20.31-50,114,114,0,0,0-21.12-23L331.55,77,443,93.2Zm-356,68.8,49.6-32.41a459.71,459.71,0,0,0,72.75,13.37l-55.85,34.13Zm51-58-.1,0-.09,0a212.83,212.83,0,0,1-25.82-8.93c.13-8.63,3.45-28.65,17-47.47,16.67-23.16,43.07-37.19,78.44-41.71a12.5,12.5,0,0,0,2.17-24.32A68.66,68.66,0,0,1,210.64,117h0a68.65,68.65,0,0,1,41.57,130.83,12.5,12.5,0,0,0,2.63,24.28c79.37,8.66,93,67.07,95.3,87.63-9.78,7.39-37.07,24.36-84.05,26.65C209.14,389.19,157.59,376.39,138.07,370.75ZM219.87,60.8l86.66,12.58.26,55.45a93.62,93.62,0,0,0-87.11-39.09l.17-25.24Zm87.55,199.81A134.55,134.55,0,0,0,291,254.15,93.56,93.56,0,0,0,307.3,236.1ZM265.49,469.23l-77-17.47,64-39.09a14.75,14.75,0,0,0,1.28-.91c4.47-.05,9-.17,13.54-.39,67.09-3.28,100.8-33.71,104.27-37l46.68,7.1Z"/>
    <path d="M217.55,202l-6.42-1.18,7-13.94a8,8,0,0,0-14.3-7.2L192,203.14a8,8,0,0,0,5.7,11.47l16.93,3.11a7.9,7.9,0,0,0,1.45.13A8,8,0,0,0,217.55,202Z"/>
  </g>
</svg>
