<svg xmlns="http://www.w3.org/2000/svg" viewBox="0 0 512 512">
  <title>circus-db-icons</title>
  <path d="M504.67,436.18L467.19,82.61a35.26,35.26,0,0,0-38.74-31.32l-23.93,2.54,4.13,38.91,20-2.12,36.67,345.79-282.68,30-1.56-14.75,207.78-22a35.25,35.25,0,0,0,31.3-38.73L382.71,37.3A35.28,35.28,0,0,0,344,6L53.51,36.79a35.26,35.26,0,0,0-31.3,38.73L59.69,429.1a35.28,35.28,0,0,0,35,31.5,35.75,35.75,0,0,0,3.77-.2l43.77-4.64,2,18.64a35.28,35.28,0,0,0,35,31.5,35.75,35.75,0,0,0,3.77-.2l290.46-30.8A35.25,35.25,0,0,0,504.67,436.18ZM98.19,421.08L61.53,75.29l282.68-30,36.66,345.79-107.52,11.4V305.62h61.58L237,114.11,139,305.62h61.57v104.6Z"/>
</svg>
