<svg xmlns="http://www.w3.org/2000/svg" viewBox="0 0 512 512">
  <title>circus-db-icons</title>
  <path d="M480.44,223.7l-37.89-9.09a177.86,177.86,0,0,0-16.16-43.45L448.56,135c7.43-12.12,5.28-30.25-4.77-40.3l-7.3-7.3c-10-10-28.18-12.19-40.3-4.77L363,103a178.19,178.19,0,0,0-42.16-19.34l-9.89-41.21c-3.32-13.82-17.66-25.12-31.87-25.12H268.72c-14.21,0-28.55,11.31-31.87,25.12l-9.09,37.89a177.86,177.86,0,0,0-43.45,16.16L148.14,74.31C136,66.89,117.89,69,107.85,79.08l-7.3,7.3c-10,10-12.19,28.18-4.77,40.3l20.36,33.22A178.18,178.18,0,0,0,96.8,202.06L55.59,212c-13.82,3.32-25.12,17.66-25.12,31.87v10.33c0,14.21,11.31,28.55,25.12,31.87l37.89,9.09a177.86,177.86,0,0,0,16.16,43.45L87.47,374.73C80,386.85,82.19,405,92.24,415l7.3,7.3c10,10,28.18,12.19,40.3,4.77l33.22-20.36a178.19,178.19,0,0,0,42.16,19.34l9.89,41.21c3.32,13.82,17.66,25.12,31.87,25.12h10.33c14.21,0,28.55-11.31,31.87-25.12l9.09-37.89a177.85,177.85,0,0,0,43.45-16.16l36.17,22.17c12.12,7.43,30.25,5.28,40.3-4.77l7.3-7.3c10-10,12.19-28.18,4.77-40.3L419.9,349.81a178.19,178.19,0,0,0,19.34-42.16l41.21-9.89c13.82-3.32,25.12-17.66,25.12-31.87V255.56C505.57,241.35,494.26,227,480.44,223.7ZM268,361.53A106.67,106.67,0,1,1,374.69,254.86,106.67,106.67,0,0,1,268,361.53Z"/>
</svg>
