<svg xmlns="http://www.w3.org/2000/svg" viewBox="0 0 512 512">
  <title>uE608-reference-rotate</title>
  <g>
    <path d="M467,168.49H205.84V43a20,20,0,0,0-40,0V168.49H41a20,20,0,0,0,0,40H165.84V475a20,20,0,0,0,40,0V208.49H467a20,20,0,0,0,0-40Z"/>
    <path d="M336.68,294.48l17,17L391,274.11V322.6A83.49,83.49,0,0,1,307.6,406H268.69L306,368.65l-17-17L223.72,417l65.35,65.35,17-17L270.63,430h37A107.52,107.52,0,0,0,415,322.6V276l35.41,35.41,17-17L402,229.13ZM401.11,264l.92-.92.92.92Z"/>
  </g>
</svg>
