<svg xmlns="http://www.w3.org/2000/svg" width="512" height="512" viewBox="0 0 512 512">
  <title>circus-rs-icons</title>
  <g>
    <path d="M361.45,358.32A173.9,173.9,0,0,0,412.1,235.55c0-96.2-78.27-174.47-174.47-174.47S63.16,139.34,63.16,235.55,141.43,410,237.63,410a173.47,173.47,0,0,0,98-30.19l98,98a16.74,16.74,0,0,0,23.68-23.68ZM237.5,374A136.5,136.5,0,1,1,374,237.5,136.5,136.5,0,0,1,237.5,374Z"/>
    <path d="M325.37,212H261.18V153a25,25,0,0,0-50,0v59H147a25,25,0,0,0,0,50h64.18v59a25,25,0,0,0,50,0V262h64.18A25,25,0,0,0,325.37,212Z"/>
  </g>
</svg>
