<svg xmlns="http://www.w3.org/2000/svg" width="512" height="512" viewBox="0 0 512 512">
  <title>circus-rs-icons</title>
  <path d="M390.47,109.69h-4.08A35.41,35.41,0,0,0,369,114.23V104.4a35.66,35.66,0,0,0-35.62-35.62H329.3A35.4,35.4,0,0,0,312.41,73a35.68,35.68,0,0,0-35.36-31.31H273a35.68,35.68,0,0,0-35.18,30,35.4,35.4,0,0,0-17.07-4.36h-4.08A35.66,35.66,0,0,0,181,103V239.22l-12.8-29.29c-9.53-29.75-27.45-36-40.84-36-22.87,0-41.47,17.74-41.47,39.54v1.18l38.3,159.72,0.21,0.74c5.85,18.11,16.75,44,35.47,64.43s40.66,30.75,65.3,30.75H332.66c19.49,0,42-7.11,60.29-19,21.37-13.94,33.14-31.84,33.14-50.4V145.32A35.66,35.66,0,0,0,390.47,109.69Zm15.62,291.15c0,11.41-8.77,23.67-24.06,33.65-14.92,9.73-33.84,15.78-49.36,15.78H225.19c-49.82,0-73.61-56.32-81.62-81L105.94,212.39c0.6-10.28,10-18.48,21.44-18.48,6.38,0,15.59,2.34,21.93,22.53l0.16,0.51,28.76,65.82H201V103a15.64,15.64,0,0,1,15.62-15.62h4.08A15.64,15.64,0,0,1,236.35,103v179.8h21V77.35A15.64,15.64,0,0,1,273,61.73h4.08a15.64,15.64,0,0,1,15.62,15.62V282.78h21V104.4A15.64,15.64,0,0,1,329.3,88.78h4.08A15.64,15.64,0,0,1,349,104.4V282.78h21.77V145.32a15.64,15.64,0,0,1,15.62-15.62h4.08a15.64,15.64,0,0,1,15.62,15.62V400.84Z"/>
</svg>
