<svg xmlns="http://www.w3.org/2000/svg" width="512" height="512" viewBox="0 0 512 512">
  <title>circus-rs-icons</title>
  <path d="M198.89,457.11L428.05,312.22,222.7,73.38,201.33,97.67c-6.29-6.76-16.3-17-28.13-27.41-27.81-24.41-51.46-37-70.26-37.35A36.26,36.26,0,0,0,74.84,44.58C53,68.1,55.91,100.86,83.5,141.94c10.6,15.79,23.91,31.59,37.84,46.65L43.58,277ZM100.11,130.79C67.36,82,84,64.09,89.5,58.19c3.45-3.71,7.59-5.39,13-5.28,26,0.51,66.59,39.13,85.54,59.83L134.62,173.5C121.8,159.54,109.69,145.06,100.11,130.79ZM165,232.86l7.89,7.74a27.65,27.65,0,1,0,13.74-14.54L179,218.58c-9.62-9.43-20.12-19.71-30.57-30.49l74.1-84.23L397.79,307.7,202.78,431,70.1,277.12l65.07-74C145.4,213.66,155.6,223.66,165,232.86Z"/>
  <path d="M434,329.37l-43,78.56c-15,27.42,3.75,61.69,33.75,61.69h18.46c30,0,48.76-34.27,33.75-61.69Z"/>
</svg>
