<svg xmlns="http://www.w3.org/2000/svg" width="512" height="512" viewBox="0 0 512 512">
  <title>circus-rs-icons</title>
  <g>
    <path d="M455.26,454.14l-95.81-95.82A173.9,173.9,0,0,0,410.1,235.55c0-96.2-78.27-174.47-174.47-174.47S61.16,139.34,61.16,235.55,139.43,410,235.63,410a173.47,173.47,0,0,0,98-30.19l98,98A16.74,16.74,0,1,0,455.26,454.14ZM235.5,374A136.5,136.5,0,1,1,372,237.5,136.5,136.5,0,0,1,235.5,374Z"/>
    <path d="M325.37,212H147a25,25,0,0,0,0,50H325.37A25,25,0,0,0,325.37,212Z"/>
  </g>
</svg>
