<svg xmlns="http://www.w3.org/2000/svg" viewBox="0 0 512 512">
  <title>uE614-wand</title>
  <path
     d="m 463.6898,495.9977 c -0.80622,-0.002 -3.13596,-1.04961 -5.1772,-2.32686 -2.04124,-1.27724 -50.6134,-48.93633 -107.93814,-105.90908 L 246.34765,284.17494 v -5.35144 c 0,-5.09162 0.55557,-5.91694 11.4433,-16.99968 6.29382,-6.40654 13.22596,-12.40523 15.40475,-13.33041 2.94683,-1.25132 4.84795,-1.35549 7.42268,-0.40674 1.93006,0.71121 49.84478,47.27623 108.3115,105.26049 73.20428,72.6002 105.24645,105.17515 106.16288,107.92808 1.03779,3.11754 0.89291,4.82066 -0.69208,8.13514 -1.10257,2.30565 -6.61746,8.65998 -12.2553,14.12074 -5.63786,5.46075 -11.76694,10.5007 -13.62019,11.19991 -1.85324,0.69919 -4.02917,1.2692 -4.83539,1.26667 z m 0.22613,-18.40973 c 0.47672,0 3.89981,-3.04765 7.60689,-6.77254 l 6.74012,-6.77255 -100.48748,-99.71647 -100.48748,-99.71648 -6.79572,6.74477 -6.79574,6.74478 99.67633,99.74424 c 54.82198,54.85934 100.06636,99.74425 100.54308,99.74425 z M 235.15741,341.32198 c -2.26838,0 -4.86078,-1.09912 -6.51485,-2.76215 -1.511,-1.51918 -14.58905,-18.07227 -29.06232,-36.78464 -14.47328,-18.71237 -26.79762,-34.31844 -27.38742,-34.68016 -0.5898,-0.36172 -16.76659,12.32436 -35.94843,28.19128 -27.20344,22.50229 -35.63632,28.84897 -38.331827,28.84897 -1.90066,0 -4.72361,-1.01878 -6.27322,-2.26394 -1.77572,-1.42685 -2.80999,-3.58291 -2.79726,-5.8312 0.0111,-1.962 4.90232,-23.08493 10.86935,-46.93988 5.967037,-23.85493 10.365157,-43.78868 9.773607,-44.2972 -0.59154,-0.50851 -19.725017,-4.63809 -42.518827,-9.17682 -22.79382,-4.53873 -42.90202,-8.81113 -44.68489,-9.49422 -1.78287,-0.68308 -3.8705,-2.6117 -4.63917,-4.28581 -0.76868,-1.67412 -1.39759,-3.81569 -1.39759,-4.75906 0,-0.94336 1.25257,-3.04729 2.7835,-4.67538 1.57229,-1.67208 20.91417,-11.17666 44.44953,-21.84246 L 105.14363,151.68703 84.817803,111.73301 C 73.405923,89.300929 64.491983,70.316013 64.491983,68.443069 c 0,-1.834757 1.1134,-4.440781 2.47423,-5.791165 1.36082,-1.350383 3.86916,-2.455243 5.57408,-2.455243 1.70491,0 21.95122,9.356513 44.991797,20.79225 l 41.89194,20.792249 18.26849,-40.127287 c 10.52395,-23.116157 19.53786,-41.298244 21.26277,-42.889437 1.64684,-1.519181 3.77207,-2.762148 4.72273,-2.762148 0.95066,0 3.13031,0.633822 4.84368,1.408493 1.73076,0.782537 3.6669,3.101225 4.35659,5.217391 0.68276,2.094894 5.1712,22.591507 9.9743,45.548029 4.8031,22.956522 8.96103,42.393379 9.23984,43.193009 0.35268,1.01145 13.71851,-1.88371 43.9227,-9.51407 23.87866,-6.032368 44.50811,-10.967942 45.8432,-10.967942 1.33511,0 3.54087,1.10486 4.90169,2.455243 1.49204,1.480587 2.47423,4.092072 2.47423,6.578553 0,3.573376 -3.91865,8.828186 -29.38144,39.399666 -16.1598,19.40201 -29.54371,35.7073 -29.74201,36.234 -0.19831,0.52668 12.32746,10.52847 27.83505,22.22618 15.50758,11.69771 31.95335,24.22031 36.54613,27.82799 7.77423,6.10674 8.35052,6.89273 8.35052,11.38931 0,3.81772 -0.65862,5.25813 -3.14278,6.87333 -2.85618,1.85708 -7.43942,1.96127 -50.25796,1.14248 l -47.11518,-0.90095 0.91505,46.00871 c 0.9108,45.79539 0.90292,46.02074 -1.70081,48.60449 -1.51781,1.50617 -4.19734,2.59578 -6.38341,2.59578 z" />
</svg>
