<svg xmlns="http://www.w3.org/2000/svg" viewBox="0 0 512 512">
   <title>uE616-polyline</title>
   <g>
      <path d="M469.33,369h-44.5V324.5a20,20,0,0,0-40,0V369h-44.5a20,20,0,1,0,0,40h44.5v44.5a20,20,0,0,0,40,0V409h44.5a20,20,0,0,0,0-40Z"/>
      <path d="M 174.08984 39.287109 A 17.0017 17.0017 0 0 0 157.50781 52.697266 L 137.53711 145.19922 L 31.9375 127.72461 A 17.0017 17.0017 0 0 0 17.173828 156.55078 L 114.24805 253.08008 L 68.679688 464.14648 A 17.0017 17.0017 0 0 0 94.748047 481.86523 L 243.96094 382.06445 L 347.19922 484.72461 A 17 17 0 0 0 371.24023 484.65625 A 17 17 0 0 0 371.17188 460.61523 L 272.78711 362.7832 L 301.47852 343.59375 L 305.17578 350.84766 A 17 17 0 0 0 328.04297 358.27344 A 17 17 0 0 0 335.46875 335.4082 L 329.93945 324.55859 L 471.03711 230.18359 A 17.0017 17.0017 0 0 0 464.36133 199.28125 L 247.82617 163.44922 L 189.27148 48.564453 A 17.0017 17.0017 0 0 0 174.08984 39.287109 z M 180.66406 106.55273 L 206.14844 156.55273 L 171.12109 150.75586 L 180.66406 106.55273 z M 78.871094 169.95312 L 130.35352 178.47266 L 122.76953 213.60547 L 78.871094 169.95312 z M 163.9375 184.0293 L 225.33008 194.1875 L 285.92969 313.08789 L 248.19531 338.32812 L 151.4043 242.08008 L 163.9375 184.0293 z M 267.00781 201.08594 L 416.41992 225.80859 L 314.39062 294.05273 L 267.00781 201.08594 z M 142.88281 281.55469 L 219.36719 357.60938 L 110.78516 430.23438 L 142.88281 281.55469 z " />
   </g>
</svg>
