<svg xmlns="http://www.w3.org/2000/svg" viewBox="0 0 512 512">
  <title>uE615-wand-eraser</title>
  <path
     d="m 463.68974,495.9977 c -0.80622,-0.002 -3.13596,-1.04961 -5.1772,-2.32686 C 456.4713,492.3936 407.89914,444.73451 350.5744,387.76176 L 246.34759,284.17494 v -5.37164 c 0,-5.17931 0.45838,-5.82649 12.80269,-18.07609 12.35477,-12.25999 12.99257,-12.70446 18.23041,-12.70446 h 5.42773 l 105.48522,104.64922 c 73.75801,73.17345 105.8802,105.83683 106.79844,108.59775 1.03862,3.1229 0.89402,4.82513 -0.69146,8.14066 -1.10257,2.30565 -6.61746,8.65998 -12.2553,14.12074 -5.63786,5.46075 -11.76694,10.5007 -13.62019,11.19991 -1.85324,0.69919 -4.02917,1.2692 -4.83539,1.26667 z M 234.94169,341.32198 c -2.04472,0 -4.71768,-1.17207 -6.29919,-2.76215 -1.511,-1.51918 -14.58905,-18.07227 -29.06232,-36.78464 -14.47328,-18.71237 -26.86058,-34.35706 -27.52735,-34.76598 -0.66675,-0.40893 -16.55047,12.00003 -35.29713,27.57546 -18.74667,15.57542 -35.47904,28.66618 -37.183065,29.09059 -1.70402,0.4244 -4.46009,0.15588 -6.12461,-0.5967 -1.66452,-0.7526 -3.56004,-2.76118 -4.21228,-4.46354 -0.93699,-2.44556 1.17149,-12.52283 10.04613,-48.01441 6.177615,-24.70557 10.758525,-45.3336 10.179805,-45.84007 -0.57872,-0.50647 -19.423365,-4.62122 -41.876965,-9.1439 -22.45361,-4.5227 -42.552001,-8.765 -44.663101,-9.42736 -2.15261,-0.6754 -4.46171,-2.56195 -5.25773,-4.29561 -0.78066,-1.70022 -1.41938,-3.86315 -1.41938,-4.80652 0,-0.94336 1.25258,-3.06546 2.7835,-4.71575 1.61246,-1.73817 20.089021,-10.86464 43.917531,-21.693 22.62371,-10.28085 41.134025,-19.24585 41.134025,-19.92222 0,-0.67637 -8.909735,-18.70492 -19.799405,-40.06344 -13.30865,-26.103012 -19.79757,-40.118792 -19.79381,-42.753832 0.004,-2.65511 0.89285,-4.53685 2.75507,-5.8312 1.51223,-1.05107 4.02056,-1.91104 5.57408,-1.91104 1.55353,0 21.64166,9.33948 44.640305,20.75441 l 41.81571,20.754412 18.30653,-40.089452 c 10.79418,-23.638156 19.55095,-41.222936 21.33898,-42.851596 1.66786,-1.51918 4.08378,-2.76215 5.36872,-2.76215 1.28494,0 3.75885,1.24297 5.49758,2.76215 2.86154,2.50021 4.06142,7.04051 12.6527,47.877236 7.49964,35.647862 9.88981,45.115092 11.39013,45.115092 1.04431,0 20.66077,-4.69566 43.59211,-10.43479 22.93136,-5.739122 42.76051,-10.434782 44.06478,-10.434782 1.30427,0 3.58184,1.27858 5.06128,2.84127 1.50076,1.58524 2.68987,4.43454 2.68987,6.445382 0,2.89774 -5.81748,10.58151 -29.68237,39.20477 -16.3253,19.58035 -29.52617,36.07683 -29.33526,36.65882 0.1909,0.58201 16.47064,13.28789 36.1772,28.2353 34.63333,26.26936 35.8428,27.32855 36.20988,31.71076 0.28043,3.34784 -0.31841,5.22645 -2.28947,7.18239 l -2.6692,2.64873 -47.6981,-0.90657 -47.69811,-0.90656 0.88946,45.73748 0.88945,45.73748 -2.76703,2.92276 c -1.66848,1.7624 -4.17718,2.92277 -6.31895,2.92277 z m -10.63847,-38.12526 c 0.46324,0.0379 0.51698,-16.1429 0.11938,-35.95743 l -0.72281,-36.02645 2.84503,-2.82319 2.84503,-2.8232 38.46896,0.88585 c 21.15791,0.48722 38.19494,0.61394 37.86004,0.28163 -0.33489,-0.33233 -13.13456,-10.08328 -28.44371,-21.66876 -15.30915,-11.58549 -28.58676,-22.47631 -29.50579,-24.20182 -1.29384,-2.42921 -1.35337,-3.82903 -0.26377,-6.20211 0.77398,-1.68564 11.68571,-15.38516 24.2483,-30.44339 12.56265,-15.05822 22.84114,-27.62624 22.84114,-27.92892 0,-0.30269 -15.5695,3.31381 -34.59887,8.03665 -22.7537,5.64718 -35.69941,8.3129 -37.81348,7.78637 -2.06087,-0.51328 -3.79912,-2.2169 -4.8432,-4.7467 -0.8957,-2.17035 -4.85356,-19.28961 -8.79522,-38.042812 -3.94165,-18.7532 -7.55271,-33.6688 -8.02456,-33.14578 -0.47185,0.52303 -7.11341,14.7617 -14.75903,31.64149 -7.64561,16.879792 -15.01741,31.657292 -16.38177,32.838872 -1.36437,1.18159 -3.81472,2.14834 -5.44523,2.14834 -1.6305,0 -18.04587,-7.48676 -36.47859,-16.63725 L 93.941045,89.530868 110.14433,121.10169 c 8.91179,17.36395 16.20326,33.03156 16.20326,34.81693 0,1.78537 -0.69587,4.17191 -1.54639,5.30343 -0.85051,1.13153 -16.29896,8.7546 -34.329895,16.94015 -18.03092,8.18556 -33.21052,15.27451 -33.73243,15.75323 -0.52191,0.47872 14.78737,4.06164 34.02062,7.96201 20.677065,4.19319 35.841475,7.86336 37.102905,8.97986 1.17335,1.03853 2.43265,2.82397 2.79845,3.96763 0.36579,1.14367 -3.23856,17.94975 -8.00966,37.34686 -4.7711,19.39711 -8.67472,35.80679 -8.67472,36.46596 0,0.65917 11.76721,-8.56596 26.14938,-20.50031 14.38216,-11.93435 27.68091,-22.45698 29.5528,-23.38364 2.33249,-1.15466 4.33083,-1.33494 6.35065,-0.57289 1.71866,0.64842 12.21901,13.16631 25.18946,30.02938 12.23323,15.90459 22.62124,28.94849 23.08446,28.98643 z" />
</svg>
