<svg xmlns="http://www.w3.org/2000/svg" viewBox="0 0 512 512">
  <title>circus-db-icons</title>
  <g>
    <path d="M460.5,16a15,15,0,0,0-15,15c0,1.08-.77,109.28-67.52,189.62-19.35,23.29-47.81,48.63-70.68,69-34.45,30.68-44.38,40-44.38,51.63C262.92,360.4,263,490,263,490l30,0s-0.1-118.37-.11-145.57c4.74-6.05,21-20.56,34.33-32.4,23.62-21,53-47.2,73.8-72.23C474.66,151.21,475.5,35.87,475.5,31A15,15,0,0,0,460.5,16Z"/>
    <path d="M206.93,330.45c-0.12-18.54-23.88-45.23-80.67-101.92C98.37,200.71,85.88,169.08,84.5,122.78c-1-32.74-1-62-1-85.45V31a15,15,0,0,0-30,0v6.32c0,23.69,0,53.16,1,86.36,1.62,53.93,17.21,92.82,50.55,126.09,17.24,17.21,35.24,35.31,49.07,50.79,19.11,21.39,22.28,28.9,22.8,30.67,0.06,5.73.43,21.12,0.9,40.42,0.95,38.93,2.25,92.26,2.25,118.35a15,15,0,0,0,30,0c0-26.46-1.31-80-2.26-119.08C207.34,351.07,207,335.39,206.93,330.45Z"/>
    <path d="M355.65,186C393.95,134.17,411,53.08,411,31a15,15,0,0,0-30,0c0,16.37-15.41,91.13-49.43,137.16-20.37,27.56-59.07,60.57-87.33,84.68l-7.31,6.24c-7.61-8.26-16-19.46-24.82-31.13-13-17.32-27.82-37-44.64-53.52-27.48-27.05-24.88-95.7-23.63-128.69,0.22-5.83.41-10.87,0.41-14.75a15,15,0,1,0-30,0c0,3.31-.18,8.09-0.39,13.62-1.52,40.14-4.34,114.86,32.57,151.2,15.24,15,29.31,33.69,41.72,50.18,14.14,18.79,26.36,35,39,45.06a15,15,0,0,0,19.22-.48c5-4.37,11-9.49,17.34-14.91C293,250.62,333.24,216.31,355.65,186Z"/>
  </g>
</svg>
