<svg xmlns="http://www.w3.org/2000/svg" viewBox="0 0 512 512">
  <title>circus-db-icons</title>
  <g>
    <path d="M450.87,153.5c-16.06-27.82-52.46-40.54-102.48-35.8q-4.18.39-8.46,1-1.65-4-3.4-7.8C315.62,65.16,286.41,40,254.28,40S192.94,65.16,172,110.85c-1.16,2.55-2.29,5.14-3.39,7.79-2.85-.37-5.66-.69-8.45-1-50-4.74-86.42,8-102.49,35.8S48.81,219.2,77.92,260.15Q80.36,263.59,83,267c-1.74,2.28-3.43,4.56-5,6.84-29.11,41-36.3,78.84-20.23,106.66,13.86,24,42.87,36.78,82.72,36.78q9.48,0,19.76-1,4.19-.39,8.44-.95,1.66,4,3.4,7.79C192.94,468.84,222.15,494,254.28,494s61.34-25.16,82.25-70.85q1.75-3.82,3.4-7.8,4.26.56,8.45.95,10.28,1,19.76,1c39.85,0,68.86-12.76,82.73-36.78,16.06-27.82,8.88-65.7-20.24-106.66q-2.43-3.42-5-6.83c1.74-2.28,3.43-4.56,5.05-6.84C459.75,219.21,466.94,181.33,450.87,153.5ZM199.3,123.34c15.52-33.9,35.55-53.34,55-53.34s39.46,19.44,55,53.34c.14.31.28.63.43,1a381.31,381.31,0,0,0-55.39,18.09,380.4,380.4,0,0,0-55.41-18.1ZM336.31,267A445.53,445.53,0,0,1,334,313a447.08,447.08,0,0,1-38.66,25,447.33,447.33,0,0,1-41,21,446.54,446.54,0,0,1-41-21A441.77,441.77,0,0,1,174.6,313a449.29,449.29,0,0,1,0-92,450.82,450.82,0,0,1,79.69-46A450.55,450.55,0,0,1,334,221,445.39,445.39,0,0,1,336.31,267Zm29.57-20.24c7.35,6.63,14.21,13.4,20.52,20.24q-9.47,10.26-20.52,20.24.42-10,.43-20.24T365.88,246.76ZM327.6,353.55c-2.07,9.67-4.5,19-7.26,27.86-9.07-2.05-18.35-4.6-27.77-7.64q8.91-4.65,17.73-9.74T327.6,353.55ZM216,373.77c-9.42,3.05-18.71,5.6-27.79,7.65-2.77-8.89-5.2-18.21-7.27-27.89q8.49,5.39,17.31,10.49T216,373.77Zm-73.34-86.55q-11-9.95-20.5-20.22,9.46-10.25,20.5-20.22-.42,10-.43,20.22T142.67,287.22ZM181,180.47c2.07-9.69,4.5-19,7.27-27.89,9.08,2,18.37,4.6,27.79,7.65-5.93,3.1-11.86,6.35-17.74,9.75S186.61,176.88,181,180.47ZM310.3,170q-8.82-5.1-17.73-9.74c9.42-3,18.7-5.6,27.76-7.64,2.77,8.88,5.2,18.19,7.27,27.86Q319.13,175.07,310.3,170Zm-207.92,72.8C80.78,212.39,74,185.31,83.67,168.49s36.56-24.45,73.68-20.94l1,.11a379.68,379.68,0,0,0-12,57A380.51,380.51,0,0,0,103,243.62C102.79,243.33,102.58,243.05,102.38,242.77Zm55,143.67c-37.1,3.51-64-4.12-73.67-20.94s-2.9-43.89,18.7-74.27l.61-.85a380.51,380.51,0,0,0,43.36,38.92,380.21,380.21,0,0,0,12,57Zm151.9,24.22c-15.51,33.9-35.55,53.34-55,53.34s-39.46-19.44-55-53.34l-.42-.94a379.27,379.27,0,0,0,55.41-18.11,380.57,380.57,0,0,0,55.39,18.1C309.53,410,309.39,410.35,309.25,410.66Zm96.93-119.44c21.6,30.38,28.42,57.45,18.71,74.27S388.32,390,351.21,386.43l-1-.1a381.06,381.06,0,0,0,12-57,380,380,0,0,0,43.38-38.94C405.78,290.66,406,290.94,406.18,291.22Zm0-48.44-.61.84a379.08,379.08,0,0,0-43.38-38.94,380.79,380.79,0,0,0-12-57l1-.11c37.12-3.51,64,4.12,73.68,20.94S427.78,212.4,406.19,242.78Z"/>
    <path d="M196,267a58.31,58.31,0,1,0,58.31-58.31A58.38,58.38,0,0,0,196,267Zm86.62,0a28.31,28.31,0,1,1-28.31-28.31A28.34,28.34,0,0,1,282.59,267Z"/>
  </g>
</svg>
