<svg xmlns="http://www.w3.org/2000/svg" viewBox="0 0 512 512">
  <title>circus-db-icons</title>
  <g>
    <path d="M131.16,178.26a17.31,17.31,0,0,0,16.77,13.06l1,0,137.2-7.72a17.31,17.31,0,0,0,16-20.51l-1.92-10.16,72-13.21a17.31,17.31,0,0,0,14-19.73l-8.62-54.56a17.31,17.31,0,0,0-20.83-14.21L284.64,67.09l-10-28.91a17.3,17.3,0,0,0-16.88-11.66l-142.3,4.23A17.31,17.31,0,0,0,99.22,52.31ZM246.09,61.51L256.93,93A17.31,17.31,0,0,0,277,104.22L346.21,89l3.11,19.72L276.85,122A17.31,17.31,0,0,0,263,142.25l1.49,7.86-103.25,5.81-23.13-91.2Z"/>
    <path d="M308.81,207.83a17.3,17.3,0,0,0-18.25-15.89L156,199.66A17.31,17.31,0,0,0,139.82,219l13.47,110a17.31,17.31,0,0,0,17.17,15.21q0.64,0,1.29,0l132.91-9.79a17.31,17.31,0,0,0,15.93-19.23l-1.2-10.49,71.89-7.59a17.31,17.31,0,0,0,15.48-16.62l1.67-48.89a17.31,17.31,0,0,0-19.24-17.79L310,222.69Zm63.86,56.41-74.29,7.84A17.31,17.31,0,0,0,283,291.26l1.13,9.93-98.49,7.25-9.22-75.27,99.22-5.69,1.28,15.81a17.31,17.31,0,0,0,19.19,15.81l77-8.66Z"/>
    <path d="M327.93,375.31l-1.29-15.83A17.31,17.31,0,0,0,308,343.63l-132.88,10.9a17.31,17.31,0,0,0-15.72,14.82l-15,105.74a17.31,17.31,0,0,0,17.14,19.74h142a17.31,17.31,0,0,0,16.58-12.34l7.29-24.32,70.45-4.24A17.31,17.31,0,0,0,414,438.31l4.38-45.75a17.31,17.31,0,0,0-17.64-19Zm53,45-67.74,4.07a17.31,17.31,0,0,0-15.54,12.31l-7.06,23.56H181.45l10.26-72.3,101.83-8.36,1.21,14.85a17.34,17.34,0,0,0,17.66,15.9l69.66-1.63Z"/>
  </g>
</svg>
