<svg xmlns="http://www.w3.org/2000/svg" viewBox="0 0 512 512">
  <title>circus-db-icons</title>
  <g>
    <path d="M383.81,55h-255a87.11,87.11,0,0,0-87,87V397a87.11,87.11,0,0,0,87,87h255a87.11,87.11,0,0,0,87-87V142A87.11,87.11,0,0,0,383.81,55Zm57,342a57.07,57.07,0,0,1-57,57h-255a57.07,57.07,0,0,1-57-57V142a57.07,57.07,0,0,1,57-57h255a57.07,57.07,0,0,1,57,57V397Z"/>
    <path d="M233.56,174.53H188.42V129a15,15,0,0,0-30,0v45.53H113.28a15,15,0,1,0,0,30h45.14v45.53a15,15,0,0,0,30,0V204.53h45.14A15,15,0,0,0,233.56,174.53Z"/>
    <path d="M394.81,320.4H299a15,15,0,0,0,0,30h95.79A15,15,0,0,0,394.81,320.4Z"/>
    <path d="M394.81,393H299a15,15,0,0,0,0,30h95.79A15,15,0,0,0,394.81,393Z"/>
    <path d="M285.86,250.49a15,15,0,0,0,21.2-.85L344.62,209l37.57,40.69a15,15,0,0,0,22-20.35L365,186.84l39.19-42.46a15,15,0,1,0-22-20.35l-37.57,40.69L307.06,124a15,15,0,1,0-22,20.35l39.19,42.46L285,229.29A15,15,0,0,0,285.86,250.49Z"/>
    <path d="M222.38,363.06H117a15,15,0,0,0,0,30H222.38A15,15,0,0,0,222.38,363.06Z"/>
  </g>
</svg>
