<svg xmlns="http://www.w3.org/2000/svg" viewBox="0 0 512 512">
  <title>circus-db-icons</title>
  <g>
    <path d="M489,193a15,15,0,0,0,0-30H443.8a87.13,87.13,0,0,0-85-85V33a15,15,0,1,0-30,0V78h-52V33a15,15,0,1,0-30,0V78h-52V33a15,15,0,0,0-30,0V78a87.12,87.12,0,0,0-85,85H34.5a15,15,0,0,0,0,30H79.78v52H34.5a15,15,0,0,0,0,30H79.78v52H34.5a15,15,0,0,0,0,30H79.8a87.11,87.11,0,0,0,85,85v43.5a15,15,0,0,0,30,0V442.05h52v43.47a15,15,0,0,0,30,0V442.05h52v43.47a15,15,0,0,0,30,0V442a87.11,87.11,0,0,0,85-85H489a15,15,0,0,0,0-30H443.82V275H489a15,15,0,1,0,0-30H443.82V193ZM413.82,355a57.08,57.08,0,0,1-57,57h-190a57.07,57.07,0,0,1-57-57V165a57.07,57.07,0,0,1,57-57h190a57.07,57.07,0,0,1,57,57Z"/>
    <path d="M384.67,240.22V185.91a48.81,48.81,0,0,0-48.76-48.76H187.69a48.82,48.82,0,0,0-48.77,48.76V334.13a48.83,48.83,0,0,0,48.77,48.77H335.91a48.82,48.82,0,0,0,48.76-48.77V243.29A14.32,14.32,0,0,0,384.67,240.22ZM168.92,334.13V185.91a18.79,18.79,0,0,1,18.77-18.76H335.91a18.78,18.78,0,0,1,18.76,18.76v49.71L237.4,352.9H187.69A18.79,18.79,0,0,1,168.92,334.13Zm167,18.77H279.82l74.85-74.85v56.08A18.78,18.78,0,0,1,335.91,352.9Z"/>
  </g>
</svg>
