<svg xmlns="http://www.w3.org/2000/svg" viewBox="0 0 512 512">
  <title>circus-db-icons</title>
  <g>
    <path d="M448.57,52.46a15,15,0,0,0-21.11,2c-0.48.58-48.51,58.94-76.36,95.41A15,15,0,0,0,353,170.19c8.09,7.24,12.08,17,11.88,29.14-0.36,21-13.38,45.27-33.18,61.83-14.66,12.26-62.49,11.51-85.09,1.74-15.66-6.77-32-26.2-40.74-48.34-7.94-20.19-8.7-39.55-2.14-54.54,8.68-19.81,24.64-35.83,41.67-41.79,8.52-3,16.38-3,22.14.07a15,15,0,0,0,18.5-3.67c29.63-35.56,63.43-75.73,63.77-76.13a15,15,0,1,0-23-19.31c-0.31.37-29.31,34.84-57.16,68.21-10.59-2.45-22.37-1.62-34.21,2.53-25,8.76-47.13,30.46-59.22,58.06-9.79,22.35-9.19,49.89,1.7,77.56,11.8,30,33.55,54.86,56.75,64.89,14,6.07,35.55,9.78,56.46,9.78h1.36c18.07-.14,42.87-3,58.42-16,26.59-22.24,43.42-54.55,43.93-84.33,0.27-15.78-4-29.9-12.39-41.52,27.86-35.83,67.68-84.22,68.12-84.75A15,15,0,0,0,448.57,52.46Z"/>
    <path d="M288.77,318.47c-8.1-2.39-17.37-2.56-27.19-2.74-20-.37-42.58-0.78-64.17-18.26-14.42-11.67-37.07-46-46.32-64.52-4.65-9.3-14.06-13.74-24-11.31-20.35,5-38.36,39.44-37.79,72.28,0.46,26.16,10,50.67,17,68.56,2.6,6.67,6.17,15.81,6.33,18.51,0,37.35-2,108.87-2,109.58a15,15,0,0,0,30,.83c0-.72,2-72.65,2-110.42,0-8-3.51-17-8.38-29.42-6.5-16.66-14.59-37.39-15-58.17a68,68,0,0,1,10.39-36.88c11.4,20,31.8,50.51,48.81,64.27,29.61,24,60.17,24.52,82.5,24.93,6.68,0.12,19.12.35,21.11,2.31a3.66,3.66,0,0,1,.44,1.07c0.84,3-2.76,12.3-22.46,26.43a231.89,231.89,0,0,1-32.75,19.18,15,15,0,0,0-8.67,12.6l-6,88.67a15,15,0,0,0,14,16c0.34,0,.69,0,1,0a15,15,0,0,0,15-14l5.42-80.1a254.82,254.82,0,0,0,29.21-17.76c28.14-20.1,39.64-40,34.17-59.26C309.19,333.05,303.45,322.8,288.77,318.47Z"/>
  </g>
</svg>
