<svg xmlns="http://www.w3.org/2000/svg" viewBox="0 0 512 512">
  <title>circus-db-icons</title>
  <g>
    <path d="M402.69,104.91C372,51.45,333.8,22,295.05,22c-28.88,0-59.41.87-87.4,11.32-33.55,12.52-56.7,37-68.81,72.87-16.79,49.68,13.39,109,26.88,131.77a39.46,39.46,0,0,1-13,10.11c-33,15.46-62.5,44.82-72.87,60.72-11.41,17.5-10.12,42.85-8.88,67.36,0.16,3.17.32,6.33,0.46,9.47,1.94,46-1.29,103.94-1.32,104.52A15,15,0,0,0,84.2,506l0.86,0a15,15,0,0,0,15-14.15c0.14-2.43,3.35-60,1.34-107.48-0.14-3.22-.3-6.48-0.47-9.73-1-18.8-2-40.11,4-49.45,7.08-10.86,32.09-36.66,60.46-49.94,12.48-5.84,21.88-15,29-25.39a14.92,14.92,0,0,0,4-6.47C215.66,213,216,175.28,216.05,173a15,15,0,0,0-14.94-15h-0.07a15,15,0,0,0-15,14.92,139.23,139.23,0,0,1-4.35,31.41c-12.16-25.47-23.7-61.14-14.44-88.54C187.21,56.8,236.94,52,295.05,52c27.14,0,56.89,24.73,81.61,67.84,23.83,41.55,38.92,93.79,39.39,136.33,0.63,57.52-6.88,106.55-21.73,141.8-12.51,29.68-29.53,47.51-47.93,50.2-48.38,7.06-70.74,9.21-93.75-13.77-36.3-36.25-36.52-56.56-33.42-65.44,6.59-18.87,11.16-32.49,13.59-40.47l0.32-1.07c22.2,5.47,43.26,24.94,50.56,33.38a15,15,0,0,0,22.76-19.54c-1.67-1.94-41.29-47.56-88.14-45.22-41.13,2.06-59.49,21.17-75.69,38-2.11,2.2-4.11,4.27-6.16,6.33-7.53,7.53-15.81,23.71-20.11,86.67-2.26,33-2.29,63.33-2.29,64.61a15,15,0,0,0,15,15h0a15,15,0,0,0,15-15c0-.29,0-29.61,2.11-61,3.79-57.05,10.64-67.9,11.61-69.16,2.23-2.24,4.39-4.48,6.48-6.66,11.1-11.56,20.45-21.28,36.94-26-2.14,6.52-5.38,16.11-10.3,30.19-9.63,27.58,4,60.07,40.54,96.56,21.23,21.2,43.48,27.35,68.42,27.35,15.74,0,32.56-2.45,50.86-5.12,20.66-3,49.79-17.3,71.25-68.23,16.43-39,24.76-92.18,24.08-153.78C445.53,208.47,428.92,150.64,402.69,104.91Z"/>
    <path d="M271.23,169.24a15,15,0,0,0-19.68,7.91c-0.9,2.1-3.63,8.5-3.6,26,0,17,2,20.37,3.11,22.36,3.89,6.73,10.38,8.58,16.54,8.58a51,51,0,0,0,13.54-2.26,150.14,150.14,0,0,0,16.44-5.72,15,15,0,0,0-11.83-27.57c-2,.85-4.85,1.91-7.79,2.88,0.06-5.24.42-10.42,1.2-12.56A15,15,0,0,0,271.23,169.24Z"/>
    <path d="M337.08,271.34a15,15,0,0,0-8.82-28.67l-0.18.05C307.78,249,293.84,254.59,287,263.33a17.67,17.67,0,0,0-3.87,14.15c0.88,5.13,3.85,9.28,8.83,12.34,1.34,0.82,5.69,4.37,8.3,6.5a123.08,123.08,0,0,0,11.54,8.8,15,15,0,0,0,15.72-25.55c-0.8-.49-2.67-1.95-4.6-3.5,3.59-1.33,8.16-2.88,14-4.67Z"/>
  </g>
</svg>
