<svg xmlns="http://www.w3.org/2000/svg" viewBox="0 0 512 512">
  <title>circus-db-icons</title>
  <path d="M498,148.93c-.51-9.86-6.21-18.9-17-26.85-25.71-19-82-32.51-140.06-32.17V39.55a15,15,0,0,0-30,0v51.8c-10,.93-19.86,2.31-29.5,4.18v-56a15,15,0,0,0-30,0v54c-51.18-7.37-99.71,5.69-147.66,39.65-30.94,21.91-54.52,52.49-70.09,90.88C20.59,256.57,13.72,294,13.9,332.18,14,363,18.7,392.69,27.38,418c9.17,26.75,22.17,46.55,37.6,57.27,11.68,8.11,25,12.17,40.08,12.17,15.52,0,32.95-4.28,52.51-12.85,24.84-10.87,51.05-27.63,76.67-45.41,1.78,10.14,5.18,20.69,11.63,27.7A27,27,0,0,0,265.13,466c.8,0,1.6,0,2.4,0,24.32,0,49.69-13.13,71.72-37.2,20.09-21.94,33.55-48.95,36-72.26,3.24-30.74-14.94-74.48-25.25-96.35,44.5-12.81,80.82-32.66,122.81-65.85l1.86-1.42C482.68,186.89,499.35,174.26,498,148.93ZM345.42,353.43c-1.75,16.64-12.86,38.29-28.3,55.15-16,17.51-34,27.45-49.62,27.45h-.05c-2.65-3.7-4.77-15.56-5-27.21,28.29-24.36,31.18-59.42,33.53-88,1.78-21.57,3.33-40.4,13.93-51.3q5.25-1,10.32-2C330.25,288,347.9,329.78,345.42,353.43ZM456.56,169c-.84.64-1.63,1.24-2.35,1.81-50.75,40.1-92.44,59.06-153.81,69.95a15,15,0,0,0-6.79,3.09c-22.93,18.49-25.28,47-27.55,74.52-2.31,28.07-4.49,54.59-27.26,70.87-31.09,22.24-63.89,45-93.26,57.88-28.27,12.38-49,13.53-63.45,3.52-18.77-13-37.92-58-38.19-118.63-.17-35.86,7-124.63,77.3-174.39,34-24.08,68.15-36,103.44-36a169.54,169.54,0,0,1,43.52,5.86,14.92,14.92,0,0,0,7.48,0c37.56-9.4,83.95-10.26,127.27-2.38,44.47,8.1,63,21.46,65.19,25.76C468.38,159.44,463.91,163.47,456.56,169Z"/>
</svg>
