<svg xmlns="http://www.w3.org/2000/svg" viewBox="0 0 512 512">
  <title>circus-db-icons</title>
  <path d="M370.62,282.52a144.26,144.26,0,0,0,32.89-91.73C403.51,112.05,340.39,48,262.8,48S122.09,112.05,122.09,190.79a142.66,142.66,0,0,0,29.78,87.89,200.12,200.12,0,0,0-66.17,60.4A183.49,183.49,0,0,0,53,443.44a181.2,181.2,0,0,0,1,19.15A15,15,0,0,0,68.92,476H447.08A15,15,0,0,0,462,462.59a183.62,183.62,0,0,0,1-19.15C463,378,428.07,317.93,370.62,282.52ZM433,446H83c0-.85,0-1.71,0-2.56,0-62.05,38.92-119.56,99.15-146.51a15,15,0,0,0,4.32-24.46,112.78,112.78,0,0,1-34.38-81.68C152.09,128.59,201.75,78,262.8,78s110.71,50.59,110.71,112.79a113.83,113.83,0,0,1-37.21,84.33,15,15,0,0,0,3.45,24.59C397.27,328,433,383.05,433,443.44,433,444.29,433,445.15,433,446Z"/>
</svg>
