<svg xmlns="http://www.w3.org/2000/svg" viewBox="0 0 512 512">
  <title>circus-db-icons</title>
  <g>
    <path d="M404.86,299.46a59.24,59.24,0,1,0-59.24,59.24A59.3,59.3,0,0,0,404.86,299.46Zm-88.48,0a29.24,29.24,0,1,1,29.24,29.24A29.27,29.27,0,0,1,316.38,299.46Z"/>
    <path d="M304.14,52.33c-38.65,0-75.18,15.12-105.63,43.74-28.84,27.1-50.28,65.4-60.37,107.83a15,15,0,0,0,29.19,6.94c18-75.67,74.25-128.51,136.81-128.51C382.91,82.34,447,163.19,447,262.54S382.94,442.73,304.2,442.73c-32.65,0-64.47-14.28-89.82-40.24H377.13a15,15,0,0,0,0-30h-322a15,15,0,1,0,0,30H189.89a15,15,0,0,0,1.26,19.13c31.31,33,71.46,51.11,113,51.11,46.77,0,90.54-22.28,123.25-62.73C459.4,370.47,477,318.1,477,262.54s-17.61-107.93-49.58-147.46C394.7,74.62,350.92,52.34,304.14,52.33Z"/>
    <path d="M224,324.16H64.3a15,15,0,0,0,0,30H224.05a57,57,0,0,0,0-113.93H64.3a15,15,0,1,0,0,30H224.06a27,27,0,0,1,0,53.93Z"/>
  </g>
</svg>
