<svg xmlns="http://www.w3.org/2000/svg" viewBox="0 0 512 512">
  <title>circus-db-icons</title>
  <g>
    <path d="M24,477.31c0.38,0,.77,0,1.16,0A15,15,0,0,0,39,461.17c-1.1-14.41,6-38.54,18.6-63C70.66,372.73,84.31,357,89.82,354c19.33-10.58,38.05-19,56.15-27.08,27.66-12.39,56.26-25.2,86.44-45.66,37.61-25.49,74-72.92,97.35-126.88,12.26-28.33,12-63,11.71-93.54,0-4.06-.07-8-0.07-11.86a15,15,0,0,0-30,0c0,3.92,0,8,.07,12.11,0.23,27.59.5,58.86-9.24,81.37-21.18,48.94-53.57,91.54-86.65,114-28,19-54.18,30.71-81.88,43.12-18.64,8.35-37.91,17-58.29,28.14-19.79,10.83-39.09,46.19-44.54,56.77-7.3,14.18-24,50.26-21.84,79A15,15,0,0,0,24,477.31Z"/>
    <path d="M469.45,149.34c-12.95-12.6-35.38-25.78-69.91-19.5-0.2-7.05.8-18.7,1.65-28.55C402.44,86.72,404,68.59,404,49a15,15,0,0,0-30,0c0,18.3-1.43,35-2.7,49.72-2.52,29.33-4,47,7.66,57.11,3.26,2.8,10.38,7.12,21.52,4.46,20.11-4.8,35.83-1.35,48.05,10.55,23.38,22.75,31.37,74.83,19.88,129.62C452.59,375.87,411.12,428,354.62,443.57c-79.21,21.79-147.35,17.66-173.6-10.51-3-3.21-6.79-10-10.46-16.49-5.9-10.49-12.59-22.38-21.57-30.62-13-11.92-28.51-13.95-43.72-5.7-11,6-21.76,20-32.06,41.84C67,435.31,59.67,454.49,59.67,465a15,15,0,0,0,30,.09c0.2-3.27,4-16.35,11-31,8.82-18.45,16.21-26.07,18.88-27.52,3.63-2,5.36-2,9.12,1.43,5.46,5,10.91,14.69,15.71,23.24s9.23,16.4,14.66,22.23c18.79,20.17,48.54,31.48,88.42,33.62q6.75,0.36,13.8.36c30.69,0,65.38-5.12,101.29-15,32.9-9,62.58-28.81,85.82-57.16,23.7-28.9,40.31-65.48,49.38-108.72,6.4-30.53,7.56-61,3.34-88C496.5,188.94,485.55,165,469.45,149.34Z"/>
  </g>
</svg>
