<svg xmlns="http://www.w3.org/2000/svg" viewBox="0 0 512 512">
  <title>circus-db-icons</title>
  <path d="M381,171A229.46,229.46,0,0,0,55.46,261.25a15,15,0,0,0,.41,14.42,236.17,236.17,0,0,0,407.74,0,15,15,0,0,0,.41-14.42A230.14,230.14,0,0,0,381,171ZM86.11,267.6a198.59,198.59,0,0,1,116-92.85,106.57,106.57,0,0,0,.39,179.65A207.34,207.34,0,0,1,86.11,267.6Zm173.63,73.49a76.64,76.64,0,1,1,76.64-76.64A76.72,76.72,0,0,1,259.74,341.09ZM317,354.41a106.57,106.57,0,0,0,.39-179.65,198.59,198.59,0,0,1,116,92.85A207.34,207.34,0,0,1,317,354.41Z"/>
</svg>
