<svg xmlns="http://www.w3.org/2000/svg" width="512" height="512" viewBox="0 0 512 512">
  <title>circus-db-icons</title>
  <path d="M429.86,124.37v-5.58A96.86,96.86,0,0,0,333.1,22H187.89a96.86,96.86,0,0,0-96.76,96.76v4.06c-40,7.3-70.66,42.49-70.66,84.55V402.08a86.26,86.26,0,0,0,86,86h114.3V398.62H159.21l98-191.51,97.94,191.51H293.54v89.47h114.3a86.26,86.26,0,0,0,86-86V207.4C493.85,167.71,466.57,134.17,429.86,124.37Zm-38.7-3H129.83v-2.6a58.12,58.12,0,0,1,58.06-58.06H333.1a58.12,58.12,0,0,1,58.06,58.06Z"/>
</svg>
