<svg xmlns="http://www.w3.org/2000/svg" width="512" height="512" viewBox="0 0 512 512">
  <title>focus</title>
  <g>
    <path d="M256,172.9a82.69,82.69,0,1,0,82.69,82.69A82.78,82.78,0,0,0,256,172.9Zm0,138.47a55.79,55.79,0,1,1,55.78-55.78A55.85,55.85,0,0,1,256,311.37Z"/>
    <path d="M461.83,244.19H429.56c-5.51-84.75-72-153.14-155.9-161.62V54.29a16.36,16.36,0,0,0-32.71,0V82.34C155.84,89.69,88.08,158.59,82.51,244.19H49.33a16.36,16.36,0,1,0,0,32.71H83.44c9.93,81,75.71,144.87,157.51,151.94v38a16.36,16.36,0,0,0,32.71,0V428.61c80.62-8.15,145.14-71.59,155-151.71h33.19a16.36,16.36,0,1,0,0-32.71ZM273.66,395.69v-1.75a16.36,16.36,0,1,0-32.71,0v2A141.49,141.49,0,0,1,116.45,276.9h5.74a16.36,16.36,0,0,0,0-32.71H115.3A141.44,141.44,0,0,1,241,115.2v12a16.36,16.36,0,1,0,32.71,0V115.49a141.44,141.44,0,0,1,123.11,128.7H389a16.36,16.36,0,0,0,0,32.71h6.66A141.51,141.51,0,0,1,273.66,395.69Z"/>
  </g>
</svg>
