<svg xmlns="http://www.w3.org/2000/svg" viewBox="0 0 3072 512">
  <title>circus-db-icons</title>
  <g>
    <path d="M2681.58,36.44C2701,24,2725.29,24,2747.65,23.09c72.66,0.1,145.34-.19,218,0.14,25.18,0.93,54,3.11,72.06,23.1,16,21.4,16.36,49.58,16,75.19-20.15,4.56-39.87,10.82-59.74,16.25-0.09-19.48,0-39,0-58.41-92.33-.29-184.61.07-276.83-0.2-0.9,35.9-.12,71.76-0.54,107.7,84.61,1.94,169.25.1,253.89,0.88,20.66,1,43,1.68,60.93,13.39,19.06,11.93,23.64,36.19,26,56.91a742.13,742.13,0,0,1,.15,91.8c-1.8,18.31-5.09,38.2-17.68,52.42-17.15,16.51-42.32,18.44-64.81,20.11H2723.8c-25.3-1.5-55.2-4.38-71.1-26.9-14.28-24.25-13.21-53.12-12.78-80.24,21.07-5.48,42.2-10.62,63.58-14.84q0.15,31.9,0,63.86c97.62,0.15,195.2-.1,292.79.08,0.32-38.67.13-77.33,0.18-116-84.67-.49-169.33,0-253.93-0.24-22.21-1.38-46.58-2.59-64.7-16.81-16.57-13.24-20.3-35.87-22.42-55.64-1.52-29-1.91-58.26.66-87.18,2.67-19.16,7.63-41.19,25.45-52h0Z"/>
    <path d="M2027.88,23.39c22.8-.53,45.6-0.3,68.47-0.25,0.3,113.66.1,227.33,0.06,341,95.3,0.37,190.65-.09,285.93.18,0.68-113.79-.56-227.59.61-341.35q33.69,0.32,67.38-.08c0.8,102.6.25,205.2,0.35,307.8-1.39,25.18-1.81,54.63-20.91,73.62-21.74,17.52-51.72,18-78.35,18.12-80.8-.27-161.54.1-242.33-0.17-23.66-1.94-51.1-4.68-66.69-25-10.63-16.95-13.92-37.45-14.36-57.1-0.08-105.63.22-211.22-.14-316.82h0Z"/>
    <path d="M1462.5,46.64c18.7-21.66,49.65-22.68,76.18-23.5,77.54,0,155.07-.24,232.62.09,25.49,1.17,56.17,3.11,72.26,26,17.15,32.81,12.65,71.35,14.06,107.08-23,5-46.11,9.24-69.29,13.09-1.21-30.08,0-60.2-.81-90.28-90.72.2-181.44,0-272.15,0.18q-0.14,142.43,0,284.9c90.74,0.08,181.51-.1,272.28.08,0.59-33.09-.43-66.22.59-99.28,23.11,4.09,45.94,9.55,69,13.75-0.46,36.33,3,74.36-9.75,109.15-10.92,28.13-44.91,32.57-71.22,34.32-80.79.21-161.56,0-242.34,0.12-24.45-1.18-52.24-3.3-70.05-22.31-14-18.39-16.06-42.74-17.16-65q-0.15-111,0-222.06c0.54-22.73,3-46.91,15.8-66.34h0Z"/>
    <path d="M1135,267.68c36.26-1.82,75.51,6.36,109.07-11.35,21.76-11.5,28.65-38.11,29.3-60.93,0.44-30.76,0-61.54.17-92.27-0.17-21.88-3.32-46.37-20.1-62.09-19.67-17.36-47.52-17.71-72.33-18-104.5.35-209.08-.43-313.67,0.39,0.48,133,.09,265.94.19,398.93,22.73,0,45.5-.07,68.21,0,0.31-51.45.46-102.89-.06-154.29,38.26-.73,76.44-0.34,114.71-0.24,53.24,51.91,107.57,102.7,160.89,154.53,34.27-.09,68.57.12,102.87-0.09C1255.86,369.22,1193.89,320.28,1135,267.68Zm-199-54c-0.19-45.21.53-90.42-.44-135.64,65.73-2.76,131.59-.31,197.27-1.21,18.53,0.61,38.16-2.12,55.72,5.14,14.92,7.47,15.65,26.25,15.5,40.8-0.89,23.31,2.14,47-2.37,70.05-4.44,17.08-24.4,21.49-39.74,21.15C1086.68,213.84,1011.36,214.32,936.07,213.69Z"/>
    <path d="M596.64,23.58c22.82-.88,45.74-0.44,68.59-0.44q0.22,199.61-.08,399.23H597c-0.24-133,.44-265.87-0.34-398.79h0Z"/>
    <path d="M31.41,46.64C50.16,24.93,81.12,24,107.73,23.14c77.4,0,154.8-.24,232.22.09,25.48,1.17,55.82,3.06,72.19,25.49C429.74,81.6,425,120.43,426.5,156.35c-23,5-46.13,9.24-69.34,13-1.16-30.07.07-60.15-.78-90.23-90.69.2-181.45,0-272.15,0.18Q84,221.78,84.21,364.2c90.78,0.19,181.53,0,272.34.12,0.53-33.09-.41-66.17.47-99.26,23.16,4,46,9.53,69.15,13.7-0.51,36.31,2.93,74.3-9.73,109.08-10.89,28.33-45.09,32.58-71.45,34.42q-123.68.26-247.24,0c-23.78-1.75-51.14-4.68-67-24.72-12.64-19.67-14.61-43.9-15.26-66.61q0.17-109.23.07-218.45c0.58-22.56,3.13-46.57,15.82-65.86h0Z"/>
  </g>
</svg>
