<svg xmlns="http://www.w3.org/2000/svg" width="512" height="512" viewBox="0 0 512 512">
  <title>circus-db-icons</title>
  <g>
    <path d="M457.34,70,209.27,34a2.4,2.4,0,0,1-.28,0l-.56,0q-.5,0-1,0h-.55a10,10,0,0,0-1.1.1l-.41,0a12.06,12.06,0,0,0-1.47.34l-.28.1a11.54,11.54,0,0,0-1.16.44,3.55,3.55,0,0,0-.44.21c-.33.16-.66.33-1,.52l-.26.14-152,96a12.5,12.5,0,0,0-5.83,10.57V434.49c0,.09,0,.19,0,.28a1.28,1.28,0,0,0,0,.19,12.4,12.4,0,0,0,11.38,12l210.39,47.77a12.52,12.52,0,0,0,9-1.35l188.06-108,.05,0,.27-.17.63-.4.29-.22c.19-.14.38-.28.55-.43l.13-.1.12-.12c.26-.23.5-.46.74-.71.05-.05.11-.1.16-.16.27-.3.53-.6.77-.92.06-.07.1-.14.16-.22.19-.25.36-.52.53-.79.06-.1.12-.19.17-.29a11.53,11.53,0,0,0,.55-1l0-.07c.16-.34.29-.69.42-1,0-.11.07-.22.1-.32.1-.31.19-.63.26-.95l.06-.23a11.6,11.6,0,0,0,.19-1.18l0-.26c0-.33,0-.66,0-1,0-.07,0-.13,0-.19V82.38A12.5,12.5,0,0,0,457.34,70ZM355.22,417.68l-50-11.48c42-9.71,63.67-29.23,66.41-31.85l46.68,7.1ZM138.07,370.75l-.1,0-.09,0a212.83,212.83,0,0,1-25.82-8.93c.13-8.63,3.45-28.65,17-47.47,16.67-23.16,43.07-37.19,78.44-41.71a12.5,12.5,0,0,0,2.17-24.32A68.66,68.66,0,0,1,210.64,117h0a68.65,68.65,0,0,1,41.57,130.83,12.5,12.5,0,0,0,2.63,24.28c79.37,8.66,93,67.07,95.3,87.63-9.78,7.39-37.07,24.36-84.05,26.65C209.13,389.19,157.59,376.39,138.07,370.75ZM194.63,96.2a94.61,94.61,0,0,0-39,30.13,92.73,92.73,0,0,0-18.1,44v-65l57.31-36.2Zm-57.13,99a92.72,92.72,0,0,0,17.7,43.47A94.11,94.11,0,0,0,171,255.27a133.82,133.82,0,0,0-33.5,16.52Zm-25-74.1v173.8a117,117,0,0,0-17.76,30.6,111.55,111.55,0,0,0-7.29,29.92c-1.5,16,2.11,20.33,3.66,22.18,2.24,2.67,7.25,5.6,15,8.75l-38.15,24.9v-262Zm153,348.1-178.4-40.5,49.6-32.41A459.14,459.14,0,0,0,212,409.94a12.22,12.22,0,0,0,3.23,1.24L323.32,436Z"/>
    <path d="M217.55,202l-6.42-1.18,7-13.94a8,8,0,0,0-14.3-7.2L192,203.14a8,8,0,0,0,5.7,11.47l16.93,3.11a7.9,7.9,0,0,0,1.45.13A8,8,0,0,0,217.55,202Z"/>
  </g>
</svg>
