<svg xmlns="http://www.w3.org/2000/svg" width="512" height="512" viewBox="0 0 512 512">
  <title>circus-db-icons</title>
  <path d="M457.34,70,209.27,34a2.4,2.4,0,0,1-.28,0l-.56,0q-.5,0-1,0h-.55a10.22,10.22,0,0,0-1.1.1l-.41,0a14.9,14.9,0,0,0-1.47.34l-.3.11q-.57.18-1.14.42l-.45.22c-.33.16-.65.33-1,.52l-.27.14-152,96a12.5,12.5,0,0,0-5.83,10.57V434.49c0,.09,0,.19,0,.28a1.28,1.28,0,0,0,0,.19,12.4,12.4,0,0,0,11.38,12l210.39,47.77a12.52,12.52,0,0,0,9-1.35l188.06-108,.05,0,.27-.17.63-.4.29-.22c.19-.14.38-.28.55-.43l.13-.1.12-.12c.26-.23.5-.46.74-.71.05-.05.11-.1.16-.16.27-.3.53-.6.77-.92.06-.07.1-.14.16-.22.19-.25.36-.52.53-.79.06-.1.12-.19.17-.29a11.53,11.53,0,0,0,.55-1l0-.07c.16-.34.29-.69.42-1,0-.11.07-.22.1-.32.1-.31.19-.63.26-.95l.06-.23a11.6,11.6,0,0,0,.19-1.18l0-.26c0-.33,0-.66,0-1,0-.07,0-.13,0-.19V82.38A12.5,12.5,0,0,0,457.34,70ZM67.92,302.86,156.23,240A93.54,93.54,0,0,0,171,255.27c-48,16.1-68.13,49.49-76.26,70.26a111.55,111.55,0,0,0-7.29,29.92c-1.5,16,2.11,20.33,3.66,22.18,2.24,2.67,7.25,5.6,15,8.75l-38.15,24.9ZM210.64,117h0a68.65,68.65,0,0,1,41.57,130.83,12.5,12.5,0,0,0,2.63,24.28c79.37,8.66,93,67.07,95.3,87.63-9.78,7.39-37.07,24.36-84.05,26.65-57,2.8-108.53-10-128-15.64l-.1,0-.09,0a212.83,212.83,0,0,1-25.82-8.93c.13-8.63,3.45-28.65,17-47.47,16.67-23.16,43.07-37.19,78.44-41.71a12.5,12.5,0,0,0,2.17-24.32A68.66,68.66,0,0,1,210.64,117ZM373.93,349.42a126.51,126.51,0,0,0-20.31-50c-15-21.58-36-36.73-62.65-45.25A93.47,93.47,0,0,0,310.59,231L443,246.54V359.93ZM443,221.36,320.75,207A93.67,93.67,0,0,0,219.68,89.74l.17-25.24,0-3.7L443,93.2ZM194.81,69.15l-.18,27.05a94.61,94.61,0,0,0-39,30.13,93.78,93.78,0,0,0-12,92L67.92,272.18V149.29Z"/>
</svg>
