<svg xmlns="http://www.w3.org/2000/svg" width="512" height="512" viewBox="0 0 512 512">
  <title>circus-db-icons</title>
  <g>
    <path d="M465.64,381.82c.19-.25.36-.52.53-.79.06-.1.12-.19.17-.29a11.53,11.53,0,0,0,.55-1l0-.07c.16-.34.29-.69.42-1,0-.11.07-.22.1-.32.1-.31.19-.63.26-.95l.06-.23a11.6,11.6,0,0,0,.19-1.18l0-.26c0-.33,0-.66,0-1,0-.07,0-.13,0-.19V82.38A12.5,12.5,0,0,0,457.34,70L209.27,34a2.4,2.4,0,0,1-.28,0l-.56,0q-.5,0-1,0h-.55a10.22,10.22,0,0,0-1.1.1l-.41,0a14.27,14.27,0,0,0-1.47.34l-.3.11a12,12,0,0,0-1.14.42l-.45.22c-.33.16-.65.33-1,.52l-.27.14-152,96a12.5,12.5,0,0,0-5.83,10.57V434.49c0,.09,0,.19,0,.28a1.28,1.28,0,0,0,0,.19,12.4,12.4,0,0,0,11.38,12l210.39,47.77a12.52,12.52,0,0,0,9-1.35l188.06-108,.05,0,.27-.17.63-.4.29-.22c.19-.14.38-.28.55-.43l.13-.1.12-.12c.26-.23.5-.46.74-.71.05-.05.11-.1.16-.16.27-.3.53-.6.77-.92C465.54,382,465.58,381.9,465.64,381.82ZM138.07,370.75l-.1,0-.09,0a214.26,214.26,0,0,1-25.79-8.91c0-.52,0-1.09.07-1.7l232.52-22.62c.13,0,.25,0,.38-.06a104.71,104.71,0,0,1,5.11,22.33c-9.78,7.39-37.08,24.36-84.05,26.65C209.13,389.19,157.59,376.39,138.07,370.75ZM210.67,117a68.15,68.15,0,0,1,19.63-2.86A69.74,69.74,0,0,1,246.43,116a68.27,68.27,0,0,1,52.19,60.07h0c.21,2.21.32,4.46.32,6.69a68.57,68.57,0,0,1-46.7,65.05,12.5,12.5,0,0,0,2.64,24.28,141.89,141.89,0,0,1,29.7,6.31,236.56,236.56,0,0,1-35.41,14.68c-12.49,4-27.43,6.67-44.41,7.85-21.1,1.47-44-.05-61.88-1.87C159,284.91,180.69,276,207.53,272.59a12.5,12.5,0,0,0,2.16-24.32c-1-.31-2-.64-2.92-1-1.63-.59-3.23-1.26-4.81-2-.75-.34-1.49-.69-2.22-1.06a68.61,68.61,0,0,1-38.07-61.45,67.2,67.2,0,0,1,.92-11.12A69.11,69.11,0,0,1,210.67,117ZM67.92,364.39l19.19-1.87c0,6.19,1.13,11.7,4,15.11,2.24,2.67,7.25,5.6,15,8.75l-38.15,24.9Zm306-15a130.71,130.71,0,0,0-10.32-32.66L443,192.54V359.93ZM443,144,321.35,160.84l-.09-.35c-.17-.7-.37-1.4-.56-2.1s-.35-1.34-.54-2-.44-1.39-.66-2.09-.41-1.31-.63-2-.5-1.38-.75-2.07-.47-1.28-.71-1.91-.57-1.37-.86-2.05-.51-1.24-.79-1.85-.63-1.35-.95-2-.57-1.21-.87-1.8-.7-1.34-1.06-2-.61-1.16-.93-1.74-.77-1.31-1.16-2-.66-1.12-1-1.67-.84-1.3-1.27-2-.69-1.07-1.06-1.6-.92-1.29-1.38-1.93-.73-1-1.11-1.52-1-1.27-1.51-1.91c-.38-.47-.75-1-1.14-1.43-.55-.65-1.12-1.29-1.68-1.93-.38-.43-.74-.87-1.13-1.29-.64-.71-1.31-1.39-2-2.07-.34-.35-.66-.7-1-1q-1.52-1.53-3.11-3A93.4,93.4,0,0,0,230.3,89.14c-1,0-2.07,0-3.11.06l-.95,0c-.73,0-1.47.07-2.2.12l-1,.07q-1.14.09-2.28.21l-.83.08-.21,0,.17-25.24,0-3.7L443,93.2ZM194.81,69.15l-.18,27.05-.9.39-1.21.53c-.68.3-1.36.61-2,.93l-1.11.52c-.79.39-1.58.8-2.36,1.21-.24.12-.47.23-.7.36-1,.54-2,1.1-3,1.67l-.78.47c-.72.43-1.45.87-2.16,1.32l-1,.68-1.85,1.23-1.08.76c-.6.42-1.2.86-1.79,1.29l-1,.76c-.65.5-1.29,1-1.93,1.52l-.78.62c-.88.73-1.76,1.47-2.62,2.23-.16.13-.31.28-.46.42-.7.63-1.4,1.26-2.08,1.91-.29.27-.57.55-.85.83-.55.53-1.09,1.06-1.62,1.61l-.9.94q-.76.8-1.5,1.62l-.87,1c-.52.59-1,1.18-1.53,1.79-.24.28-.48.56-.71.85-.73.89-1.45,1.79-2.14,2.71a92.75,92.75,0,0,0-18.93,56.45c0,1,0,2,.05,3,0,.33,0,.66.05,1,0,.69.06,1.37.1,2.06L137,190c0,.63.1,1.26.16,1.89,0,.4.08.8.13,1.19.07.63.14,1.25.22,1.87.05.39.1.77.16,1.16.09.66.2,1.32.31,2,.05.34.11.68.17,1,.15.87.31,1.73.49,2.59,0,.12.05.25.07.37.21,1,.43,2,.67,2.93l.24.92c.17.67.34,1.34.53,2,.1.37.21.74.32,1.11q.25.9.54,1.8c.12.38.24.76.37,1.15.19.58.39,1.16.59,1.75.14.37.27.75.4,1.12.22.61.45,1.21.69,1.81l.39,1c.3.74.61,1.47.92,2.2.09.19.16.38.25.57.4.92.82,1.83,1.26,2.74l.37.76v0l-78.3,97.93V149.29Zm70.68,400.08-178.4-40.5,49.6-32.41c23.88,6.48,74.73,17.79,130.65,15.05,67.09-3.28,100.8-33.71,104.27-37l46.68,7.1Z"/>
    <path d="M197.73,214.61l16.93,3.11a7.9,7.9,0,0,0,1.45.13A8,8,0,0,0,217.55,202l-6.42-1.18,7-13.94a8,8,0,0,0-14.3-7.2L192,203.14a8,8,0,0,0,5.7,11.47Z"/>
  </g>
</svg>
