<svg xmlns="http://www.w3.org/2000/svg" viewBox="0 0 512 512">
  <title>circus-db-icons</title>
  <path d="M484.45,427L448.67,89.52a33.65,33.65,0,0,0-37-29.89l-22.84,2.43L392.8,99.2l19.12-2,35,330-269.78,28.6-1.49-14.07,198.3-21a33.65,33.65,0,0,0,29.87-37L368,46.28a33.67,33.67,0,0,0-37-29.87L53.86,45.8A33.65,33.65,0,0,0,24,82.76L59.77,420.21a33.67,33.67,0,0,0,33.37,30.07,34.1,34.1,0,0,0,3.6-.19l41.77-4.43,1.89,17.79a33.67,33.67,0,0,0,33.37,30.07,34.1,34.1,0,0,0,3.6-.19l277.21-29.39A33.65,33.65,0,0,0,484.45,427ZM96.51,412.56l-35-330L331.3,53.93l35,330Z"/>
</svg>
