<svg xmlns="http://www.w3.org/2000/svg" viewBox="0 0 512 512">
  <title>circus-db-icons</title>
  <path d="M483.75,470.22L373.87,360.35A199.42,199.42,0,0,0,432,219.55C432,109.23,342.2,19.47,231.88,19.47S31.8,109.23,31.8,219.55s89.75,200.08,200.08,200.08A198.93,198.93,0,0,0,344.23,385L456.59,497.37A19.2,19.2,0,1,0,483.75,470.22ZM63.8,219.55a167,167,0,0,1,15.7-70.82l18.23,172A167.19,167.19,0,0,1,63.8,219.55Zm35.37-80.3L247.74,123.5,267,305.23,118.44,321Zm17.48,202.5a18.8,18.8,0,0,0,1.91-.1l23-2.44,1,9.8A18.54,18.54,0,0,0,161,365.56a18.77,18.77,0,0,0,2-.11l152.65-16.19a18.53,18.53,0,0,0,16.45-20.36L312.37,143.1A18.53,18.53,0,0,0,292,126.64L279.43,128l2.17,20.45,10.53-1.12L311.4,329,162.84,344.79,162,337l109.2-11.58a18.53,18.53,0,0,0,16.45-20.36L268,119.28a18.54,18.54,0,0,0-20.36-16.45L97.47,118.75a167.92,167.92,0,0,1,134.4-67.28c92.68,0,168.08,75.4,168.08,168.08s-75.4,168.08-168.08,168.08A167.42,167.42,0,0,1,116.65,341.75Z"/>
</svg>
